<?xml version="1.0" encoding="utf-8" ?>
<svg xmlns="http://www.w3.org/2000/svg" xmlns:xlink="http://www.w3.org/1999/xlink" width="689" height="689">
	<path fill="#FEFEFE" transform="scale(0.672852 0.672852)" d="M0 0L1024 0L1024 1024L0 1024L0 0Z"/>
	<path fill="#282425" transform="scale(0.672852 0.672852)" d="M559.638 42.7094C573.357 41.9462 587.387 42.4093 601.073 43.5534C628.991 45.8873 673.532 55.1598 691.856 77.2195C696.888 83.2771 699.607 90.8682 698.755 98.7895C697.625 109.282 690.83 116.283 683.113 122.636C679.566 134.132 677.186 145.99 674.122 157.62Q661.07 206.786 649.206 256.252Q662.997 254.262 676.906 253.43Q690.815 252.598 704.745 252.929C736.609 253.615 790.428 260.507 813.15 284.567C819.101 290.868 822.457 299.026 822.007 307.764C821.405 319.493 814.013 327.222 805.856 334.735C803.884 341.274 802.753 348.013 801.23 354.664C798.642 365.965 795.849 377.265 793.021 388.509C787.197 411.661 779.705 434.822 775.292 458.276C819.408 450.997 880.741 452.027 921.193 473.107C932.957 479.237 945.121 487.646 949.126 501.005C955.963 523.805 935.61 529.682 930.931 548.105L892.546 694.236C890.306 702.522 886.773 722.565 883.167 728.917C880.484 733.644 877.177 736.226 872.455 738.678C863.891 743.125 854.595 746.519 845.785 750.493L779.309 780.477Q666.655 832.471 552.897 882.005L443.78 931.222L402.112 950.407C394.151 954.103 386.072 958.429 377.795 961.297C370.408 963.857 362.251 965.239 354.648 967.143Q334.361 971.912 313.995 976.334C297.431 980.035 280.628 983.942 263.83 986.358C278.278 980.356 293.384 975.714 308.163 970.598Q326.846 963.967 345.237 956.563C357.899 951.495 370.09 945.151 382.456 939.413C399.899 931.318 417.538 923.598 435.077 915.709C445.354 911.087 470.612 901.345 478.247 894.725C460.897 894.2 438.995 888.431 424.628 878.428C420.373 875.465 415.222 871.206 412.919 866.514C408.63 857.776 404.661 838.803 401.839 828.716Q393.873 800.496 386.408 772.139C383.536 761.353 380.24 750.484 378.202 739.507C358.348 747.124 338.07 749.665 316.926 747.499C303.817 746.157 279.03 740.519 269.972 730.224C268.444 728.489 267.886 726.465 267.243 724.293C261.7 705.559 257.85 686.285 253.169 667.321L228.71 572.203C226.279 562.998 222.673 545.106 218.934 537.504C216.896 533.359 212.501 530.103 209.619 526.488C204.902 520.573 202.214 512.638 203.209 505.027C204.459 495.463 211.136 487.781 218.427 482.045C249.127 457.889 304.31 452.769 342.419 454.079C353.769 454.47 365.009 455.875 376.274 457.226C369.016 428.666 360.927 400.314 353.365 371.834Q350.231 359.816 347.31 347.744C346.048 342.619 344.962 336.957 342.958 332.074C341.407 328.295 338.069 325.581 335.533 322.461Q335.11 321.949 334.714 321.416Q334.318 320.884 333.95 320.331Q333.581 319.779 333.242 319.208Q332.903 318.637 332.594 318.049Q332.284 317.462 332.005 316.859Q331.727 316.257 331.479 315.641Q331.232 315.025 331.017 314.396Q330.801 313.768 330.618 313.13Q330.436 312.492 330.286 311.845Q330.137 311.198 330.02 310.544Q329.904 309.891 329.822 309.232Q329.74 308.573 329.691 307.911Q329.643 307.249 329.629 306.585Q329.615 305.921 329.635 305.257Q329.655 304.594 329.709 303.932Q329.763 303.27 329.851 302.612C331.02 293.23 337.28 285.601 344.629 280.116C353.16 273.75 362.831 269.574 372.799 266.026C413.484 251.544 460.698 250.81 503.05 256.94C497.158 233.139 490.467 209.531 484.499 185.744L474.87 147.901C473.427 142.124 472.361 136.13 470.631 130.446C466.802 117.87 454.525 111.398 453.546 97.4166C452.97 89.1953 456.002 81.8832 461.358 75.7967C482.439 51.8386 529.127 44.6111 559.638 42.7094Z"/>
	<path fill="#FEFEFE" transform="scale(0.672852 0.672852)" d="M482.844 531.716C483.075 531.692 483.304 531.66 483.535 531.644C491.543 531.067 499.99 531.567 507.997 531.982C546.103 533.96 604.143 543.294 632.991 569.814C639.234 575.553 644.228 583.302 644.407 592.031C644.56 599.503 641.242 606.202 636.161 611.491C608.748 640.029 540.193 650.75 501.799 651.627C458.247 654.107 386.157 644.071 352.36 614.929C345.413 608.939 339.392 600.889 338.923 591.4C338.543 583.71 342.031 576.422 347.102 570.827C375.099 539.937 443.321 533.884 482.844 531.716Z"/>
	<path fill="#282425" transform="scale(0.672852 0.672852)" d="M471.754 545.213C510.639 543.037 587.034 551.147 617.572 576.05C622.228 579.846 626.67 584.865 627.173 591.114C627.617 596.623 624.51 601.747 621.037 605.773C616.013 611.597 609.222 615.301 602.422 618.674C573.662 632.943 541.481 636.988 509.855 639.414C492.096 639.937 474.475 639.739 456.771 638.033C429.562 635.411 385.984 626.693 364.592 609.037C359.119 604.52 354.227 598.434 353.715 591.085C353.388 586.392 355.635 582.208 358.711 578.824C379.374 556.093 441.964 546.757 471.754 545.213Z"/>
	<path fill="#FEFEFE" transform="scale(0.672852 0.672852)" d="M479.591 556.737C494.801 556.535 509.985 556.821 525.126 558.35C549.845 560.846 599.937 569.34 615.704 589.556C617.152 591.413 618.237 593.678 617.825 596.088C616.936 601.294 610.624 604.962 606.645 607.746C606.383 607.417 606.122 607.086 605.839 606.774C587.677 586.78 527.3 580.078 500.125 579.032C457.441 577.76 406.359 582.1 370.865 607.936C368.696 606.181 366.51 604.433 364.397 602.611C362.725 601.169 359.97 598.473 360.077 596.069C360.192 593.501 362.398 590.986 364.036 589.191C388.111 562.8 445.707 558.11 479.591 556.737Z"/>
	<path fill="#FEFEFE" transform="scale(0.672852 0.672852)" d="M468.514 588.77C510.993 585.601 557.907 590.955 594.821 613.532C592.256 614.606 589.595 615.512 586.987 616.48C581.829 618.23 576.73 620.283 571.628 622.198C542.642 601.531 502.834 594.579 468.437 589.286L468.514 588.77Z"/>
	<path fill="#FEFEFE" transform="scale(0.672852 0.672852)" d="M326.805 463.225Q328.307 463.172 329.81 463.157C361.057 462.837 419.325 470.179 441.989 492.575C446.49 497.023 450.004 502.884 449.891 509.396C449.737 518.294 442.686 524.709 436.816 530.487C420.809 533.899 405.036 536.506 389.402 541.562Q382.553 543.771 375.935 546.6C371.492 548.523 366.837 551.115 362.09 552.121C356.028 553.404 345.425 553.03 338.874 553.404C307.477 554.118 276.563 552.554 247.211 540.171C238.776 536.613 230.197 532.115 223.266 526.058C218.484 521.879 214.405 516.482 214.092 509.901C213.799 503.73 216.878 498.318 220.997 493.964C244.164 469.474 294.458 464.291 326.805 463.225Z"/>
	<path fill="#282425" transform="scale(0.672852 0.672852)" d="M324.848 473.226C352.311 472.102 409.51 477.833 430.138 495.985C433.873 499.272 437.201 503.9 437.397 509.04C437.547 512.988 435.617 516.524 432.96 519.323C416.192 536.986 362.74 543.159 338.75 543.502C307.567 544.16 265.365 542.583 238.215 525.658C231.352 521.38 227.077 516.139 225.274 508.196C226.241 504.61 227.571 501.914 230.131 499.176C234.892 494.083 241.783 490.873 248.074 488.132C272.477 477.501 298.5 474.216 324.848 473.226Z"/>
	<path fill="#FEFEFE" transform="scale(0.672852 0.672852)" d="M321.371 481.718C347.462 479.295 388.686 483.893 412.387 495.414C420.059 499.144 427.348 503.779 430.277 512.172C428.177 515.022 425.998 517.707 423.146 519.838C398.414 503.775 369.508 499.558 340.624 498.181C311.197 496.852 263.717 502.627 239.694 520.266C237.23 518.518 232.683 515.546 232.375 512.254C232.175 510.124 233.523 508.262 234.872 506.76C251.329 488.439 297.571 483.35 321.371 481.718Z"/>
	<path fill="#FEFEFE" transform="scale(0.672852 0.672852)" d="M316.388 505.254Q318.206 505.183 320.024 505.134C344.472 504.479 391.159 508.378 409.058 525.363L408.979 526.136L407.364 527.033C403.728 528.366 399.988 529.294 396.243 530.262C377.636 519.251 358.276 513.522 337.241 509.182C330.484 507.788 322.9 507.447 316.388 505.254Z"/>
	<path fill="#FEFEFE" transform="scale(0.672852 0.672852)" d="M686.822 262.222C719.122 261.155 753.096 264.491 783.15 277.115C790.213 280.081 797.61 283.561 803.359 288.733C807.962 292.874 811.768 298.687 811.941 305.031C812.113 311.311 808.642 316.576 804.527 320.999C783.411 343.698 734.114 348.75 704.194 349.818C669.259 350.668 615.213 346.212 588.102 322.19C583.465 318.081 578.877 312.744 578.667 306.244C578.485 300.602 581.477 295.224 585.202 291.184C591.301 284.569 600.236 280.237 608.441 276.897C633.692 266.62 659.777 263.366 686.822 262.222Z"/>
	<path fill="#282425" transform="scale(0.672852 0.672852)" d="M681.855 271.716C710.84 270.247 739.822 272.861 767.56 281.67C775.97 284.34 784.733 287.548 791.884 292.84C796 295.887 800.059 299.969 800.659 305.303C801.052 308.785 799.542 311.947 797.296 314.52C793.862 318.455 788.916 321.307 784.349 323.713C761.914 335.531 735.902 338.919 710.937 340.453C679.58 341.221 648.045 339.306 618.126 329.117C611.098 326.723 603.31 323.868 597.463 319.149C594.273 316.575 591.029 312.804 590.663 308.537C590.317 304.497 592.502 300.991 595.063 298.064C611.686 279.071 657.323 273.172 681.855 271.716Z"/>
	<path fill="#FEFEFE" transform="scale(0.672852 0.672852)" d="M688.031 279.713Q693.618 279.427 699.213 279.457C724.924 279.509 756.199 283.315 779.549 294.521C783.487 296.411 788.018 298.68 791.051 301.892C792.496 303.423 793.683 305.393 793.362 307.588C792.814 311.339 787.482 314.223 784.649 316.156C764.875 300.22 728.965 296.751 704.128 296.519C670.191 296.439 636.516 300.844 605.723 315.842C604.447 315.177 603.178 314.5 601.978 313.703C600.187 312.514 597.91 310.919 597.682 308.568C597.516 306.861 598.477 305.308 599.541 304.068C615.589 285.371 664.281 281.155 688.031 279.713Z"/>
	<path fill="#FEFEFE" transform="scale(0.672852 0.672852)" d="M680.359 304.254C706.248 302.651 732.683 304.102 757.236 312.951C761.056 314.327 770.554 317.008 772.32 320.775C771.637 322.24 770.66 322.335 769.224 323C766.347 324.206 763.592 325.184 760.562 325.929C735.458 314.441 707.134 305.598 679.374 304.795L680.359 304.254Z"/>
	<path fill="#FEFEFE" transform="scale(0.672852 0.672852)" d="M441.385 262.713C474.634 259.969 536.071 266.472 561.786 288.507C567.046 293.014 571.786 298.943 572.187 306.14C572.488 311.553 569.912 316.431 566.29 320.291C547.043 340.807 498.526 348.796 470.883 349.592C436.721 352.093 377.125 345.709 349.913 322.958C344.99 318.842 340.489 313.558 340.042 306.865C339.691 301.611 342.051 296.761 345.441 292.884C364.296 271.316 413.609 264.576 441.385 262.713Z"/>
	<path fill="#282425" transform="scale(0.672852 0.672852)" d="M450.672 272.234C454.548 272.142 458.423 272.251 462.299 272.345C487.174 272.955 537.499 278.144 554.5 296.747C558.532 301.159 559.145 305.157 558.962 310.859Q558.095 312.576 556.961 314.13Q555.827 315.684 554.456 317.034C548.999 322.47 541.833 325.503 534.774 328.274C511.159 337.545 486.625 340.686 461.394 341.008C435.116 341.333 378.827 335.851 358.658 318.048C355.582 315.334 352.447 311.516 352.313 307.223C352.188 303.251 354.37 299.81 356.977 297.001C375.15 277.417 424.755 273.134 450.672 272.234Z"/>
	<path fill="#FEFEFE" transform="scale(0.672852 0.672852)" d="M440.915 280.713Q449.348 280.161 457.798 280.176Q466.249 280.19 474.68 280.77Q483.111 281.351 491.484 282.494Q499.857 283.638 508.134 285.34C519.594 287.811 546.369 294.836 552.345 304.942C553.138 306.284 553.326 307.59 552.859 309.101C551.9 312.207 547.767 314.467 545.058 315.692C539.453 313.174 534.236 310.064 528.475 307.8C509.906 300.503 489.844 299.104 470.125 298.026C436.373 297.269 397.69 300.063 368.01 317.539Q366.002 316.303 364.106 314.901C361.928 313.281 359.73 311.091 359.455 308.227C359.27 306.307 360.128 304.581 361.339 303.154C364.635 299.267 370.605 296.676 375.175 294.669C396.178 285.444 418.224 282.164 440.915 280.713Z"/>
	<path fill="#FEFEFE" transform="scale(0.672852 0.672852)" d="M442.312 304.749C464.811 302.822 489.995 305.75 511.605 312.217C515.804 313.474 529.959 317.758 532.005 321.563C531.047 322.853 529.67 323.099 528.199 323.698L517.673 327.424C500.182 319.435 483.529 312.625 464.631 308.48C457.621 306.942 450.098 306.852 443.223 305.003L442.312 304.749Z"/>
	<path fill="#FEFEFE" transform="scale(0.672852 0.672852)" d="M561.166 53.2869C594.959 50.7865 651.377 56.7585 678.28 78.614C683.053 82.4914 687.865 87.8129 688.317 94.2267C688.68 99.398 685.952 104.048 682.61 107.769C661.478 131.29 620.226 136.154 590.176 137.854C556.328 138.597 500.052 135.191 473.268 112.147C468.671 108.193 464.494 103.097 464.175 96.7841C463.874 90.8405 467.133 85.2059 471.022 80.9355C489.198 60.9807 534.807 54.6951 561.166 53.2869Z"/>
	<path fill="#282425" transform="scale(0.672852 0.672852)" d="M568.554 62.2217C596.523 60.8315 648.704 66.0866 670.347 84.7754C673.721 87.6885 676.618 91.5494 676.835 96.161C677.004 99.7445 675.397 102.935 673.004 105.514C669.102 109.718 663.47 112.62 658.334 115.007C635.287 125.715 609.206 128.423 584.125 129.312C556.35 130.476 504.943 125.343 482.839 108.261C479.199 105.448 475.954 101.393 475.573 96.6425C475.293 93.1509 476.916 90.0514 479.178 87.5053C496.144 68.4043 543.876 63.1987 568.554 62.2217Z"/>
	<path fill="#FEFEFE" transform="scale(0.672852 0.672852)" d="M567.337 69.2237Q577.939 68.8309 588.539 69.2801Q599.138 69.7294 609.669 71.0178C624.245 72.8874 659.85 80.4489 668.191 91.9396C669.36 93.5493 669.993 95.4348 669.587 97.4256C668.723 101.664 664.054 104.088 660.711 106.193C655.767 103.115 650.805 100.036 645.465 97.6825C627.493 89.7592 606.324 88.0378 586.922 87.0274C559.209 86.645 512.866 89.0682 490.289 106.18C488.943 105.219 487.543 104.269 486.276 103.206C484.368 101.606 482.702 99.2959 482.612 96.7188C482.529 94.3322 483.738 92.2203 485.328 90.5246C488.962 86.6492 494.52 84.0289 499.322 81.9231C520.816 72.4967 544.151 70.133 567.337 69.2237Z"/>
	<path fill="#FEFEFE" transform="scale(0.672852 0.672852)" d="M573.275 94.2349C582.413 94.1212 591.708 94.3712 600.786 95.4404C614.69 97.078 638.75 102.271 650.006 110.386C645.232 112.215 640.41 113.752 635.528 115.256C634.469 115.534 633.03 116.042 631.944 115.76C628.019 114.739 618.732 109.099 614.216 107.179C597.097 99.8979 577.302 97.4373 559.008 95.1879C563.7 94.4558 568.535 94.4363 573.275 94.2349Z"/>
	<path fill="#FEFEFE" transform="scale(0.672852 0.672852)" d="M601.881 661.021L602.099 661.381C602.253 665.654 588.432 715.007 586.277 723.481Q578.118 728.263 569.474 732.096Q560.83 735.93 551.809 738.768C512.065 751.154 448.456 752.23 411.234 732.388C401.9 727.412 398.618 722.867 395.51 712.769Q388.768 686.831 381.466 661.045C390.395 665.471 399.129 669.841 408.658 672.911C449.871 686.188 509.287 688.723 551.488 679.428Q558.061 677.987 564.522 676.107Q570.983 674.228 577.304 671.919Q583.624 669.611 589.775 666.883Q595.927 664.155 601.881 661.021Z"/>
	<path fill="#FEFEFE" transform="scale(0.672852 0.672852)" d="M411.546 776.346C419.323 781.113 426.364 785.207 435.116 787.987C469.876 799.028 515.113 797.783 549.671 786.372C557.823 783.68 565.431 779.976 573.041 776.056C567.648 794.42 563.791 813.193 558.733 831.653C557.692 836.25 556.92 842.18 554.539 846.299C550.627 853.066 537.201 857.519 530.095 859.571C502.846 867.441 462.917 866.887 437.94 852.999C435.698 851.753 432.63 849.913 431.358 847.659C428.848 843.208 425.326 826.151 423.757 820.267Q417.78 798.271 411.546 776.346Z"/>
	<path fill="#FEFEFE" transform="scale(0.672852 0.672852)" d="M491.727 132.264C548.171 151.1 602.437 151.889 659.038 133.116C658.278 136.8 657.347 140.328 656.198 143.91C645.571 148.411 634.068 150.003 623.448 154.244C634.322 153.209 644.526 151.303 655.019 148.234Q652.019 160.977 648.58 173.608Q646.78 179.81 645.06 186.034C638.102 189.324 631.044 192.346 623.607 194.383C593.019 202.761 552.679 202.529 522.717 191.393C516.79 189.19 511.35 186.07 505.888 182.928Q501.281 164.975 495.987 147.212C505.896 150.658 515.299 152.868 525.691 154.227C515.405 150.341 504.937 147.191 494.904 142.618C493.644 139.261 492.746 135.705 491.727 132.264Z"/>
	<path fill="#FEFEFE" transform="scale(0.672852 0.672852)" d="M576.387 322.804C580.069 325.403 583.076 330.451 587.669 333.695C590.843 344.627 593.523 355.682 596.583 366.642Q610.437 414.635 623.456 462.861C608.325 460.124 593.536 458.13 578.183 457.068Q565.679 456.659 553.202 457.57Q540.725 458.482 528.414 460.705C529.724 453.192 532.186 445.875 534.28 438.55L542.761 408.361C549.885 383.489 556.006 358.286 565.161 334.045C569.413 330.78 573.178 327.098 576.387 322.804Z"/>
	<path fill="#FEFEFE" transform="scale(0.672852 0.672852)" d="M369.539 356.768C422.866 377.217 480.981 375.441 535.258 359.776Q530.09 377.164 525.166 394.622C524.273 398.134 523.162 401.591 522.101 405.054C515.392 407.513 508.843 410.12 501.921 411.969C468.057 421.016 414.229 420.027 383.643 402.328C378.185 387.486 374.125 371.908 369.539 356.768Z"/>
	<path fill="#FEFEFE" transform="scale(0.672852 0.672852)" d="M778.013 356.632L778.134 356.82C778.047 361.043 769.246 393.859 767.279 398.799C760.059 404.453 751.466 408.375 742.796 411.21C707.2 422.848 662.724 419.956 629.342 403.108L627.152 394.431Q622.041 376.396 616.515 358.483C621.464 360.299 626.44 362.127 631.491 363.638C673.053 376.066 739.165 377.526 778.013 356.632Z"/>
	<path fill="#FEFEFE" transform="scale(0.672852 0.672852)" d="M399.859 730.477C406.141 735.176 413.099 738.423 420.42 741.186C462.283 756.992 514.438 756.043 556.717 742.249C566.359 739.103 575.198 734.569 584.411 730.425C582.505 740.684 579.419 751.045 576.749 761.131L574.663 770.011C548.573 783.104 528.594 788.982 499.627 790.395C475.609 791.567 433.196 789.093 414.937 772.274C412.75 770.26 410.399 767.74 409.089 765.069C408.424 763.711 399.929 732.35 399.859 730.477Z"/>
	<path fill="#FEFEFE" transform="scale(0.672852 0.672852)" d="M726 719.547L726.201 719.737C726.597 721.956 715.749 767.722 714.129 772.298C712.424 777.118 707.242 780.038 702.805 782.045C681.748 791.573 652.807 792.183 631.247 784.061C623.919 781.301 617.214 777.413 613.88 769.962C610.416 757.098 609.201 743.172 604.371 730.713C605.505 727.011 606.52 723.267 607.577 719.542L613.037 721.75Q614.725 722.407 616.428 723.023Q618.131 723.639 619.849 724.214Q621.567 724.788 623.298 725.32Q625.03 725.852 626.774 726.341Q628.517 726.831 630.273 727.278Q632.028 727.725 633.794 728.129Q635.559 728.532 637.334 728.893Q639.109 729.253 640.893 729.571Q642.676 729.888 644.466 730.161Q646.257 730.435 648.053 730.664Q649.85 730.894 651.652 731.079Q653.453 731.265 655.259 731.407Q657.065 731.548 658.874 731.646Q660.682 731.743 662.493 731.796Q664.303 731.849 666.114 731.858Q667.926 731.867 669.737 731.832Q671.547 731.797 673.357 731.717Q675.166 731.637 676.974 731.514Q678.781 731.39 680.584 731.222Q682.387 731.054 684.186 730.842Q685.985 730.631 687.778 730.375Q689.571 730.119 691.358 729.82Q693.144 729.52 694.922 729.177Q696.701 728.834 698.471 728.448Q700.24 728.061 702 727.632Q703.759 727.202 705.508 726.73Q707.256 726.258 708.993 725.743Q710.729 725.228 712.453 724.671Q714.176 724.113 715.886 723.514Q717.595 722.915 719.289 722.274Q720.983 721.634 722.661 720.952Q724.339 720.27 726 719.547Z"/>
	<path fill="#FEFEFE" transform="scale(0.672852 0.672852)" d="M902.868 565.521L903.282 565.941C903.196 571.136 900.225 578.804 898.841 584.011Q894.762 599.21 891.054 614.504Q887.154 616.989 883.002 619.025C853.533 633.527 805.981 635.539 774.867 624.777C772.368 623.931 769.987 622.828 767.581 621.752C768.875 616.34 769.731 609.139 772.212 604.256C773.357 602 775.229 600.222 776.999 598.457C783.179 592.296 787.019 587.435 788.817 578.669C826.089 584.26 868.291 581.011 902.868 565.521Z"/>
	<path fill="#FEFEFE" transform="scale(0.672852 0.672852)" d="M881.369 654.044L881.695 654.528C880.38 660.635 878.486 666.638 876.931 672.69L866.681 712.829C859.457 716.967 852.226 720.507 844.055 722.325C823.457 726.908 794.308 725.901 776.03 714.228C775.327 710.228 774.352 706.312 773.372 702.374Q767.766 678.769 761.697 655.279C766.945 657.579 772.189 659.804 777.665 661.522C810.742 671.893 850.569 670.204 881.369 654.044Z"/>
	<path fill="#FEFEFE" transform="scale(0.672852 0.672852)" d="M747.438 628.955L747.664 629.656L747.752 629.012C748.57 631.46 738.011 671.489 736.794 677.64C727.444 681.672 718.75 685.751 708.896 688.583C681.571 696.437 647.638 696.43 620.693 687.029L617.064 685.555C619.41 671.096 624.546 656.801 627.83 642.488C664.081 650.917 714.323 645.579 747.438 628.955Z"/>
	<path fill="#FEFEFE" transform="scale(0.672852 0.672852)" d="M625.328 631.442C625.898 631.896 625.87 631.725 625.884 632.726C625.936 636.309 622.988 644.078 621.962 647.83Q613.456 678.453 604.434 708.927C602.111 716.9 600.317 725.029 598.056 733.024C591.73 755.388 585.098 777.708 579.32 800.225L568.507 840.849C566.87 846.953 565.995 853.919 563.246 859.62C562.843 860.455 562.46 861.009 561.735 861.578C552.252 869.014 543.384 873.57 531.755 876.892C501.352 885.579 461.388 885.517 433.324 869.693C429.175 867.353 424.314 864.319 422.239 859.869C419.057 853.047 416.976 842.082 414.94 834.629L401.605 786.402L361.072 644.064C359.706 640.248 358.777 636.242 358.019 632.267L370.095 639.171C379.084 666.214 385.641 694.353 392.566 721.988C398.487 745.619 405.186 769.038 411.147 792.658C414.285 805.094 417.773 817.419 420.988 829.83C422.881 837.136 424.188 844.74 426.613 851.877C433.013 857.098 439.863 860.333 447.73 862.798C479.294 872.689 519.936 872.608 549.572 856.913C553.15 855.018 557.345 852.624 559.106 848.833C561.607 843.45 562.844 837.203 564.338 831.481L572.732 798.31L597.075 704.358C602.604 682.157 607.294 659.473 614.057 637.613L625.328 631.442Z"/>
	<path fill="#FEFEFE" transform="scale(0.672852 0.672852)" d="M270.396 652.766C298.056 666.326 330.222 668.93 360.439 665.057C365.195 681.505 369.062 698.297 373.285 714.894L367.625 717.216Q365.826 717.88 363.997 718.456C337.559 726.753 310.139 724.707 285.631 711.873C283.167 704.939 281.645 697.431 279.834 690.282L270.396 652.766Z"/>
	<path fill="#FEFEFE" transform="scale(0.672852 0.672852)" d="M809.066 464.25C821.452 463.323 834.202 463.674 846.583 464.586C873.205 466.546 915.782 473.884 933.73 494.989C937.582 499.518 940.357 505.235 939.678 511.319C938.831 518.906 932.625 525.178 926.846 529.606C915.695 538.15 902.729 542.744 889.313 546.35C852.766 556.172 816.293 556.011 778.996 551.26C772.864 545.693 765.965 542.043 758.865 537.905C794.865 546.785 847.214 547.748 882.868 537.749C887.733 536.566 892.661 535.127 897.383 533.47C906.608 530.233 922.822 523.433 927.069 513.846C928.444 510.741 928.358 507.41 927.018 504.308C922.639 494.17 907.6 488.388 898.015 484.817Q888.333 481.256 878.318 478.781Q868.303 476.307 858.077 474.948C823.235 470.299 770.656 473.077 738.5 487.968C730.291 491.77 720.338 497.523 717.247 506.623C715.359 512.181 716.773 516.766 719.364 521.711C715.398 521.35 711.475 520.685 707.545 520.058C705.39 516.677 703.641 513.479 703.369 509.395C703.022 504.186 705.538 499.526 708.908 495.731C728.423 473.752 780.461 465.715 809.066 464.25Z"/>
	<path fill="#FEFEFE" transform="scale(0.672852 0.672852)" d="M515.407 221Q517.034 221.793 518.673 222.56C546.165 235.409 581.506 237.736 611.047 231.175C618.871 229.438 626.393 226.567 633.91 223.83C631.681 235.318 627.979 246.892 625.06 258.257L623.467 263.904C618.082 265.529 612.697 267.251 607.484 269.376C603.42 271.032 599.404 273.078 595.217 274.387C586.266 277.185 565.419 276.817 556.71 274.509C551.941 273.246 547.387 270.723 542.787 268.93C537.572 266.898 532.205 265.442 526.902 263.682C525.312 251.956 519.478 232.256 515.407 221Z"/>
	<path fill="#FEFEFE" transform="scale(0.672852 0.672852)" d="M654.26 521.214C657.735 520.981 661.256 521.017 664.737 521.114C698.215 522.051 733.05 527.086 761.834 545.294C767.202 548.689 772.658 552.289 777.014 556.959C781.305 561.558 784.267 567.351 783.826 573.789C783.378 580.335 778.252 586.818 773.51 591.049C767.223 596.66 758.786 600.844 751.099 604.143C715.956 619.224 676.497 621.158 638.821 618.786C641.565 615.687 643.759 612.932 645.639 609.244C652.193 609.084 658.781 609.506 665.347 609.4Q682.3 608.992 699.12 606.831Q708.301 605.668 717.329 603.637Q726.357 601.605 735.151 598.724C746.225 595.001 762.623 588.888 767.989 577.364C769.735 573.616 769.48 569.805 767.934 566.034C764.129 556.757 754.031 551.29 745.327 547.473C705.362 529.948 633.903 526.342 593.012 542.297Q583.715 539.542 574.293 537.253C594.913 527.528 631.077 522.149 654.26 521.214Z"/>
	<path fill="#FEFEFE" transform="scale(0.672852 0.672852)" d="M247.775 566.351C275.54 577.986 301.331 581.716 331.214 581.846C329.299 586.221 328.06 590.795 328.285 595.615C328.984 610.633 341.596 619.743 351.54 629.084C351.404 630.082 351.607 629.591 350.741 630.464C346.351 631.275 341.46 631.027 336.997 631.057C310.36 631.238 283.344 625.258 259.879 612.443C255.17 597.345 251.97 581.629 247.775 566.351Z"/>
	<path fill="#FEFEFE" transform="scale(0.672852 0.672852)" d="M765.01 405.91C765.579 406.017 765.275 405.889 765.821 406.471Q762.217 421.642 757.635 436.546Q752.351 439.898 746.561 442.271C714.983 455.431 670.988 452.846 639.766 440.135C638.858 437.645 638.128 435.056 637.329 432.527C635.445 424.493 632.931 416.506 630.73 408.546C638.872 412.241 647.017 415.558 655.718 417.708C690.177 426.223 734.1 424.452 765.01 405.91Z"/>
	<path fill="#FEFEFE" transform="scale(0.672852 0.672852)" d="M606.949 641.515C607.516 644.94 604.985 651.439 604.118 654.947C595.2 659.626 586.289 664.033 576.856 667.595C529.932 685.313 455.503 683.185 408.071 668.016C398.092 664.825 389.32 659.61 379.85 655.321C379.106 650.979 377.668 646.676 376.477 642.436C390.172 647.566 403.804 652.226 418.044 655.632Q420.968 656.337 423.906 656.985Q426.844 657.633 429.793 658.224Q432.743 658.815 435.704 659.349Q438.664 659.882 441.635 660.358Q444.605 660.834 447.584 661.252Q450.563 661.669 453.55 662.029Q456.537 662.389 459.53 662.691Q462.523 662.993 465.522 663.236Q468.52 663.48 471.522 663.665Q474.525 663.85 477.531 663.976Q480.536 664.103 483.544 664.171Q486.551 664.239 489.56 664.249Q492.568 664.259 495.576 664.21Q498.584 664.161 501.59 664.054Q504.596 663.946 507.6 663.78Q510.604 663.615 513.604 663.391Q516.604 663.166 519.599 662.884Q522.594 662.601 525.583 662.261Q528.572 661.92 531.553 661.521Q534.535 661.122 537.509 660.666Q540.482 660.209 543.446 659.695Q546.41 659.18 549.363 658.608Q552.317 658.036 555.258 657.407Q558.2 656.778 561.129 656.091Q564.058 655.405 566.973 654.662Q569.888 653.918 572.788 653.119Q575.688 652.319 578.572 651.463Q581.456 650.607 584.323 649.695Q587.189 648.783 590.038 647.815Q592.886 646.848 595.715 645.825Q598.544 644.802 601.353 643.725Q604.162 642.647 606.949 641.515Z"/>
	<path fill="#FEFEFE" transform="scale(0.672852 0.672852)" d="M567.581 482.714C597.95 481.679 633.931 486.431 661.53 499.544C666.233 501.779 675.608 507.188 676.781 512.641C677.061 513.941 676.854 514.198 676.215 515.262C673.169 517.092 658.743 516.083 654.901 515.333C647.959 513.978 640.793 510.437 633.946 508.363C618.271 503.614 602.204 501.499 585.875 500.923C550.308 499.607 520.912 502.643 488.62 519.006Q488.154 518.685 487.693 518.355C484.939 516.376 479.797 512.972 479.685 509.23C479.635 507.559 480.967 505.84 482.037 504.674C485.132 501.304 489.469 499.136 493.522 497.137C516.238 485.938 542.703 483.95 567.581 482.714Z"/>
	<path fill="#FEFEFE" transform="scale(0.672852 0.672852)" d="M810.485 482.212C828.931 480.566 851.5 482.243 869.728 485.619C884.839 488.417 910.353 494.203 919.116 507.732C920.064 509.196 920.687 510.98 920.154 512.725C919.09 516.211 914.274 518.608 911.373 520.438C892.414 502.399 856.548 500.203 831.644 499.05C807.704 498.895 784.047 500.518 761.021 507.616C753.796 509.843 744.377 512.916 738.226 517.351C736.334 518.716 733.436 522.457 731.008 522.094C726.908 521.482 723.904 516.149 721.999 512.86Q723.208 510.487 724.936 508.461C741.349 489.295 786.217 483.741 810.485 482.212Z"/>
	<path fill="#FEFEFE" transform="scale(0.672852 0.672852)" d="M384.953 407.944L385.536 408.209C420.141 423.858 462.246 426.346 499.089 417.269C506.616 415.414 513.816 412.801 521.056 410.071Q517.973 420.126 514.715 430.125L512.027 439.066C471.012 453.402 433.445 451.996 392.866 437.631C390.094 427.766 386.922 418.018 384.953 407.944Z"/>
	<path fill="#FEFEFE" transform="scale(0.672852 0.672852)" d="M734.758 683.494L735.145 683.84C735.198 688.69 730.035 706.504 728.669 712.718C721.554 715.502 714.75 718.677 707.372 720.822C675.487 730.092 641.593 727.343 610.672 716.069C609.656 715.613 609.742 715.57 609.145 714.732C608.958 708.43 613.403 696.546 615.247 690.065Q617.982 691.003 620.731 691.901C656.933 703.761 700.759 700.721 734.758 683.494Z"/>
	<path fill="#FEFEFE" transform="scale(0.672852 0.672852)" d="M888.719 620.943L889.192 621.048C890.075 622.914 884.074 644.406 883.185 648.393C879.336 650.382 875.468 652.376 871.484 654.084C838.354 668.281 797.581 665.232 764.693 652.009C763.344 651.406 762.533 650.877 761.445 649.877C761.063 647.496 765.442 630.847 766.243 626.53Q770.835 628.395 775.568 629.865C810.406 640.632 856.315 637.996 888.719 620.943Z"/>
	<path fill="#FEFEFE" transform="scale(0.672852 0.672852)" d="M507.253 189.228Q511.933 191.578 516.742 193.649C546.565 206.328 585.688 207.727 617 200.638C626.196 198.556 634.657 195.345 643.38 191.861C641.693 198.449 639.569 205.012 637.342 211.438C636.731 213.902 635.89 216.33 635.137 218.756C628.566 221.36 621.981 224.079 615.147 225.92C584.963 234.05 541.204 230.836 514.141 215.428C512.242 206.623 509.834 197.857 507.253 189.228Z"/>
	<path fill="#FEFEFE" transform="scale(0.672852 0.672852)" d="M394.191 443.092C402.263 445.425 410.016 448.275 418.272 450.074Q421.157 450.688 424.061 451.201Q426.965 451.714 429.885 452.126Q432.806 452.538 435.738 452.848Q438.671 453.158 441.613 453.367Q444.555 453.575 447.502 453.682Q450.449 453.788 453.398 453.792Q456.348 453.795 459.295 453.697Q462.243 453.598 465.185 453.398Q468.127 453.197 471.061 452.894Q473.995 452.591 476.916 452.187Q479.837 451.783 482.743 451.277Q485.648 450.772 488.534 450.166Q491.421 449.56 494.284 448.854Q497.148 448.148 499.985 447.343Q502.822 446.538 505.63 445.635Q508.437 444.733 511.212 443.733C509.016 451.707 507.047 459.8 503.551 467.327C499.919 468.471 496.409 469.82 492.877 471.242C476.889 477.778 462.304 483.903 454.22 500.107C443.736 480.061 421.711 472.767 401.425 466.325C398.458 459.002 395.713 450.866 394.191 443.092Z"/>
	<path fill="#FEFEFE" transform="scale(0.672852 0.672852)" d="M755.465 442.975L755.951 443.109C756.735 446.469 750.462 464.051 749.116 468.131C730.05 473.022 712.621 481.299 700.16 496.922C687.193 483.971 675.652 477.883 658.633 471.488Q652.942 469.586 647.139 468.057Q643.844 457.075 641.013 445.964C647.637 447.624 654.071 449.797 660.767 451.217C693.312 458.116 724.82 456.815 755.465 442.975Z"/>
	<path fill="#FEFEFE" transform="scale(0.672852 0.672852)" d="M569.847 464.228C594.062 463.157 620.956 466.942 644.14 473.714C660.155 478.393 687.689 487.13 695.782 502.726C698.526 508.014 697.321 513.229 695.697 518.617C691.847 518.629 687.993 518.183 684.16 517.835C684.453 516.332 684.817 514.729 684.809 513.189C684.783 507.669 681.201 502.301 677.31 498.661C659.443 481.945 613.026 475.291 588.419 473.92C578.231 473.352 568.161 473.659 557.971 474.074C545.606 474.914 533.513 476.326 521.403 479.035C506.404 482.39 483.336 487.355 474.827 501.387C473.037 504.338 471.848 507.888 472.795 511.328C474.933 519.095 488.555 523.629 495.14 527.407L493.5 527.292C487.304 526.852 481.051 527.284 474.85 527.512C472.372 526.036 469.852 524.438 467.699 522.509C463.665 518.896 460.205 514.06 460.022 508.468C459.841 502.928 462.907 497.134 466.591 493.177C487.206 471.034 540.626 465.173 569.847 464.228Z"/>
	<path fill="#FEFEFE" transform="scale(0.672852 0.672852)" d="M651.214 540.715C661.291 540.266 671.671 540.944 681.707 541.863C701.462 543.671 747.872 551.981 760.372 567.892C761.666 569.539 762.762 571.793 762.238 573.942C761.359 577.538 756.418 580.654 753.637 582.783C746.785 576.796 738.569 572.568 730.148 569.263C697.265 558.861 664.181 557.495 630.004 559.525C622.595 554.049 613.644 550.293 605.34 546.39C620.739 542.962 635.467 541.518 651.214 540.715Z"/>
	<path fill="#FEFEFE" transform="scale(0.672852 0.672852)" d="M261.514 618.617C267.011 620.685 272.246 623.398 277.8 625.393C303.48 634.616 325.952 636.381 352.956 634.458C355.452 643.235 357.455 652.213 359.663 661.072Q356.757 661.513 353.837 661.841Q350.916 662.169 347.985 662.383Q345.054 662.598 342.117 662.698Q339.18 662.799 336.241 662.785Q333.302 662.772 330.366 662.644Q327.43 662.517 324.501 662.276Q321.572 662.034 318.655 661.68Q315.737 661.325 312.836 660.857Q309.935 660.39 307.053 659.81Q304.172 659.23 301.316 658.539Q298.46 657.847 295.632 657.046Q292.805 656.244 290.01 655.334Q287.216 654.423 284.459 653.405Q281.703 652.387 278.987 651.262Q276.272 650.138 273.602 648.909Q270.933 647.68 268.313 646.348C266.339 637.077 263.674 627.862 261.514 618.617Z"/>
	<path fill="#FEFEFE" transform="scale(0.672852 0.672852)" d="M919.353 544.529L919.762 545.053C919.731 545.817 919.691 546.523 919.574 547.28C917.493 560.685 912.959 574.525 909.297 587.588C905.457 601.288 902.005 615.114 898.452 628.891L882.996 687.361C880.57 696.728 878.949 707.297 875.465 716.269C873.621 721.019 870.985 724.47 866.817 727.441C849.4 739.857 816.905 739.827 796.444 736.188C788.047 734.694 773.987 731.021 769.013 723.391C764.22 716.039 761.867 700.546 759.35 691.756C758.125 687.482 756.125 682.945 755.344 678.606C755.152 677.535 755.388 676.427 755.62 675.381C756.436 671.418 757.207 667.476 758.46 663.621C762.126 681.362 769.122 698.76 771.606 716.698C780.505 723.494 793.693 726.341 804.564 727.813C826.464 730.78 851.894 728.864 870.004 715.03L898.429 602.895C903.155 584.373 908.391 566.062 912.736 547.428L919.353 544.529Z"/>
	<path fill="#FEFEFE" transform="scale(0.672852 0.672852)" d="M764.527 606.909L765.271 607.107C766.885 613.811 734.553 731.914 730.481 747.514C727.08 760.54 723.894 773.649 720.665 786.72C719.594 787.734 718.489 788.724 717.308 789.61C699.453 802.999 668.478 804.709 647.261 801.62C633.209 799.575 615.061 793.977 606.174 782.108C606.129 781.487 606.07 780.866 606.028 780.244C605.355 770.335 599.278 760.979 599.503 751.217C599.563 748.584 600.511 745.699 601.138 743.139C601.365 741.964 601.31 740.826 602.207 740.002C605.41 750.171 605.686 765.626 610.638 774.368C615.717 783.335 627.293 788.413 636.714 791.146C658.41 797.441 688.233 795.964 708.174 784.7C711.81 782.646 716.207 779.674 718.136 775.89C721.232 769.819 723.057 756.568 724.581 749.631Q728.309 732.33 732.874 715.232C736.419 712.884 739.052 711.003 740.623 706.933L740.3 706.264L738.913 706.684L739.392 706.377C737.069 707.234 735.669 708.557 733.872 710.185L750.019 643.634C752.602 632.742 756.033 621.562 757.638 610.507L764.527 606.909Z"/>
	<path fill="#FEFEFE" transform="scale(0.672852 0.672852)" d="M593.311 782.861C593.87 783.399 593.714 783.167 594.058 783.775C595.716 786.708 597.541 789.667 599.636 792.313C602.238 795.6 605.971 798.299 609.458 800.572C625.193 810.83 642.595 813.129 660.769 815.258C650.692 821.164 635.302 826.398 624.139 831.711C608.561 838.623 592.993 845.759 577.064 851.828C581.184 828.626 590.562 806.326 593.311 782.861Z"/>
	<path fill="#FEFEFE" transform="scale(0.672852 0.672852)" d="M231.691 544.155C234.064 544.826 236.283 545.916 238.528 546.923C243.953 562.752 247.469 579.716 251.598 595.941L272.888 679.432C275.934 691.163 278.633 703.078 282.043 714.701C284.751 717.049 288.323 718.849 291.564 720.332C317.539 732.215 348.764 729.165 374.805 719.588C375.569 721.905 377.023 725.287 376.331 727.705C368.457 730.746 360.67 733.441 352.346 735.031C327.078 739.857 298.68 736.179 277.16 721.481L250.513 613.983C244.676 590.632 239.018 567.085 231.691 544.155Z"/>
	<path fill="#FEFEFE" transform="scale(0.672852 0.672852)" d="M750.939 703.272C755.865 711.224 754.709 722.988 759.938 731.392C767.945 744.261 790.376 746.494 804.053 749.405C794.964 754.82 780.516 760.305 770.482 764.75C758.093 770.323 745.535 775.461 733.021 780.743C736.187 771.307 737.825 761.268 740.124 751.585C743.928 735.554 748.088 719.509 750.939 703.272Z"/>
	<path fill="#FEFEFE" transform="scale(0.672852 0.672852)" d="M365.435 342.803Q368.024 343.747 370.632 344.637Q373.24 345.526 375.866 346.362Q378.492 347.197 381.135 347.978Q383.778 348.759 386.436 349.484Q389.095 350.21 391.768 350.881Q394.441 351.551 397.127 352.166Q399.813 352.78 402.512 353.339Q405.21 353.898 407.92 354.4Q410.629 354.903 413.349 355.349Q416.068 355.796 418.796 356.185Q421.524 356.575 424.26 356.908Q426.995 357.241 429.737 357.517Q432.479 357.793 435.226 358.012Q437.973 358.232 440.724 358.394Q443.475 358.556 446.228 358.66Q448.982 358.765 451.737 358.813Q454.493 358.861 457.248 358.851Q460.004 358.842 462.759 358.775Q465.514 358.708 468.267 358.584Q471.02 358.46 473.77 358.279Q476.519 358.098 479.265 357.86Q482.01 357.622 484.75 357.326Q487.49 357.031 490.223 356.679Q492.956 356.328 495.681 355.919Q498.407 355.51 501.123 355.045Q503.839 354.58 506.545 354.059Q509.251 353.537 511.946 352.96Q514.64 352.382 517.322 351.749Q520.004 351.116 522.672 350.427Q525.341 349.738 527.994 348.994Q530.647 348.25 533.285 347.451Q535.922 346.652 538.542 345.798L536.477 354.393L536.335 355.296C535.434 356.45 533.644 356.808 532.288 357.256C484.919 372.878 413.655 374.612 368.33 351.72C367.181 348.791 366.305 345.823 365.435 342.803Z"/>
	<path fill="#FEFEFE" transform="scale(0.672852 0.672852)" d="M781.277 344.482C781.755 344.478 781.423 344.451 782.219 344.822C782.088 347.213 780.973 349.605 780.176 351.85C776.669 354.071 773.135 356.033 769.303 357.644C761.353 360.987 752.575 362.801 744.117 364.407C704.932 371.846 653.142 370.278 615.972 355.003C614.468 353.271 613.882 348.117 613.321 345.736Q615.861 346.561 618.416 347.335Q620.972 348.11 623.542 348.832Q626.113 349.555 628.698 350.226Q631.282 350.896 633.88 351.515Q636.478 352.134 639.087 352.7Q641.697 353.266 644.317 353.78Q646.938 354.294 649.568 354.755Q652.198 355.216 654.837 355.624Q657.476 356.032 660.123 356.386Q662.769 356.741 665.422 357.043Q668.076 357.344 670.734 357.592Q673.393 357.841 676.056 358.035Q678.72 358.23 681.386 358.371Q684.053 358.512 686.722 358.599Q689.39 358.687 692.06 358.721Q694.731 358.754 697.401 358.734Q700.071 358.715 702.74 358.641Q705.41 358.567 708.077 358.44Q710.744 358.313 713.408 358.132Q716.072 357.951 718.732 357.717Q721.392 357.482 724.047 357.194Q726.702 356.907 729.35 356.565Q731.999 356.224 734.64 355.83Q737.281 355.436 739.913 354.988Q742.546 354.541 745.169 354.041Q747.792 353.541 750.404 352.988Q753.017 352.435 755.618 351.83Q758.218 351.225 760.807 350.567Q763.395 349.91 765.969 349.201Q768.543 348.491 771.103 347.73Q773.663 346.97 776.206 346.157Q778.75 345.345 781.277 344.482Z"/>
	<path fill="#FEFEFE" transform="scale(0.672852 0.672852)" d="M751.946 613.574C752.71 615.779 750.17 620.973 749.272 623.15C739.715 629.148 728.852 632.574 717.977 635.307C688.835 642.633 661.237 643.28 631.523 639.214L630.122 638.757C628.841 636.008 631.036 630.93 631.834 628.087C670.695 632.84 715.542 628.095 751.946 613.574Z"/>
	<path fill="#FEFEFE" transform="scale(0.672852 0.672852)" d="M906.169 550.503L906.572 550.564C907.362 552.228 905.552 557.849 905.102 559.861C897.302 562.493 890.019 566.277 882.076 568.709C851.997 577.922 820.213 578.337 789.286 574.233C789.311 569.949 787.867 565.871 786.567 561.842C824.273 567.859 870.269 563.71 906.169 550.503Z"/>
	<path fill="#FEFEFE" transform="scale(0.672852 0.672852)" d="M242.217 549.06C278.781 562.498 304.293 564.458 342.917 564.858C340.893 567.293 339 569.827 337.089 572.35C335.917 573.991 334.97 575.744 333.988 577.502C300.803 577.768 276.962 573.805 246.182 560.679Q244.16 554.883 242.217 549.06Z"/>
	<path fill="#FEFEFE" transform="scale(0.672852 0.672852)" d="M651.106 566.746C660.835 566.572 670.497 566.549 680.187 567.567C697.226 569.357 732.848 576.62 743.433 589.759L734.143 593.008C732.048 593.821 729.871 594.404 727.717 595.039C711.462 582.922 679.229 575.733 659.396 570.967C653.659 569.588 647.525 568.939 641.975 566.951L651.106 566.746Z"/>
	<path fill="#FEFEFE" transform="scale(0.672852 0.672852)" d="M669.015 129.033L669.243 129.299C669.83 131.271 639.001 250.552 636.142 260.199L630.121 261.91L629.739 261.675C629.035 259.391 632.067 249.236 632.787 246.392C637.209 228.927 642.722 211.75 647.307 194.331C652.799 173.467 657.505 152.067 663.966 131.51L669.015 129.033Z"/>
	<path fill="#FEFEFE" transform="scale(0.672852 0.672852)" d="M793.913 338.956C794.122 343.459 763.8 459.337 761.087 464.178C759.446 465.325 757.584 465.371 755.652 465.604C755.109 462.958 763.305 435.339 764.515 430.638C772.111 401.125 778.408 371.181 787.837 342.161C789.788 340.941 791.849 339.967 793.913 338.956Z"/>
	<path fill="#FEFEFE" transform="scale(0.672852 0.672852)" d="M481.727 128.316L487.285 130.61C489.781 138.173 491.399 146.237 493.388 153.959L505.327 199.705C510.925 220.828 518.22 241.869 522.387 263.308L515.882 262.063C513.12 253.158 510.983 243.984 508.604 234.96Q502.197 211.294 496.339 187.486C491.459 167.771 486.109 148.15 481.727 128.316Z"/>
	<path fill="#FEFEFE" transform="scale(0.672852 0.672852)" d="M600.793 339.262C603.282 340.434 605.728 342.317 608.047 343.827C612.555 361.663 618.048 379.275 622.919 397.013C629.302 420.258 635.264 443.597 641.986 466.752L634.927 465.076Q624.6 424.294 613.256 383.783C609.123 369.068 603.593 354.288 600.793 339.262Z"/>
	<path fill="#FEFEFE" transform="scale(0.672852 0.672852)" d="M354.757 336.924C356.902 338.086 359.089 339.151 361.283 340.216C363.506 351.97 367.455 363.683 370.624 375.231C378.784 404.962 387.781 434.474 395.339 464.365L388.815 462.983C386.211 449.371 381.634 435.604 377.977 422.207C370.22 393.788 362.195 365.428 354.757 336.924Z"/>
	<path fill="#FEFEFE" transform="scale(0.672852 0.672852)" d="M549.819 340.489L550.291 340.865C550.837 343.556 544.651 361.423 543.417 365.824L525.051 430.385C522.035 441.204 519.943 452.465 516.115 463.024L510.527 464.351L510.142 463.945C510.471 459.048 515.632 444.989 517.189 439.307C525.954 407.316 535.958 375.632 543.782 343.387L549.819 340.489Z"/>
	<path fill="#FEFEFE" transform="scale(0.672852 0.672852)" d="M808.787 507.079C818.917 506.405 829.459 506.848 839.58 507.643C853.635 508.746 891.003 514.381 900.079 524.985L900 525.81L898.325 526.515C894.197 527.91 890.139 529.117 885.871 530.007C869.163 522.49 852.142 516.833 834.299 512.623C825.994 510.664 816.829 509.789 808.787 507.079Z"/>
	<path fill="#FEFEFE" transform="scale(0.672852 0.672852)" d="M557.086 507.727C577.582 507.748 597.09 509.234 617.12 513.769C620.564 514.549 625.372 515.236 628.296 517.29L628.19 517.867L625.884 518.343C619.564 518.881 613.164 520.244 606.905 521.299C596.221 516.472 584.215 513.009 572.736 510.679C567.666 509.649 561.95 509.4 557.086 507.727Z"/>
	<path fill="#FEFEFE" transform="scale(0.672852 0.672852)" d="M571.058 282.225C575.513 281.991 580.012 282.116 584.474 282.119C581.923 284.887 579.637 287.914 577.298 290.862C576.656 291.88 576.238 293.102 575.084 293.504C572.848 289.914 568.33 286.707 566.908 283.028C567.966 281.981 569.596 282.298 571.058 282.225Z"/>
	<path fill="#282425" transform="scale(0.672852 0.672852)" d="M193.526 724.959Q196.59 724.91 199.652 725.012Q202.715 725.114 205.768 725.366Q208.822 725.618 211.86 726.021Q214.897 726.423 217.911 726.973Q220.925 727.524 223.909 728.223Q226.892 728.921 229.838 729.766Q232.783 730.61 235.684 731.598Q238.584 732.586 241.432 733.715Q244.281 734.845 247.07 736.113Q249.86 737.381 252.583 738.785Q255.307 740.188 257.958 741.724Q260.61 743.26 263.182 744.924Q265.755 746.589 268.243 748.378Q270.73 750.167 273.127 752.076Q275.524 753.985 277.824 756.009Q280.124 758.034 282.322 760.169Q284.519 762.304 286.61 764.544Q288.7 766.785 290.677 769.126Q292.654 771.466 294.514 773.901Q296.374 776.336 298.112 778.86Q299.85 781.383 301.462 783.989Q303.074 786.595 304.556 789.277Q306.038 791.959 307.386 794.71Q308.734 797.462 309.945 800.276Q311.157 803.091 312.228 805.962Q313.299 808.833 314.228 811.752Q315.157 814.672 315.942 817.634Q316.726 820.596 317.364 823.593Q318.002 826.59 318.491 829.615Q318.981 832.64 319.321 835.685Q319.662 838.73 319.852 841.788Q320.042 844.846 320.082 847.91Q320.122 850.974 320.011 854.036Q319.9 857.098 319.638 860.151Q319.377 863.204 318.966 866.24Q318.555 869.277 317.995 872.289Q317.435 875.302 316.727 878.283Q316.02 881.264 315.167 884.207Q314.314 887.15 313.317 890.048Q312.321 892.945 311.183 895.79Q310.045 898.635 308.768 901.421Q307.492 904.206 306.08 906.926Q304.668 909.645 303.124 912.292Q301.581 914.939 299.909 917.506Q298.237 920.074 296.44 922.556Q294.644 925.039 292.728 927.43Q290.812 929.821 288.78 932.115Q286.749 934.409 284.607 936.6Q282.466 938.791 280.219 940.875Q277.972 942.958 275.626 944.928Q273.279 946.899 270.839 948.752Q268.398 950.604 265.869 952.335Q263.341 954.065 260.73 955.669Q258.119 957.273 255.433 958.747Q252.747 960.221 249.991 961.561Q247.236 962.901 244.417 964.104Q241.599 965.306 238.725 966.369Q235.852 967.432 232.929 968.352Q230.006 969.273 227.042 970.048Q224.078 970.824 221.079 971.453Q218.08 972.081 215.054 972.562Q212.028 973.043 208.982 973.374Q205.935 973.705 202.877 973.886Q199.818 974.067 196.754 974.098Q193.702 974.128 190.652 974.009Q187.601 973.89 184.561 973.622Q181.52 973.354 178.496 972.937Q175.472 972.52 172.473 971.955Q169.473 971.391 166.504 970.68Q163.536 969.969 160.606 969.114Q157.675 968.259 154.791 967.261Q151.906 966.263 149.073 965.125Q146.241 963.987 143.468 962.712Q140.694 961.437 137.987 960.028Q135.279 958.618 132.644 957.078Q130.009 955.537 127.452 953.87Q124.895 952.202 122.423 950.411Q119.951 948.62 117.57 946.711Q115.189 944.801 112.904 942.777Q110.619 940.753 108.436 938.619Q106.253 936.486 104.177 934.248Q102.101 932.01 100.137 929.673Q98.1736 927.336 96.3266 924.906Q94.4796 922.476 92.7538 919.958Q91.028 917.44 89.4276 914.841Q87.8272 912.242 86.3561 909.567Q84.8849 906.893 83.5464 904.149Q82.208 901.406 81.0055 898.6Q79.803 895.795 78.7394 892.934Q77.6758 890.073 76.7535 887.163Q75.8313 884.253 75.0527 881.301Q74.2741 878.35 73.6409 875.364Q73.0078 872.378 72.5216 869.364Q72.0355 866.351 71.6975 863.317Q71.3596 860.283 71.1706 857.237Q70.9816 854.19 70.942 851.138Q70.9025 848.086 71.0124 845.035Q71.1224 841.985 71.3817 838.943Q71.6409 835.902 72.0488 832.877Q72.4567 829.852 73.0122 826.85Q73.5678 823.849 74.2697 820.878Q74.9715 817.907 75.8181 814.975Q76.6646 812.042 77.6537 809.154Q78.6429 806.266 79.7722 803.431Q80.9016 800.595 82.1685 797.818Q83.4354 795.041 84.8368 792.329Q86.2382 789.617 87.7707 786.977Q89.3032 784.337 90.9632 781.776Q92.6232 779.214 94.4066 776.737Q96.19 774.259 98.0926 771.872Q99.9953 769.485 102.012 767.195Q104.03 764.904 106.157 762.714Q108.284 760.525 110.515 758.442Q112.747 756.36 115.078 754.389Q117.409 752.418 119.834 750.564Q122.258 748.71 124.771 746.976Q127.284 745.243 129.878 743.635Q132.473 742.027 135.143 740.547Q137.813 739.068 140.552 737.722Q143.292 736.375 146.094 735.164Q148.896 733.953 151.754 732.881Q154.612 731.809 157.519 730.878Q160.426 729.947 163.375 729.16Q166.324 728.372 169.308 727.73Q172.292 727.088 175.304 726.593Q178.317 726.098 181.349 725.751Q184.382 725.404 187.428 725.206Q190.474 725.008 193.526 724.959Z"/>
	<path fill="#FEFEFE" transform="scale(0.672852 0.672852)" d="M234.585 956.133C224.013 959.934 212.937 962.541 201.687 963.033C172.335 964.318 141.872 953.273 120.346 933.382C97.7828 912.533 83.4286 886.649 82.3069 855.428C81.3041 827.514 91.819 794.851 111.227 774.222C133.766 750.266 161.473 737.821 194.302 736.926C192.343 738.492 190.354 740.073 188.521 741.784C176.852 752.674 171.781 769.679 171.527 785.254C171.104 811.139 183.29 835.953 201.218 854.147C218.242 871.425 242.43 885.27 267.263 885.278C283.096 885.283 295.25 880.166 306.339 868.989C304.266 888.478 294.823 908.395 282.155 923.153C275.841 930.509 260.03 946.051 250.38 948.574C244.362 950.147 237.421 949.676 231.207 950.171C241.565 946.04 250.96 939.041 260.749 933.697C255.538 934.827 250.214 936.695 245.335 938.839C238.358 941.907 230.074 947.879 222.524 948.405C221.286 948.491 220.569 948.542 219.606 947.693C221.338 945.209 235.433 936.926 238.954 934.639L238.497 934.695L237.735 934.796C227.982 936.015 219.143 940.922 210.664 945.629L205.558 944.239C210.741 941.351 218.618 937.525 222.244 932.845L222.004 932.243C217.605 931.68 203.465 939.372 198.69 941.576L194.764 939.591C199.243 936.654 205.854 933.329 209.243 929.206C209.966 928.326 209.819 928.746 209.69 927.662C205.698 926.927 193.097 934.811 188.689 937.003C186.937 936.219 185.245 935.262 183.543 934.372C189.018 930.631 194.693 927.036 199.525 922.474C191.912 923.345 186.341 927.893 179.195 929.92C177.744 930.331 176.293 930.716 174.947 929.994C177.219 925.307 186.223 921.462 189.922 917.337L189.512 916.771C184.433 916.109 172.753 923.425 168.089 925.849L164.348 922.258C168.265 919.461 177.617 914.748 179.44 910.501L178.719 910.06C172.122 911.055 165.347 915.313 159.396 918.23L156.216 914.926C160.386 912.255 169.347 907.596 171.188 903.12C170.813 902.441 171.002 902.407 170.379 902.262C166.644 901.395 155.355 909.319 151.607 911.493L147.797 907.246C151.541 903.778 160.265 899.631 161.917 894.651L161.316 894.084C155.577 894.42 148.302 900.297 143.487 903.352L140.508 899.52C144.514 896.627 152.841 891.439 154.346 886.812L153.838 886.144C149.443 886.327 140.787 892.753 136.601 895.23L133.15 891.507C136.048 888.985 147.253 880.21 147.561 876.776L146.633 876.518C141.192 877.919 134.747 883.486 130.298 886.934C129.449 885.524 128.727 884.005 127.958 882.548C131.235 879.925 142.123 872.377 142.994 869.095C138.388 868.096 129.988 876.657 124.16 877.059C123.81 876.567 123.196 876.18 123.11 875.582C122.664 872.465 137.509 864.174 137.942 860.131C134.625 857.698 124.393 869.121 119.931 868.92C119.204 867.974 119.004 867.484 118.874 866.298C120.333 863.21 127.02 858.954 129.699 856.171C131.008 854.811 133.11 852.844 133.086 850.918C128.867 850.552 120.008 857.871 116.397 860.374C116.036 859.499 115.418 858.054 115.386 857.096C115.247 852.955 128.416 846.912 129.394 840.101L128.762 839.805C123.229 841.816 118.392 846.677 113.136 849.529L111.74 843.963C116.183 840.04 121.846 836.403 125.438 831.676C126.105 830.798 126.393 830.643 126.26 829.506C122.538 828.703 114.1 834.884 110.764 836.956L110.046 836.576C107.489 828.209 121.597 825.452 123.475 818.354C123.675 817.599 123.569 817.729 123.188 817.024C120.024 817.242 111.427 823.693 108.718 825.624L107.621 820.515C113.33 815.131 119.26 810.755 123.529 804.052C123.008 804.28 122.495 804.518 121.977 804.754C116.664 807.178 112.155 810.907 107.597 814.496C107.899 812.105 108.423 809.748 108.899 807.387C112.152 803.986 120.713 798.732 122.066 794.772L121.388 794.303C117.206 795.526 113.999 799.577 109.837 801.257L109.245 800.971C109.7 794.123 118.314 791.503 122 786.265L121.8 785.835C118.171 786.833 115.319 789.546 111.79 790.838C111.433 790.116 111.28 789.685 111.212 788.862C111.151 788.124 111.061 788.271 111.464 787.758C112.767 786.098 114.748 784.741 116.298 783.296Q120.695 779.258 124.411 774.586C112.128 781.753 104.54 791.379 97.677 803.462C95.5153 807.268 93.2837 810.983 91.8249 815.13C93.6239 812.956 96.4236 808.143 98.7002 806.847L98.8243 809.083C94.742 814.59 90.1334 820.164 87.0954 826.334C91.5978 823.542 95.1439 819.156 98.8632 815.414C98.9648 816.465 99.1892 817.863 98.8989 818.887C97.7644 822.886 91.1142 828.982 88.4961 832.659C87.2692 834.383 86.4363 836.314 85.6065 838.249C90.5066 834.436 94.9911 830.149 99.4388 825.828C99.6499 827.139 100.195 829.245 100.026 830.506C99.6922 832.989 90.5437 840.222 88.6728 843.593C88.0085 844.789 87.9392 845.338 88.3113 846.625C89.9629 846.437 99.3146 838.217 101.393 836.565L102.681 841.964C98.1992 846.406 90.2786 853.204 88.1832 859.09L88.5659 859.645C93.6528 858.518 99.9765 851.597 103.63 848.115L105.106 854.249C100.098 858.891 90.9439 867.011 88.8397 873.488C92.9536 874.54 102.571 862.324 106.686 860.388C107.017 860.904 107.193 861.137 107.442 861.746C107.896 862.86 108.186 864.187 107.415 865.208C106.216 866.794 104.196 868.316 102.739 869.703C97.8443 874.364 93.6438 878.807 90.5311 884.863C97.6074 880.519 104.046 875.322 110.487 870.105C110.92 870.819 111.361 871.534 111.761 872.268C112.039 872.78 112.428 873.539 112.169 874.155C111.846 874.925 110.204 876.336 109.582 876.958C104.352 882.186 98.8277 886.76 96.6244 894.051C99.9297 891.044 112.505 880.178 116.32 880.351L116.826 881.226C116.029 885.601 106.768 892.631 103.715 896.684C102.5 898.298 101.591 899.421 101.888 901.48L103.134 900.889L102.444 901.002L102.701 900.769L103.718 901.31L103.537 900.639C109.388 896.625 114.915 891.88 120.508 887.502L122.837 891.504C116.526 897.402 109.438 902.893 106.027 911.036C112.337 907.926 119.393 900.153 125.171 898.133C126.541 897.654 127.127 897.71 128.431 898.275L128.942 899.582C128.143 901.723 115.51 912.89 113.037 916.058C112.187 917.147 111.199 918.26 111.374 919.662C114.999 919.724 129.487 907.342 133.002 904.706C134.144 905.963 135.178 907.335 136.244 908.657C129.334 914.365 122.429 919.837 119.228 928.465C126.608 924.18 133.116 918.152 140.381 913.539L143.816 916.609C140.486 919.213 129.271 927.965 128.326 931.603C128.144 932.304 128.326 932.181 128.833 932.874C131.423 932.982 144.678 922.886 147.901 920.773L151.746 924.52C147.217 927.811 140.817 931.956 137.433 936.392C136.684 937.373 136.215 937.906 136.408 939.177C139.551 939.719 152.663 929.679 155.72 927.605L159.498 930.901C156.14 933.558 145.221 941.513 144.618 945.549C148.412 945.785 158.35 937.423 163.091 935.653C164.918 934.971 166.655 934.736 168.417 935.609L168.509 936.094C167.029 939.601 159.862 942.399 156.982 945.181C155.752 946.369 154.468 948.014 154.415 949.771L155.082 950.13C159.507 949.168 169.572 942.722 174.543 940.298C176.123 940.96 177.656 941.733 179.197 942.48C175.557 944.759 165.699 949.981 164.247 954.022L165.036 954.491C168.378 954.386 181.411 947.144 185.284 945.289C187.145 946.117 188.946 947.107 190.757 948.039C184.966 951.146 179.748 953.811 175.08 958.523C182.568 957.085 190.761 953.103 197.991 950.421L203.725 952.492C199.01 954.707 194.791 957.064 190.777 960.408C197.155 958.959 203.337 956.262 209.72 955.055C215.88 953.891 228.098 955.164 234.585 956.133Z"/>
	<path fill="#FEFEFE" transform="scale(0.672852 0.672852)" d="M222.511 740.528C233.647 740.548 248.67 747.892 257.818 753.829C281.333 769.089 300.17 795.799 305.789 823.297C307.839 833.327 307.725 841.913 301.837 850.703C296.089 859.284 287.025 863.514 277.17 865.451C263.95 866.337 252.683 864.493 240.842 858.381Q239.824 857.863 238.819 857.32Q237.815 856.777 236.824 856.21Q235.832 855.642 234.856 855.051Q233.879 854.459 232.917 853.843Q231.955 853.228 231.008 852.589Q230.062 851.95 229.131 851.288Q228.201 850.625 227.287 849.941Q226.373 849.256 225.476 848.549Q224.58 847.841 223.701 847.112Q222.821 846.383 221.961 845.633Q221.1 844.882 220.258 844.111Q219.416 843.34 218.593 842.548Q217.77 841.756 216.967 840.944Q216.164 840.132 215.381 839.3Q214.598 838.469 213.836 837.618Q213.073 836.768 212.332 835.899Q211.591 835.03 210.872 834.143Q210.153 833.256 209.455 832.351Q208.758 831.447 208.083 830.526Q207.408 829.604 206.756 828.667Q206.104 827.729 205.476 826.776Q204.847 825.822 204.242 824.854Q203.637 823.885 203.056 822.902Q202.475 821.919 201.919 820.921Q201.362 819.924 200.83 818.913Q200.298 817.903 199.792 816.879Q199.285 815.856 198.803 814.82Q198.322 813.785 197.866 812.738Q197.41 811.69 196.98 810.632Q196.551 809.574 196.147 808.506Q195.743 807.438 195.366 806.36Q194.989 805.282 194.638 804.195C190.261 790.349 189.831 773.354 196.745 760.22C202.293 749.681 211.463 744.026 222.511 740.528Z"/>
	<path fill="#FEFEFE" transform="scale(0.672852 0.672852)" d="M203.109 737.05C206.673 737.022 210.108 737.211 213.653 737.584C205.473 742.332 198.597 747.566 193.644 755.809C185.297 769.7 184.596 786.577 188.541 801.996C194.982 827.176 212.605 848.042 234.845 860.963C248.996 869.184 266.836 873.409 282.905 869.032C293.768 866.072 302.416 859.818 308.044 850.056L307.515 858.762C304.295 864.943 298.273 870.563 292.297 874.038C279.927 881.232 263.789 881.353 250.264 877.8C225.189 871.212 202.905 853.128 190.092 830.759C179.57 812.389 173.249 790.208 178.996 769.25C182.78 755.45 190.541 744.145 203.109 737.05Z"/>
</svg>
