<svg xmlns="http://www.w3.org/2000/svg" xmlns:xlink="http://www.w3.org/1999/xlink" width="40" zoomAndPan="magnify" viewBox="0 0 30 30.000001" height="40" preserveAspectRatio="xMidYMid meet" version="1.0"><defs><clipPath id="163a6ceb89"><path d="M 0.484375 2 L 24.433594 2 L 24.433594 29 L 0.484375 29 Z M 0.484375 2 " clip-rule="nonzero"/></clipPath></defs><path fill="#ffffff" d="M 16.25 9.625 C 15.589844 9.6875 14.890625 9.75 14.1875 9.816406 C 14.191406 9.832031 14.191406 9.847656 14.191406 9.859375 C 14.785156 9.828125 15.378906 9.796875 15.957031 9.765625 C 15.964844 9.765625 15.976562 9.761719 15.984375 9.761719 C 16.089844 9.761719 16.1875 9.730469 16.28125 9.6875 C 16.269531 9.667969 16.261719 9.648438 16.25 9.625 Z M 16.25 9.625 " fill-opacity="1" fill-rule="nonzero"/><g clip-path="url(#163a6ceb89)"><path fill="#ffffff" d="M 22.980469 21.734375 C 22.578125 21.507812 22.101562 21.402344 21.660156 21.269531 C 21.105469 21.105469 20.867188 21.152344 20.894531 20.539062 C 20.949219 19.363281 21.046875 18.191406 21.019531 17.011719 C 21.011719 16.722656 21 16.433594 20.980469 16.144531 C 20.96875 15.9375 20.863281 15.554688 20.917969 15.359375 C 21.050781 14.90625 21.457031 15.125 21.753906 15.261719 C 21.769531 15.039062 21.496094 15.015625 21.339844 14.882812 C 21.214844 14.777344 21.113281 14.644531 20.980469 14.542969 C 20.875 14.457031 20.617188 14.375 20.550781 14.265625 C 20.414062 14.046875 20.71875 13.664062 20.957031 13.683594 C 21.183594 13.703125 21.558594 14.222656 21.695312 14.417969 C 21.859375 14.644531 22.058594 15.015625 22.417969 14.957031 C 22.699219 14.914062 22.671875 14.707031 22.585938 14.457031 C 22.335938 13.71875 21.707031 13.640625 21.050781 13.476562 C 21.050781 13.457031 21.054688 13.433594 21.054688 13.410156 C 21.621094 13.078125 22.148438 13.339844 22.714844 13.132812 C 22.96875 13.042969 23.148438 12.839844 22.855469 12.664062 C 22.683594 12.5625 22.328125 12.632812 22.140625 12.660156 C 22.140625 12.316406 22.253906 11.726562 21.941406 11.46875 C 21.671875 11.25 21.101562 11.359375 20.78125 11.359375 C 20.71875 11 20.199219 10.996094 20.144531 10.757812 C 20.082031 10.5 20.972656 10.359375 21.09375 10.1875 C 21.414062 9.746094 20.761719 9.800781 20.535156 9.929688 C 20.207031 10.109375 20.148438 10.347656 19.78125 10.492188 C 19.683594 10.160156 19.652344 9.886719 19.375 9.664062 C 19.054688 10.257812 19.636719 10.851562 19.039062 11.285156 C 18.929688 10.949219 18.882812 10.714844 18.707031 10.394531 C 18.542969 10.597656 18.414062 10.757812 18.285156 10.917969 C 18.261719 10.910156 18.242188 10.902344 18.21875 10.894531 C 18.179688 10.425781 18.203125 9.957031 18.179688 9.484375 C 18.160156 9.011719 18.050781 8.609375 18.082031 8.132812 C 18.140625 7.199219 18.078125 6.25 18.050781 5.3125 C 18.039062 4.867188 18.035156 4.414062 18.003906 3.96875 C 17.96875 3.480469 17.871094 3.339844 17.402344 3.207031 C 16.554688 2.964844 15.652344 2.90625 14.777344 2.808594 C 14.757812 2.777344 14.738281 2.75 14.714844 2.71875 C 14.859375 2.652344 14.90625 2.621094 14.984375 2.488281 C 14.777344 2.386719 14.703125 2.464844 14.472656 2.472656 C 14.304688 2.472656 14.148438 2.402344 13.980469 2.386719 C 13.667969 2.363281 13.347656 2.484375 13.363281 2.859375 C 13.316406 2.839844 13.28125 2.824219 13.191406 2.789062 C 13.320312 3.234375 13.089844 3.589844 12.738281 3.84375 C 12.273438 4.179688 11.902344 3.949219 11.390625 3.902344 C 11.773438 4.222656 12.347656 4.429688 12.804688 4.097656 C 13.03125 3.933594 13.113281 3.644531 13.328125 3.476562 C 13.503906 3.34375 13.773438 3.285156 13.980469 3.210938 C 14.636719 2.980469 15.167969 3.023438 15.851562 3.105469 C 16.542969 3.191406 17.210938 3.21875 17.753906 3.675781 C 17.480469 3.859375 17.207031 4.058594 16.914062 4.210938 C 16.757812 4.296875 16.488281 4.355469 16.457031 4.5625 C 16.835938 4.582031 17.324219 4.34375 17.828125 3.898438 C 17.828125 4.21875 17.921875 4.617188 17.675781 4.851562 C 17.671875 4.855469 17.667969 4.859375 17.664062 4.863281 C 17.742188 4.855469 17.808594 4.871094 17.859375 4.921875 C 18.050781 5.109375 17.902344 6.144531 17.914062 6.402344 C 17.972656 7.636719 18 8.910156 17.898438 10.148438 C 17.300781 10.148438 16.8125 10.4375 16.464844 9.96875 C 16.273438 9.882812 16.175781 9.914062 16.066406 9.929688 C 16.230469 10.441406 16.480469 11.242188 16.476562 11.242188 C 16.5 11.269531 16.519531 11.296875 16.542969 11.324219 C 16.660156 11.332031 16.898438 11.457031 17.105469 11.53125 C 17.796875 11.785156 16.9375 10.546875 16.78125 10.3125 C 17.089844 10.277344 17.328125 10.253906 17.5625 10.226562 C 17.570312 10.242188 17.652344 10.363281 17.769531 10.289062 C 17.851562 10.714844 17.472656 10.917969 17.601562 10.835938 C 17.601562 11.066406 17.460938 11.414062 17.308594 11.601562 C 17.085938 11.878906 16.769531 11.976562 17.132812 12.367188 C 17.144531 12.277344 17.152344 12.207031 17.167969 12.070312 C 17.429688 12.488281 17.433594 12.46875 17.132812 12.898438 C 17.105469 12.890625 17.078125 12.882812 17.050781 12.878906 C 16.949219 12.398438 16.953125 12.101562 16.441406 11.9375 C 16.070312 11.8125 15.519531 11.804688 15.171875 11.601562 C 15.148438 11.601562 15.015625 11.554688 15.015625 11.515625 C 14.804688 11.542969 14.273438 11.53125 14.226562 11.78125 C 14.140625 12.261719 15.980469 12.285156 16.265625 12.285156 C 16.269531 12.304688 16.277344 12.320312 16.28125 12.339844 C 15.9375 12.519531 15.5 12.957031 15.574219 13.390625 C 15.648438 13.800781 16.269531 13.945312 16.59375 14.097656 C 16.4375 14.265625 15.980469 14.59375 16.082031 14.863281 C 16.140625 14.789062 16.191406 14.726562 16.234375 14.671875 C 16.421875 15.203125 16.433594 15.402344 17.023438 15.46875 C 16.925781 15.824219 15.773438 15.996094 15.449219 16.050781 C 15.148438 16.101562 14.828125 16.074219 14.53125 16.128906 C 14.21875 16.1875 14.019531 16.269531 13.691406 16.269531 C 14.269531 16.484375 14.933594 16.273438 15.53125 16.25 C 16.183594 16.21875 16.742188 16.054688 17.359375 15.863281 C 17.246094 16.21875 17.242188 16.550781 17.414062 16.875 C 17.742188 16.585938 18.109375 16.441406 18.476562 16.207031 C 18.609375 16.121094 18.742188 16.039062 18.839844 15.910156 C 18.929688 15.792969 18.953125 15.582031 19.066406 15.503906 C 19.265625 15.78125 19.644531 16.113281 19.964844 15.722656 C 20.207031 15.429688 19.800781 15.03125 19.726562 14.738281 C 20.023438 15.011719 20.273438 15.328125 20.710938 15.335938 C 20.78125 16.515625 20.847656 17.679688 20.789062 18.859375 C 20.761719 19.46875 20.886719 19.921875 20.285156 20.203125 C 19.785156 20.4375 19.277344 20.636719 18.757812 20.820312 C 19.453125 20.742188 20.0625 20.4375 20.722656 20.144531 C 20.722656 20.785156 20.90625 21.605469 20.605469 22.203125 C 20.289062 22.832031 19.492188 23.382812 18.867188 23.65625 C 18.113281 23.984375 17.328125 24.265625 16.539062 24.5 C 16.289062 24.578125 14.34375 25.207031 14.210938 24.953125 C 12.886719 25.15625 11.503906 25.171875 10.179688 24.976562 C 10.167969 24.851562 10.027344 24.722656 10 24.769531 C 9.828125 24.695312 9.675781 24.625 9.464844 24.535156 C 9.390625 24.109375 9.363281 23.878906 9.042969 23.589844 C 8.855469 23.425781 8.484375 22.917969 8.203125 23.09375 C 8.324219 23.1875 8.425781 23.269531 8.550781 23.367188 C 8.386719 23.460938 8.238281 23.621094 8.054688 23.644531 C 7.898438 23.667969 7.808594 23.558594 7.660156 23.664062 C 7.328125 23.910156 7.371094 24.777344 7.167969 25.128906 C 7.097656 25.082031 7.058594 25.019531 7.042969 24.9375 C 7.023438 24.933594 7.007812 24.933594 6.988281 24.929688 C 6.921875 25.210938 6.945312 25.40625 6.828125 25.683594 C 6.785156 25.585938 6.757812 25.519531 6.726562 25.445312 C 6.660156 25.488281 6.605469 25.527344 6.550781 25.5625 C 6.347656 25.253906 6.414062 25.222656 6.644531 25.042969 C 6.984375 24.777344 7.039062 24.589844 6.929688 24.152344 C 6.898438 24.273438 6.867188 24.394531 6.835938 24.511719 C 6.8125 24.511719 6.789062 24.507812 6.765625 24.507812 C 6.730469 24.117188 6.984375 23.59375 7.320312 23.375 C 7.40625 23.320312 7.757812 23.132812 7.871094 23.179688 C 7.972656 23.222656 7.957031 23.355469 8.019531 23.449219 C 8.230469 23.203125 7.867188 22.945312 7.816406 22.707031 C 7.761719 22.453125 8.144531 22.035156 7.867188 21.882812 C 7.707031 21.796875 7.105469 21.949219 6.957031 22.019531 C 6.636719 22.167969 6.527344 22.546875 6.367188 22.839844 C 6.210938 22.777344 6.054688 22.714844 5.902344 22.652344 C 5.980469 22.542969 6.207031 22.527344 6.246094 22.402344 C 6.285156 22.28125 6.144531 22.199219 6.125 22.09375 C 6.089844 21.898438 6.152344 21.761719 6.074219 21.554688 C 5.996094 21.347656 5.910156 21.277344 5.925781 21.054688 C 5.769531 20.96875 5.582031 20.867188 5.4375 20.785156 C 5.164062 21.03125 3.960938 21.152344 4.195312 21.710938 C 4.265625 21.625 4.339844 21.535156 4.410156 21.445312 C 4.425781 21.453125 4.441406 21.464844 4.460938 21.476562 C 4.253906 22.050781 4.15625 22.511719 3.6875 22.914062 C 3.4375 23.132812 3.339844 23.324219 3.167969 23.597656 C 3.035156 23.8125 2.816406 23.960938 2.695312 24.183594 C 2.390625 23.957031 1.78125 24.058594 1.644531 24.277344 C 1.457031 24.332031 1.328125 24.371094 1.199219 24.40625 C 0.992188 24.042969 1.472656 23.066406 2.011719 22.828125 C 1.949219 23.308594 1.886719 23.578125 2.328125 23.851562 C 2.8125 24.15625 2.839844 23.792969 3.042969 23.367188 C 2.734375 22.988281 3.574219 23.011719 3.476562 22.570312 C 3.390625 22.59375 3.308594 22.621094 3.222656 22.644531 C 3.210938 22.621094 3.195312 22.601562 3.183594 22.578125 C 3.457031 22.332031 3.453125 22.289062 3.703125 22.539062 C 3.933594 22.191406 3.761719 21.933594 3.734375 21.574219 C 3.710938 21.273438 3.871094 20.941406 3.960938 20.65625 C 3.972656 20.660156 3.980469 20.664062 3.988281 20.667969 C 4.007812 20.8125 4.023438 20.960938 4.039062 21.105469 C 4.0625 21.105469 4.085938 21.101562 4.105469 21.101562 C 4.265625 20.515625 4.21875 19.796875 4.238281 19.1875 C 4.253906 18.542969 4.226562 17.902344 4.210938 17.257812 C 4.183594 15.914062 4.199219 14.570312 4.265625 13.230469 C 4.285156 13.230469 4.304688 13.226562 4.328125 13.222656 C 4.5625 13.601562 4.773438 13.839844 5.117188 14.121094 C 5.140625 14.101562 5.164062 14.078125 5.183594 14.058594 C 4.734375 13.449219 4.339844 13.019531 4.9375 12.351562 C 5.394531 11.839844 6.34375 11.621094 6.96875 11.335938 C 6.960938 11.3125 6.953125 11.289062 6.941406 11.265625 C 6.210938 11.386719 5.332031 11.707031 4.726562 12.144531 C 4.488281 12.316406 4.152344 12.570312 4.054688 12.859375 C 3.933594 13.222656 4.050781 13.882812 4.054688 14.265625 C 4.0625 15.171875 4.070312 16.078125 4.0625 16.984375 C 4.058594 17.890625 4.140625 18.84375 4.027344 19.738281 C 3.78125 19.605469 3.714844 19.53125 3.574219 19.804688 C 3.429688 20.085938 3.40625 20.484375 3.335938 20.792969 C 3.144531 20.425781 3.132812 20.242188 3.289062 19.859375 C 3.371094 19.65625 3.65625 19.324219 3.609375 19.09375 C 3.554688 18.847656 3.207031 18.6875 3.113281 18.441406 C 3.035156 18.234375 3.179688 17.894531 2.933594 17.78125 C 2.878906 17.910156 2.828125 18.027344 2.785156 18.125 C 2.75 18.003906 2.714844 17.878906 2.675781 17.753906 C 2.640625 17.757812 2.601562 17.761719 2.5625 17.765625 C 2.507812 18.234375 2.453125 18.703125 2.398438 19.195312 C 1.835938 18.808594 1.585938 19.386719 2.023438 19.796875 C 2.226562 19.988281 2.519531 20.082031 2.699219 20.304688 C 2.90625 20.558594 2.867188 20.855469 2.894531 21.164062 C 2.644531 20.898438 2.519531 20.582031 2.105469 20.566406 C 1.855469 20.558594 1.492188 20.667969 1.488281 20.960938 C 1.476562 21.726562 2.921875 21.371094 3.351562 21.449219 C 3.199219 21.777344 2.394531 22.128906 2.0625 22.277344 C 1.597656 22.480469 1.179688 22.691406 0.945312 23.179688 C 0.6875 23.710938 0.953125 24.175781 0.933594 24.6875 C 0.917969 25.078125 1.023438 24.796875 1.191406 25.070312 C 1.3125 25.261719 1.128906 25.359375 1 25.503906 C 0.484375 26.085938 1.261719 25.925781 1.691406 25.949219 C 2.136719 25.976562 2.578125 26.167969 2.933594 26.414062 C 3.488281 26.789062 4.042969 27.21875 4.671875 27.460938 C 5.265625 27.691406 5.882812 27.765625 6.507812 27.863281 C 6.511719 27.847656 6.511719 27.832031 6.515625 27.8125 C 6.429688 27.769531 6.339844 27.726562 6.210938 27.660156 C 6.585938 27.570312 6.695312 27.558594 6.691406 27.171875 C 6.683594 26.6875 6.691406 26.3125 6.484375 25.859375 C 6.503906 25.84375 6.523438 25.824219 6.542969 25.804688 C 6.898438 26.117188 6.980469 26.441406 6.992188 26.910156 C 7.003906 27.304688 7.097656 27.769531 6.953125 28.136719 C 7.101562 28.289062 7.285156 28.5625 7.507812 28.585938 C 7.738281 28.613281 8.007812 28.460938 8.265625 28.484375 C 8.859375 28.539062 9.453125 28.699219 10.046875 28.785156 C 11.214844 28.960938 12.535156 29.03125 13.714844 28.925781 C 14.859375 28.820312 16.011719 28.597656 17.132812 28.34375 C 18.214844 28.101562 19.296875 27.875 20.324219 27.4375 C 21.234375 27.046875 21.988281 26.515625 22.65625 25.78125 C 23.234375 25.148438 24.042969 24.34375 24.078125 23.425781 C 24.105469 22.699219 23.589844 22.082031 22.980469 21.734375 Z M 22.160156 14.054688 C 22.273438 14.167969 22.574219 14.566406 22.488281 14.722656 C 22.355469 14.964844 21.960938 14.734375 21.859375 14.558594 C 21.796875 14.441406 21.84375 14.308594 21.769531 14.195312 C 21.664062 14.03125 21.429688 13.894531 21.28125 13.773438 C 21.609375 13.757812 21.925781 13.820312 22.160156 14.054688 Z M 22.855469 12.792969 C 22.699219 13 22.140625 13.09375 21.847656 12.976562 C 22.078125 12.703125 22.578125 12.621094 22.855469 12.792969 Z M 20.988281 12.058594 C 21.003906 12.070312 21.019531 12.078125 21.039062 12.089844 C 21.144531 12.417969 21.171875 12.707031 21.523438 12.519531 C 21.699219 12.429688 21.882812 12.253906 21.820312 12.035156 C 21.609375 12.070312 21.597656 11.785156 21.441406 11.636719 C 21.421875 11.652344 21.402344 11.671875 21.382812 11.6875 C 21.402344 11.757812 21.425781 11.828125 21.464844 11.957031 C 21.355469 11.886719 21.292969 11.847656 21.234375 11.808594 C 21.289062 11.554688 21.464844 11.398438 21.753906 11.527344 C 22.023438 11.648438 22.039062 12.011719 21.960938 12.269531 C 21.886719 12.523438 21.628906 12.789062 21.332031 12.746094 C 20.910156 12.679688 20.871094 12.375 20.988281 12.058594 Z M 16.785156 10.714844 C 16.425781 10.691406 16.335938 10.574219 16.332031 10.117188 C 16.527344 10.296875 16.703125 10.453125 16.785156 10.714844 Z M 15.746094 12.058594 C 15.363281 12.003906 14.984375 11.945312 14.605469 11.890625 C 14.605469 11.859375 14.609375 11.828125 14.609375 11.796875 C 15.015625 11.710938 15.390625 11.820312 15.757812 11.972656 C 15.753906 12.003906 15.75 12.03125 15.746094 12.058594 Z M 20.585938 11.703125 C 20.34375 11.492188 20.144531 11.316406 19.925781 11.125 C 20.382812 10.816406 20.625 11.316406 20.585938 11.703125 Z M 19.996094 11.769531 C 20.03125 11.726562 20.0625 11.6875 20.101562 11.640625 C 20.152344 11.71875 20.203125 11.789062 20.261719 11.878906 C 20.3125 11.824219 20.351562 11.78125 20.390625 11.742188 C 20.402344 11.746094 20.417969 11.753906 20.429688 11.757812 C 20.371094 11.882812 20.316406 12.007812 20.253906 12.144531 C 20.007812 12.023438 19.742188 11.890625 19.472656 11.761719 C 19.664062 11.613281 19.84375 11.609375 19.996094 11.769531 Z M 19.460938 9.824219 C 19.652344 10.160156 19.519531 10.535156 19.648438 10.867188 C 19.378906 10.742188 19.257812 10.050781 19.460938 9.824219 Z M 19.699219 12.527344 C 19.652344 12.605469 19.605469 12.6875 19.550781 12.785156 C 19.328125 12.375 18.996094 12.613281 18.699219 12.625 C 18.839844 12.359375 19.355469 12.269531 19.699219 12.527344 Z M 19.152344 13.027344 C 19.171875 13.265625 19.417969 13.332031 19.070312 13.492188 C 18.851562 13.59375 18.660156 13.511719 18.566406 13.304688 C 18.445312 13.046875 18.5625 12.867188 18.789062 12.757812 C 19.046875 12.632812 19.226562 12.644531 19.371094 12.875 C 18.992188 12.832031 18.804688 12.945312 18.796875 13.265625 C 18.90625 13.109375 18.972656 13.085938 19.152344 13.027344 Z M 19.625 13.84375 C 19.457031 14.113281 18.757812 14.542969 18.484375 14.167969 C 18.1875 13.757812 19.378906 13.832031 19.625 13.84375 Z M 19.792969 12.601562 C 19.84375 12.734375 20.078125 13.683594 19.699219 13.652344 C 19.40625 13.628906 19.746094 12.726562 19.792969 12.601562 Z M 19.085938 12.128906 C 18.742188 12.335938 18.496094 12.421875 18.332031 12.808594 C 18.183594 13.164062 18.238281 13.457031 18.261719 13.824219 C 17.902344 13.457031 17.898438 13.066406 18.167969 12.644531 C 18.316406 12.414062 18.761719 11.980469 19.085938 12.128906 Z M 18.710938 11.902344 C 18.445312 12.058594 18.273438 12.199219 18.070312 12.425781 C 18.050781 12.414062 18.035156 12.402344 18.019531 12.390625 C 18.125 12.167969 18.433594 11.800781 18.710938 11.902344 Z M 17.664062 11.398438 C 17.988281 11.230469 18.054688 11.613281 18.304688 11.753906 C 18.136719 11.832031 18.03125 11.757812 17.875 11.824219 C 17.757812 11.878906 17.734375 12.042969 17.613281 12.09375 C 17.414062 11.902344 17.394531 11.539062 17.664062 11.398438 Z M 16.332031 13.796875 C 15.710938 13.707031 15.703125 13.371094 15.890625 12.894531 L 15.941406 12.910156 C 15.953125 13.195312 15.9375 13.519531 16.234375 13.667969 C 16.429688 13.761719 16.699219 13.71875 16.820312 13.53125 C 16.917969 13.386719 16.929688 13.058594 16.746094 12.960938 C 16.589844 12.882812 16.402344 13.023438 16.269531 13.082031 C 16.394531 13.183594 16.511719 13.277344 16.632812 13.371094 C 16.402344 13.800781 15.886719 13.3125 16.242188 12.9375 C 16.574219 12.585938 16.9375 12.832031 17.085938 13.210938 C 17.261719 13.648438 16.726562 13.851562 16.332031 13.796875 Z M 17.367188 15.191406 C 16.875 15.566406 16.191406 14.558594 16.890625 14.488281 C 16.824219 14.71875 16.695312 14.789062 16.859375 15.007812 C 16.964844 15.148438 17.054688 15.203125 17.21875 15.121094 C 17.558594 14.949219 17.464844 14.304688 17.089844 14.25 C 17.242188 14.066406 17.59375 14.089844 17.734375 14.300781 C 17.875 14.523438 17.554688 15.046875 17.367188 15.191406 Z M 17.992188 15.726562 C 18.105469 16.074219 18.050781 16.179688 17.484375 16.363281 C 17.40625 15.925781 17.925781 15.199219 18.46875 14.984375 C 18.550781 15.199219 18.410156 15.417969 17.992188 15.726562 Z M 19.765625 15.277344 C 19.78125 15.445312 19.792969 15.546875 19.808594 15.714844 C 19.621094 15.636719 19.492188 15.582031 19.375 15.53125 C 19.410156 15.230469 19.632812 15.433594 19.765625 15.277344 Z M 18.839844 14.589844 C 18.222656 14.542969 17.828125 14.054688 17.382812 13.664062 C 17.519531 13.410156 17.28125 13.382812 17.269531 13.183594 C 17.257812 12.988281 17.441406 12.851562 17.558594 12.714844 C 17.65625 12.941406 17.210938 13.1875 17.78125 13.058594 C 17.855469 13.96875 18.53125 14.859375 19.511719 14.34375 C 19.96875 14.105469 20.175781 13.605469 20.148438 13.109375 C 20.121094 12.460938 19.84375 12.34375 19.269531 12.117188 C 19.511719 11.769531 20.40625 12.382812 20.496094 12.660156 C 20.617188 13.035156 20.308594 13.820312 20.046875 14.09375 C 20.136719 14.058594 20.230469 14.019531 20.320312 13.984375 L 20.363281 14.023438 C 19.96875 14.46875 19.4375 14.636719 18.839844 14.589844 Z M 20.515625 15.035156 C 20.441406 14.988281 19.925781 14.742188 20.070312 14.589844 C 20.1875 14.464844 20.699219 14.683594 20.789062 14.800781 C 20.710938 14.867188 20.636719 14.929688 20.515625 15.035156 Z M 1.992188 19.539062 C 2.425781 19.527344 2.683594 19.671875 2.8125 20.097656 C 2.519531 19.898438 2.273438 19.730469 1.992188 19.539062 Z M 1.691406 21.011719 C 1.972656 20.75 2.421875 20.789062 2.609375 21.164062 C 2.273438 21.164062 1.945312 21.242188 1.691406 21.011719 Z M 3.875 19.804688 C 3.792969 20.277344 3.753906 20.703125 3.523438 21.136719 C 3.425781 20.800781 3.640625 19.925781 3.875 19.804688 Z M 2.605469 22.1875 C 2.648438 22.261719 2.679688 22.3125 2.722656 22.390625 C 2.988281 22.035156 3.59375 21.367188 3.683594 22.167969 C 3.386719 21.785156 3.066406 22.503906 2.9375 22.6875 C 2.816406 22.597656 2.664062 22.480469 2.488281 22.34375 C 2.511719 22.316406 2.550781 22.261719 2.605469 22.1875 Z M 2.707031 22.765625 C 2.960938 22.980469 2.679688 23.101562 2.628906 23.285156 C 2.59375 23.429688 2.65625 23.566406 2.664062 23.714844 C 2.410156 23.722656 2.097656 23.609375 2.121094 23.292969 C 2.070312 23.050781 2.445312 22.539062 2.707031 22.765625 Z M 6.886719 23.089844 C 7.011719 23.109375 7.140625 23.132812 7.265625 23.15625 C 7.167969 23.246094 7.0625 23.34375 6.957031 23.441406 C 6.933594 23.441406 6.910156 23.441406 6.886719 23.441406 Z M 6.308594 23.058594 C 6.558594 23.175781 6.835938 23.308594 6.824219 23.621094 C 6.808594 23.914062 6.5 24.089844 6.480469 24.378906 C 6.453125 24.757812 6.632812 24.757812 6.316406 25.070312 C 6.117188 25.265625 5.917969 25.464844 5.679688 25.613281 C 5.179688 25.921875 4.496094 26.058594 4.011719 25.722656 C 3.824219 25.980469 3.652344 25.5625 3.527344 25.421875 C 3.3125 25.171875 3.234375 25.113281 3.386719 24.789062 C 3.484375 24.570312 3.628906 24.445312 3.785156 24.273438 C 3.914062 24.132812 3.9375 23.972656 4.054688 23.828125 C 4.300781 23.519531 4.910156 23.375 5.273438 23.496094 C 5.460938 23.558594 6.222656 24.28125 5.78125 24.476562 C 5.632812 24.542969 5.371094 23.910156 5.105469 23.851562 C 4.589844 23.730469 4.171875 24.128906 4.0625 24.59375 C 3.921875 25.164062 4.117188 25.605469 4.773438 25.609375 C 5.261719 25.613281 5.636719 25.210938 5.917969 24.855469 C 5.988281 24.953125 6.042969 25.027344 6.09375 25.101562 C 6.113281 25.097656 6.128906 25.09375 6.144531 25.089844 C 6.125 24.867188 6.03125 24.675781 6.003906 24.449219 C 5.980469 24.214844 5.980469 24.019531 5.855469 23.8125 C 5.582031 23.359375 5.160156 23.335938 4.683594 23.335938 C 4.65625 22.460938 5.902344 22.871094 6.308594 23.058594 Z M 3.667969 25.84375 C 3.269531 25.945312 3.332031 25.664062 3.03125 25.496094 C 3.226562 25.316406 3.585938 25.511719 3.667969 25.84375 Z M 4.972656 24.261719 C 4.734375 24.378906 4.65625 24.558594 4.515625 24.785156 C 4.015625 24.761719 4.832031 24.007812 5.082031 24.015625 C 5.617188 24.039062 5.65625 24.957031 5.019531 24.789062 C 5.027344 24.589844 5.03125 24.449219 4.972656 24.261719 Z M 5.699219 24.644531 C 5.8125 25.519531 3.996094 25.621094 4.125 25 C 4.742188 25 5.328125 25.210938 5.699219 24.644531 Z M 5.875 21.597656 C 6.0625 21.785156 6.042969 21.90625 5.765625 22.070312 C 5.808594 21.886719 5.839844 21.746094 5.875 21.597656 Z M 4.757812 21.308594 C 4.988281 21.234375 5.429688 21.003906 5.652344 21.203125 C 5.929688 21.460938 5.421875 21.691406 5.230469 21.84375 C 5.015625 21.601562 5.355469 21.457031 5.28125 21.230469 C 4.941406 21.386719 5.015625 21.683594 4.941406 21.949219 C 4.894531 21.851562 4.84375 21.75 4.796875 21.652344 C 4.78125 21.652344 4.761719 21.652344 4.742188 21.652344 C 4.730469 21.804688 4.714844 21.960938 4.703125 22.121094 C 4.214844 22.144531 4.667969 21.507812 4.757812 21.308594 Z M 3.050781 24.042969 C 3.152344 24.121094 3.160156 24.382812 3.351562 24.269531 C 3.234375 23.847656 3.207031 23.546875 3.570312 23.226562 C 3.878906 22.957031 4.339844 22.773438 4.742188 22.773438 C 4.492188 23.246094 4.167969 23.589844 3.808594 23.992188 C 3.605469 24.222656 3.398438 24.382812 3.265625 24.671875 C 3.136719 24.960938 3.136719 25.15625 2.902344 25.375 C 2.628906 24.898438 2.6875 24.4375 3.050781 24.042969 Z M 2.660156 24.257812 C 2.5 24.546875 2.5 24.546875 2.605469 24.878906 C 2.320312 24.820312 2.195312 24.726562 1.894531 24.726562 C 1.539062 24.191406 2.351562 24.257812 2.660156 24.257812 Z M 4.179688 26.847656 C 4.09375 26.804688 4.019531 26.75 3.949219 26.6875 C 3.941406 26.707031 3.933594 26.730469 3.925781 26.75 C 3.480469 26.648438 3.183594 26.414062 2.832031 26.132812 C 2.699219 26.03125 2.632812 25.972656 2.464844 25.929688 C 2.234375 25.871094 2.335938 26.050781 2.148438 25.875 C 1.632812 25.398438 2.320312 24.800781 2.769531 25.425781 C 2.644531 25.726562 2.601562 25.769531 2.929688 25.894531 C 3.144531 25.976562 3.105469 25.941406 3.300781 26.066406 C 3.40625 26.132812 3.410156 26.160156 3.542969 26.175781 C 3.855469 26.210938 3.84375 26.050781 4.109375 26.296875 C 4.328125 26.5 4.347656 26.589844 4.179688 26.847656 Z M 6.058594 25.554688 C 5.886719 26.484375 4.957031 26.371094 4.3125 26.109375 C 4.90625 26.007812 5.539062 26.039062 6.058594 25.554688 Z M 4.660156 27.136719 C 4.660156 27.101562 4.660156 27.070312 4.660156 27.035156 C 5.019531 26.917969 5.515625 26.84375 5.707031 26.539062 C 5.644531 26.476562 5.644531 26.414062 5.699219 26.351562 C 5.726562 26.328125 5.757812 26.304688 5.785156 26.28125 C 5.890625 26.121094 6.089844 25.957031 6.222656 25.816406 C 6.222656 26.511719 5.703125 26.914062 5.996094 27.648438 C 5.511719 27.464844 5.085938 27.300781 4.660156 27.136719 Z M 6.296875 27.390625 C 5.785156 27.378906 6.285156 26.445312 6.378906 26.230469 C 6.402344 26.226562 6.429688 26.222656 6.453125 26.21875 C 6.523438 26.460938 6.765625 27.398438 6.296875 27.390625 Z M 8.710938 23.671875 C 9.121094 23.742188 9.335938 24.082031 9.335938 24.484375 C 9.339844 24.796875 9.042969 25.496094 8.613281 25.34375 C 8.109375 25.164062 8.953125 24.691406 9.164062 24.636719 C 9.191406 24.425781 8.957031 24.273438 8.769531 24.164062 C 8.484375 24.007812 8.230469 24.183594 8.105469 24.5 C 7.957031 24.066406 8.25 23.589844 8.710938 23.671875 Z M 8.316406 24.414062 C 8.527344 24.292969 8.464844 24.707031 8.464844 24.796875 C 8.066406 25.039062 8.195312 24.484375 8.316406 24.414062 Z M 7.9375 23.839844 C 8.007812 24.496094 8.078125 25.019531 8.375 25.597656 C 8.003906 25.515625 7.394531 25.414062 7.382812 24.957031 C 7.375 24.664062 7.53125 23.722656 7.9375 23.839844 Z M 7.226562 25.363281 C 7.242188 25.390625 7.253906 25.414062 7.265625 25.441406 C 7.230469 25.5 7.195312 25.558594 7.132812 25.660156 C 7.375 25.640625 7.5 25.550781 7.75 25.609375 C 7.96875 25.664062 8.15625 25.796875 8.378906 25.78125 C 8.910156 25.738281 9.128906 25.355469 9.398438 24.964844 C 9.671875 25.171875 9.53125 25.578125 9.351562 25.828125 C 9.175781 26.074219 8.886719 26.113281 8.605469 26.144531 C 8.167969 26.199219 7.835938 26.132812 7.4375 25.949219 C 7.148438 25.8125 6.804688 25.601562 7.226562 25.363281 Z M 8.011719 26.886719 C 7.808594 27.152344 7.222656 26.65625 7.148438 26.46875 C 7.300781 26.488281 8.277344 26.546875 8.011719 26.886719 Z M 7.175781 27.597656 C 7.371094 27.828125 7.550781 28.035156 7.742188 28.261719 C 7.34375 28.328125 7.132812 27.960938 7.175781 27.597656 Z M 23.371094 24.089844 C 22.828125 25.148438 21.847656 25.910156 20.875 26.546875 C 19.414062 27.5 17.730469 27.890625 16.050781 28.257812 C 14.714844 28.550781 13.402344 28.558594 12.039062 28.558594 C 11.609375 28.554688 11.179688 28.597656 10.753906 28.566406 C 10.339844 28.539062 9.945312 28.429688 9.53125 28.40625 C 9.226562 28.386719 8.980469 28.269531 8.6875 28.226562 C 8.339844 28.171875 8.089844 27.960938 7.855469 27.710938 C 7.8125 27.78125 7.789062 27.824219 7.742188 27.90625 C 7.496094 27.582031 7.285156 27.277344 7.085938 26.921875 C 7.449219 27.074219 7.71875 27.210938 8.027344 27.433594 C 8.203125 27.558594 8.605469 27.738281 8.808594 27.570312 C 9.074219 27.355469 8.640625 27.175781 8.480469 27.039062 C 8.269531 26.859375 8.144531 26.617188 8 26.371094 C 8.179688 26.328125 8.300781 26.390625 8.484375 26.378906 C 8.664062 26.363281 8.804688 26.230469 8.984375 26.246094 C 9.03125 26.503906 9.144531 27.128906 9.554688 26.730469 C 9.738281 26.554688 9.539062 26.351562 9.675781 26.160156 C 10 26.5 10.253906 26.761719 9.683594 26.945312 C 9.195312 27.105469 8.953125 26.960938 8.675781 26.554688 C 8.511719 26.921875 8.902344 27.183594 9.117188 27.4375 C 9.453125 27.304688 10.125 27.179688 10.191406 26.75 C 10.261719 26.308594 9.828125 25.921875 9.414062 25.953125 C 9.488281 25.769531 9.636719 25.535156 9.664062 25.335938 C 9.6875 25.140625 9.613281 24.917969 9.59375 24.71875 L 9.710938 24.6875 C 9.796875 24.882812 9.859375 25.167969 10.054688 25.28125 C 10.257812 25.402344 10.789062 25.328125 11.035156 25.34375 C 11.722656 25.382812 12.410156 25.410156 13.09375 25.363281 C 13.671875 25.320312 14.199219 25.21875 14.753906 25.054688 C 15.265625 24.90625 15.722656 24.988281 16.226562 24.882812 C 16.832031 24.753906 17.414062 24.546875 17.976562 24.292969 C 18.507812 24.050781 19.007812 23.703125 19.558594 23.503906 C 19.878906 23.390625 20.019531 23.34375 20.265625 23.105469 C 20.425781 22.953125 20.605469 22.808594 20.746094 22.632812 C 21.050781 22.238281 20.988281 21.921875 20.925781 21.460938 C 21.691406 21.414062 22.695312 21.597656 23.199219 22.234375 C 23.691406 22.855469 23.730469 23.390625 23.371094 24.089844 Z M 23.371094 24.089844 " fill-opacity="1" fill-rule="nonzero"/></g><path fill="#ffffff" d="M 17.664062 4.863281 C 17.511719 4.875 17.324219 4.984375 17.128906 5.097656 C 17.335938 5.046875 17.527344 4.984375 17.664062 4.863281 Z M 17.664062 4.863281 " fill-opacity="1" fill-rule="nonzero"/><path fill="#ffffff" d="M 17.128906 5.097656 C 16.84375 5.164062 16.535156 5.207031 16.324219 5.359375 C 16.519531 5.464844 16.828125 5.273438 17.128906 5.097656 Z M 17.128906 5.097656 " fill-opacity="1" fill-rule="nonzero"/><path fill="#ffffff" d="M 12.597656 1.703125 C 12.722656 1.683594 12.863281 1.640625 12.988281 1.644531 C 13.082031 1.644531 13.238281 1.695312 13.316406 1.675781 C 13.578125 1.613281 13.765625 1.304688 13.929688 1.109375 C 13.964844 1.117188 14 1.128906 14.03125 1.136719 C 14.058594 1.535156 13.90625 1.804688 13.6875 2.140625 C 13.480469 2.453125 13.222656 2.519531 12.871094 2.648438 C 12.601562 2.75 12.261719 2.800781 12.089844 3.0625 C 11.976562 3.238281 11.878906 3.597656 12.160156 3.605469 C 12.515625 3.617188 12.398438 3.21875 12.554688 3.074219 C 12.796875 2.855469 12.890625 3.183594 12.804688 3.378906 C 12.566406 3.914062 11.972656 3.960938 11.773438 3.414062 C 11.453125 3.46875 11.15625 3.519531 10.816406 3.578125 C 10.949219 3.699219 11.054688 3.863281 11.199219 3.964844 C 11.355469 4.070312 11.515625 4.09375 11.640625 4.242188 C 11.894531 4.546875 11.628906 4.730469 11.386719 4.921875 C 11.59375 4.9375 11.75 4.953125 11.90625 4.964844 C 11.363281 5.136719 10.804688 5.109375 10.207031 5.09375 C 10.257812 5.355469 10.605469 6.414062 9.996094 5.929688 C 9.839844 5.808594 9.691406 5.542969 9.464844 5.582031 C 9.265625 5.617188 9.097656 5.886719 8.898438 5.976562 C 8.660156 5.429688 9.007812 5.070312 9.40625 4.714844 C 9.398438 4.691406 9.390625 4.671875 9.382812 4.648438 C 8.730469 4.613281 7.929688 4.394531 7.308594 4.652344 C 7.308594 5.191406 7.117188 6.214844 7.550781 6.585938 C 7.960938 6.941406 8.800781 6.988281 9.3125 7.117188 C 9.304688 7.144531 9.296875 7.175781 9.289062 7.203125 C 8.636719 7.03125 7.988281 6.859375 7.300781 6.679688 C 7.21875 8.28125 7.296875 9.859375 7.367188 11.457031 C 7.398438 12.101562 7.191406 12.820312 7.753906 13.296875 C 8.28125 13.746094 9.011719 13.96875 9.640625 14.21875 C 8.980469 14.398438 7.828125 13.804688 7.429688 13.265625 C 7.15625 12.894531 7.199219 12.464844 7.191406 12.027344 C 7.179688 11.503906 7.171875 10.984375 7.164062 10.464844 C 7.128906 8.496094 7.148438 6.53125 7.148438 4.5625 C 6.886719 4.59375 6.675781 4.625 6.417969 4.570312 C 6.503906 4.300781 6.664062 4.210938 6.839844 3.992188 C 6.964844 3.835938 7.289062 3.65625 7.339844 3.46875 C 6.761719 3.46875 6.609375 3.316406 7.113281 2.941406 C 7.109375 2.914062 7.109375 2.890625 7.105469 2.863281 C 6.8125 2.863281 6.15625 2.972656 6.265625 2.503906 C 6.347656 2.164062 6.800781 2.105469 7.082031 2.070312 C 6.910156 1.964844 6.855469 1.886719 6.757812 1.710938 C 6.5625 1.765625 6.472656 1.910156 6.261719 1.820312 C 6.058594 1.738281 5.933594 1.433594 5.941406 1.230469 C 6.066406 1.371094 6.191406 1.507812 6.3125 1.644531 C 6.335938 1.625 6.363281 1.605469 6.386719 1.585938 C 6.28125 1.441406 6.175781 1.296875 6.074219 1.152344 C 6.085938 1.136719 6.101562 1.121094 6.113281 1.105469 C 6.203125 1.15625 6.292969 1.207031 6.390625 1.261719 C 6.390625 1.027344 6.390625 0.804688 6.390625 0.578125 C 6.652344 0.546875 6.609375 0.925781 6.632812 1.09375 C 7.5625 0.875 7.324219 1.71875 7.71875 2.234375 C 7.792969 1.859375 7.804688 1.347656 8.054688 1.050781 C 8.625 1.574219 7.445312 2.574219 8.371094 2.863281 C 8.371094 2.492188 8.316406 2.347656 8.546875 2.054688 C 8.746094 1.804688 8.863281 1.5 9.078125 1.859375 C 9.179688 1.179688 9.242188 0.5625 9.710938 0.0898438 C 10.0625 0.738281 10.410156 1.378906 10.769531 2.042969 C 10.832031 2.019531 10.894531 1.996094 10.953125 1.980469 C 10.957031 1.851562 10.761719 1.695312 10.730469 1.535156 C 10.699219 1.398438 10.691406 1.171875 10.722656 1.035156 C 10.824219 0.558594 11.15625 0.859375 11.4375 1.058594 C 11.714844 0.679688 12.007812 0 12.492188 0.503906 C 12.84375 0.863281 12.71875 1.273438 12.597656 1.703125 Z M 10.398438 4.386719 C 10.132812 5.308594 11.746094 4.628906 11.519531 4.304688 C 11.480469 4.253906 11.109375 4.144531 11.046875 4.171875 C 10.9375 4.21875 10.957031 4.339844 10.890625 4.414062 C 10.6875 4.652344 10.570312 4.652344 10.390625 4.382812 C 10.558594 4.234375 10.726562 4.085938 10.894531 3.9375 C 10.707031 3.671875 10.417969 3.703125 10.164062 4.023438 C 10.242188 4.140625 10.320312 4.261719 10.398438 4.386719 Z M 11.996094 1.808594 C 12.40625 1.648438 12.792969 0.949219 12.390625 0.59375 C 11.84375 0.109375 11.652344 1.230469 11.683594 1.570312 C 11.792969 1.46875 11.898438 1.371094 12.019531 1.257812 C 12.195312 1.453125 11.949219 1.625 11.996094 1.808594 Z M 8.921875 2.429688 C 9.058594 2.714844 9.304688 2.820312 9.613281 2.789062 C 9.816406 2.769531 10.46875 2.550781 10.464844 2.296875 C 10.453125 1.753906 9.253906 1.949219 9.011719 2.179688 C 9.074219 2.242188 9.132812 2.304688 9.234375 2.410156 C 9.089844 2.417969 9.015625 2.421875 8.921875 2.429688 Z M 10.792969 3.269531 C 10.78125 3.238281 10.773438 3.207031 10.761719 3.175781 C 10.402344 3.175781 9.945312 3.335938 9.601562 3.261719 C 9.246094 3.179688 9.058594 3.058594 8.667969 3.074219 C 8.980469 3.332031 9.191406 3.554688 9.59375 3.523438 C 10.003906 3.488281 10.417969 3.449219 10.792969 3.269531 Z M 8.144531 3.613281 C 7.652344 3.476562 7.652344 3.941406 7.945312 4.179688 C 8.164062 4.355469 8.914062 4.597656 9.136719 4.269531 C 9.195312 4.183594 9.246094 3.980469 9.046875 3.957031 C 8.933594 3.941406 8.765625 4.230469 8.644531 4.253906 C 8.347656 4.316406 8.078125 3.90625 8.144531 3.613281 Z M 11.398438 3.308594 C 11.667969 3.089844 11.722656 2.871094 11.910156 2.59375 C 12.082031 2.339844 12.375 2.160156 12.613281 1.972656 C 12.59375 1.945312 12.570312 1.917969 12.550781 1.890625 C 12.320312 2.066406 12.09375 2.242188 11.808594 2.460938 C 11.839844 2.3125 11.855469 2.226562 11.871094 2.160156 C 11.714844 2.085938 11.570312 2.015625 11.421875 1.945312 C 11.851562 2.464844 11.835938 2.753906 11.398438 3.308594 Z M 11.019531 3.089844 C 11.042969 3.105469 11.066406 3.117188 11.09375 3.128906 C 11.191406 3.015625 11.410156 2.871094 11.46875 2.742188 C 11.527344 2.625 11.457031 2.175781 11.328125 2.117188 C 11.027344 1.976562 11.082031 2.882812 11.019531 3.089844 Z M 11.238281 1.710938 C 11.398438 1.296875 11.386719 1.125 10.949219 0.960938 C 10.796875 1.363281 10.851562 1.515625 11.238281 1.710938 Z M 6.441406 2.609375 C 6.746094 2.609375 7.03125 2.609375 7.339844 2.609375 C 7.050781 2.222656 6.671875 2.222656 6.441406 2.609375 Z M 7.332031 1.96875 C 7.332031 1.796875 7.316406 1.113281 6.972656 1.179688 C 6.597656 1.25 7.246094 1.859375 7.332031 1.96875 Z M 7.578125 3.117188 C 7.714844 3.09375 7.828125 3.089844 7.964844 3.089844 C 7.992188 3.046875 8.027344 2.996094 8.050781 2.957031 C 7.949219 2.835938 7.859375 2.722656 7.800781 2.648438 C 7.730469 2.796875 7.664062 2.9375 7.578125 3.117188 Z M 8.316406 3.113281 C 8.300781 3.132812 8.28125 3.152344 8.265625 3.175781 C 8.316406 3.480469 8.433594 3.554688 8.871094 3.535156 C 8.671875 3.382812 8.492188 3.246094 8.316406 3.113281 Z M 12.804688 2.511719 C 12.726562 2.421875 12.664062 2.351562 12.59375 2.273438 C 12.46875 2.390625 12.351562 2.503906 12.230469 2.613281 C 12.242188 2.632812 12.253906 2.652344 12.265625 2.675781 C 12.441406 2.621094 12.617188 2.566406 12.804688 2.511719 Z M 10.699219 2.449219 C 10.53125 2.597656 10.359375 2.746094 10.160156 2.921875 C 10.53125 2.957031 10.753906 2.710938 10.699219 2.449219 Z M 10.585938 2.125 C 10.535156 1.765625 10.4375 1.703125 10.175781 1.84375 C 10.308594 1.9375 10.429688 2.019531 10.585938 2.125 Z M 8.773438 2.488281 C 8.480469 2.582031 8.707031 2.933594 8.949219 2.777344 C 8.886719 2.671875 8.832031 2.582031 8.773438 2.488281 Z M 8.984375 5.410156 C 9.207031 5.441406 9.347656 5.289062 9.367188 4.996094 C 9.25 5.121094 9.132812 5.25 8.984375 5.410156 Z M 9.449219 4.175781 C 9.582031 3.972656 9.558594 3.933594 9.246094 3.875 C 9.320312 3.988281 9.382812 4.074219 9.449219 4.175781 Z M 9.449219 4.175781 " fill-opacity="1" fill-rule="nonzero"/><path fill="#ffffff" d="M 13.515625 15.007812 C 13.496094 14.910156 13.480469 14.847656 13.460938 14.761719 C 13.347656 14.796875 13.046875 14.949219 12.925781 14.859375 C 12.796875 14.761719 12.902344 14.714844 12.847656 14.585938 C 12.753906 14.382812 12.398438 14.226562 12.472656 13.96875 C 12.609375 13.488281 14.167969 13.945312 14.15625 14.339844 C 14.558594 14.390625 14.929688 14.367188 15.253906 14.085938 C 14.984375 14.085938 14.402344 14.183594 14.207031 13.953125 C 14.035156 13.75 14.132812 13.496094 14.34375 13.386719 C 14.84375 13.128906 15.5 13.550781 15.761719 13.953125 C 15.742188 13.976562 15.726562 14 15.707031 14.023438 C 15.902344 14.023438 16.011719 14.003906 16.160156 14.117188 C 15.902344 14.390625 15.601562 14.703125 15.300781 14.929688 C 14.839844 15.269531 14.917969 14.773438 14.953125 14.402344 C 14.492188 14.597656 14.011719 14.796875 13.515625 15.007812 Z M 14.421875 13.695312 C 14.421875 13.726562 14.421875 13.757812 14.421875 13.792969 C 14.695312 13.792969 14.96875 13.792969 15.242188 13.792969 C 14.976562 13.589844 14.699219 13.65625 14.421875 13.695312 Z M 15.714844 14.296875 C 15.230469 14.164062 15.3125 14.613281 15.085938 14.714844 C 15.105469 14.738281 15.125 14.761719 15.144531 14.78125 C 15.324219 14.632812 15.5 14.480469 15.714844 14.296875 Z M 13.445312 14.320312 C 13.457031 14.289062 13.46875 14.261719 13.484375 14.234375 C 13.300781 14.183594 13.117188 14.136719 12.9375 14.085938 C 12.929688 14.109375 12.921875 14.136719 12.914062 14.164062 C 13.089844 14.214844 13.269531 14.265625 13.445312 14.320312 Z M 13.445312 14.320312 " fill-opacity="1" fill-rule="nonzero"/><path fill="#ffffff" d="M 5.195312 14.230469 C 5.691406 14.222656 6.128906 14.742188 6.558594 14.941406 C 7.199219 15.234375 7.933594 15.382812 8.613281 15.5625 C 9.980469 15.921875 11.332031 16.074219 12.738281 16.226562 C 12.074219 16.375 11.363281 16.25 10.699219 16.175781 C 9.972656 16.097656 9.253906 15.988281 8.542969 15.820312 C 7.886719 15.664062 7.300781 15.433594 6.695312 15.140625 C 6.191406 14.898438 5.421875 14.8125 5.195312 14.230469 Z M 5.195312 14.230469 " fill-opacity="1" fill-rule="nonzero"/><path fill="#ffffff" d="M 20.015625 10.070312 C 19.898438 9.550781 20.1875 9.128906 20.375 8.667969 C 20.636719 8.730469 20.667969 8.96875 20.757812 9.183594 C 20.929688 8.996094 21.183594 8.566406 21.476562 8.667969 C 21.785156 8.777344 21.738281 9.113281 21.515625 9.277344 C 21.304688 9.425781 20.996094 9.445312 20.765625 9.574219 C 20.503906 9.722656 20.269531 9.914062 20.015625 10.070312 Z M 20.4375 8.820312 C 20.273438 9.097656 20.148438 9.363281 20.171875 9.699219 C 20.605469 9.285156 20.675781 9.074219 20.4375 8.820312 Z M 20.9375 9.195312 C 20.953125 9.21875 20.96875 9.242188 20.984375 9.269531 C 21.261719 9.15625 21.453125 9.132812 21.574219 8.859375 C 21.25 8.808594 21.164062 8.972656 20.9375 9.195312 Z M 20.9375 9.195312 " fill-opacity="1" fill-rule="nonzero"/><path fill="#ffffff" d="M 12.125 4.988281 C 13.304688 4.925781 14.417969 4.804688 15.582031 4.597656 C 15.59375 4.617188 15.796875 4.640625 15.804688 4.660156 C 15.335938 4.921875 14.710938 5.019531 14.1875 5.058594 C 13.605469 5.097656 12.761719 5.25 12.210938 5.035156 C 12.21875 5.019531 12.121094 5.003906 12.125 4.988281 Z M 12.125 4.988281 " fill-opacity="1" fill-rule="nonzero"/><path fill="#ffffff" d="M 9.726562 14.363281 C 9.792969 14.15625 10.628906 14.417969 10.789062 14.441406 C 11.164062 14.5 11.550781 14.554688 11.929688 14.5625 C 12.242188 14.566406 12.375 14.417969 12.589844 14.628906 C 12.261719 14.890625 11.550781 14.730469 11.144531 14.6875 C 10.683594 14.640625 10.136719 14.605469 9.726562 14.363281 Z M 9.726562 14.363281 " fill-opacity="1" fill-rule="nonzero"/><path fill="#ffffff" d="M 7.726562 16.039062 C 6.734375 15.773438 5.820312 15.320312 4.925781 14.8125 C 5.859375 15.222656 6.792969 15.628906 7.726562 16.039062 Z M 7.726562 16.039062 " fill-opacity="1" fill-rule="nonzero"/><path fill="#ffffff" d="M 7.84375 8.804688 C 8.726562 9.035156 9.644531 9.277344 10.492188 9.5 C 10.164062 9.601562 7.984375 9.035156 7.84375 8.804688 Z M 7.84375 8.804688 " fill-opacity="1" fill-rule="nonzero"/><path fill="#ffffff" d="M 7.820312 16.96875 C 6.816406 16.695312 5.863281 16.078125 4.886719 15.507812 C 5.898438 16.011719 6.90625 16.515625 7.820312 16.96875 Z M 7.820312 16.96875 " fill-opacity="1" fill-rule="nonzero"/><path fill="#ffffff" d="M 12.949219 10.746094 C 13.933594 10.746094 14.921875 10.746094 15.863281 10.746094 C 15.582031 10.882812 13.574219 10.910156 12.949219 10.746094 Z M 12.949219 10.746094 " fill-opacity="1" fill-rule="nonzero"/><path fill="#ffffff" d="M 17.585938 22.035156 C 18.386719 21.761719 19.207031 21.480469 20.019531 21.203125 C 19.882812 21.429688 18.304688 21.972656 17.585938 22.035156 Z M 17.585938 22.035156 " fill-opacity="1" fill-rule="nonzero"/><path fill="#ffffff" d="M 11.675781 8.304688 C 10.851562 8.390625 10.050781 8.261719 9.257812 8.078125 C 10.066406 8.15625 10.871094 8.230469 11.675781 8.304688 Z M 11.675781 8.304688 " fill-opacity="1" fill-rule="nonzero"/><path fill="#ffffff" d="M 8.058594 18.128906 C 7.171875 17.839844 6.226562 17.542969 5.511719 17.03125 C 6.300781 17.371094 7.203125 17.761719 8.058594 18.128906 Z M 8.058594 18.128906 " fill-opacity="1" fill-rule="nonzero"/><path fill="#ffffff" d="M 20.261719 16.835938 C 19.671875 17.195312 19.03125 17.417969 18.347656 17.53125 C 18.976562 17.28125 19.605469 17.035156 20.234375 16.785156 C 20.246094 16.804688 20.253906 16.820312 20.261719 16.835938 Z M 20.261719 16.835938 " fill-opacity="1" fill-rule="nonzero"/><path fill="#ffffff" d="M 8.273438 6.125 C 8.964844 6.296875 9.65625 6.464844 10.347656 6.632812 C 10.339844 6.65625 10.335938 6.683594 10.328125 6.710938 C 9.636719 6.546875 8.945312 6.382812 8.253906 6.21875 C 8.261719 6.1875 8.265625 6.15625 8.273438 6.125 Z M 8.273438 6.125 " fill-opacity="1" fill-rule="nonzero"/><path fill="#ffffff" d="M 18.960938 23.171875 C 18.355469 23.378906 17.75 23.585938 17.144531 23.792969 C 17.136719 23.773438 17.132812 23.757812 17.125 23.738281 C 17.722656 23.515625 18.320312 23.292969 18.917969 23.070312 C 18.933594 23.105469 18.949219 23.136719 18.960938 23.171875 Z M 18.960938 23.171875 " fill-opacity="1" fill-rule="nonzero"/><path fill="#ffffff" d="M 17.582031 17.734375 C 17.160156 17.972656 16.6875 18.050781 16.203125 18.046875 C 16.199219 18.027344 16.191406 18.007812 16.1875 17.988281 C 16.652344 17.902344 17.117188 17.816406 17.582031 17.734375 Z M 17.582031 17.734375 " fill-opacity="1" fill-rule="nonzero"/><path fill="#ffffff" d="M 8.550781 13.148438 C 9.035156 13.34375 9.519531 13.539062 10 13.734375 C 9.992188 13.753906 9.988281 13.773438 9.980469 13.789062 C 9.492188 13.605469 9.003906 13.417969 8.519531 13.234375 C 8.53125 13.203125 8.539062 13.175781 8.550781 13.148438 Z M 8.550781 13.148438 " fill-opacity="1" fill-rule="nonzero"/><path fill="#ffffff" d="M 9.460938 12.8125 C 9.027344 12.621094 8.597656 12.425781 8.167969 12.234375 C 8.179688 12.207031 8.191406 12.183594 8.203125 12.15625 C 8.632812 12.34375 9.0625 12.535156 9.492188 12.722656 C 9.480469 12.753906 9.46875 12.785156 9.460938 12.8125 Z M 9.460938 12.8125 " fill-opacity="1" fill-rule="nonzero"/><path fill="#ffffff" d="M 20.503906 18.535156 C 20.21875 18.875 19.800781 18.929688 19.433594 19.085938 C 19.421875 19.0625 19.414062 19.042969 19.402344 19.019531 C 19.769531 18.859375 20.136719 18.695312 20.503906 18.535156 Z M 20.503906 18.535156 " fill-opacity="1" fill-rule="nonzero"/><path fill="#ffffff" d="M 8.433594 21.539062 C 8.007812 21.421875 7.636719 21.320312 7.214844 21.207031 C 7.5625 21.148438 8.214844 21.324219 8.433594 21.539062 Z M 8.433594 21.539062 " fill-opacity="1" fill-rule="nonzero"/><path fill="#ffffff" d="M 16.058594 8.933594 C 16.523438 8.859375 16.945312 8.789062 17.347656 8.722656 C 17.132812 8.90625 16.59375 9.003906 16.058594 8.933594 Z M 16.058594 8.933594 " fill-opacity="1" fill-rule="nonzero"/><path fill="#ffffff" d="M 8.082031 11.234375 C 8.503906 11.40625 8.921875 11.578125 9.34375 11.753906 C 9.335938 11.769531 9.328125 11.789062 9.320312 11.808594 C 8.898438 11.644531 8.476562 11.480469 8.050781 11.316406 C 8.0625 11.289062 8.074219 11.261719 8.082031 11.234375 Z M 8.082031 11.234375 " fill-opacity="1" fill-rule="nonzero"/><path fill="#ffffff" d="M 13.957031 24.234375 C 14.410156 24.199219 14.863281 24.164062 15.351562 24.128906 C 15.121094 24.269531 14.6875 24.304688 13.957031 24.234375 Z M 13.957031 24.234375 " fill-opacity="1" fill-rule="nonzero"/><path fill="#ffffff" d="M 17.785156 7.867188 C 17.6875 8.015625 16.617188 8.40625 16.339844 8.390625 C 16.808594 8.222656 17.3125 8.039062 17.785156 7.867188 Z M 17.785156 7.867188 " fill-opacity="1" fill-rule="nonzero"/><path fill="#ffffff" d="M 15.035156 9.085938 C 14.550781 9.109375 14.066406 9.132812 13.582031 9.15625 C 13.578125 9.132812 13.578125 9.105469 13.578125 9.082031 C 14.0625 9.082031 14.550781 9.082031 15.035156 9.082031 C 15.035156 9.082031 15.035156 9.085938 15.035156 9.085938 Z M 15.035156 9.085938 " fill-opacity="1" fill-rule="nonzero"/><path fill="#ffffff" d="M 20.160156 15.949219 C 19.871094 16.109375 19.582031 16.269531 19.292969 16.429688 C 19.277344 16.398438 19.257812 16.363281 19.242188 16.332031 C 19.535156 16.183594 19.832031 16.035156 20.128906 15.886719 C 20.136719 15.90625 20.148438 15.925781 20.160156 15.949219 Z M 20.160156 15.949219 " fill-opacity="1" fill-rule="nonzero"/><path fill="#ffffff" d="M 7.75 9.542969 C 8.148438 9.703125 8.546875 9.863281 8.945312 10.023438 C 8.9375 10.039062 8.933594 10.058594 8.925781 10.074219 C 8.523438 9.917969 8.121094 9.761719 7.71875 9.609375 C 7.730469 9.585938 7.738281 9.566406 7.75 9.542969 Z M 7.75 9.542969 " fill-opacity="1" fill-rule="nonzero"/><path fill="#ffffff" d="M 11.289062 23.292969 C 11.652344 23.292969 12.015625 23.292969 12.378906 23.292969 C 12.015625 23.398438 11.65625 23.460938 11.289062 23.292969 Z M 11.289062 23.292969 " fill-opacity="1" fill-rule="nonzero"/><path fill="#ffffff" d="M 7.625 20.5 C 8.046875 20.558594 8.46875 20.617188 8.890625 20.675781 C 8.886719 20.695312 8.882812 20.71875 8.878906 20.738281 C 8.457031 20.675781 8.03125 20.613281 7.609375 20.550781 C 7.613281 20.535156 7.621094 20.515625 7.625 20.5 Z M 7.625 20.5 " fill-opacity="1" fill-rule="nonzero"/><path fill="#ffffff" d="M 14.355469 7.085938 C 14.628906 7.058594 14.898438 7.035156 15.171875 7.007812 C 15.175781 7.039062 15.175781 7.066406 15.179688 7.097656 C 14.90625 7.117188 14.632812 7.140625 14.359375 7.164062 C 14.359375 7.136719 14.355469 7.109375 14.355469 7.085938 Z M 14.355469 7.085938 " fill-opacity="1" fill-rule="nonzero"/><path fill="#ffffff" d="M 15.277344 20.328125 C 15.546875 20.300781 15.816406 20.273438 16.082031 20.242188 C 16.085938 20.273438 16.089844 20.304688 16.089844 20.339844 C 15.824219 20.359375 15.554688 20.378906 15.285156 20.402344 C 15.28125 20.378906 15.28125 20.355469 15.277344 20.328125 Z M 15.277344 20.328125 " fill-opacity="1" fill-rule="nonzero"/><path fill="#ffffff" d="M 10.734375 17.730469 C 10.390625 17.640625 10.046875 17.546875 9.707031 17.457031 C 9.710938 17.441406 9.714844 17.425781 9.71875 17.410156 C 10.058594 17.496094 10.402344 17.585938 10.746094 17.671875 C 10.742188 17.691406 10.738281 17.710938 10.734375 17.730469 Z M 10.734375 17.730469 " fill-opacity="1" fill-rule="nonzero"/><path fill="#ffffff" d="M 6.074219 0.4375 C 6.199219 0.625 6.296875 0.707031 6.257812 0.925781 C 6.058594 0.800781 6.074219 0.695312 6.03125 0.460938 C 6.046875 0.453125 6.058594 0.445312 6.074219 0.4375 Z M 6.074219 0.4375 " fill-opacity="1" fill-rule="nonzero"/><path fill="#ffffff" d="M 11.367188 12.359375 C 11.109375 12.257812 10.847656 12.15625 10.589844 12.058594 C 10.597656 12.035156 10.605469 12.015625 10.613281 11.992188 C 10.871094 12.085938 11.132812 12.179688 11.390625 12.273438 C 11.382812 12.300781 11.375 12.332031 11.367188 12.359375 Z M 11.367188 12.359375 " fill-opacity="1" fill-rule="nonzero"/><path fill="#ffffff" d="M 13.902344 17.546875 C 13.664062 17.546875 13.425781 17.546875 13.183594 17.546875 C 13.183594 17.519531 13.1875 17.492188 13.1875 17.460938 C 13.425781 17.472656 13.667969 17.484375 13.90625 17.496094 C 13.90625 17.511719 13.90625 17.53125 13.902344 17.546875 Z M 13.902344 17.546875 " fill-opacity="1" fill-rule="nonzero"/><path fill="#ffffff" d="M 17.746094 20.1875 C 17.484375 20.21875 17.21875 20.25 16.957031 20.28125 C 16.957031 20.261719 16.953125 20.242188 16.949219 20.226562 C 17.214844 20.191406 17.476562 20.15625 17.738281 20.117188 C 17.742188 20.140625 17.742188 20.164062 17.746094 20.1875 Z M 17.746094 20.1875 " fill-opacity="1" fill-rule="nonzero"/><path fill="#ffffff" d="M 17.160156 7.492188 C 16.855469 7.554688 16.550781 7.617188 16.242188 7.679688 C 16.238281 7.664062 16.238281 7.648438 16.234375 7.632812 C 16.539062 7.574219 16.847656 7.511719 17.152344 7.453125 C 17.15625 7.464844 17.160156 7.480469 17.160156 7.492188 Z M 17.160156 7.492188 " fill-opacity="1" fill-rule="nonzero"/><path fill="#ffffff" d="M 5.863281 20.804688 C 5.671875 20.695312 5.480469 20.589844 5.289062 20.484375 C 5.296875 20.472656 5.300781 20.457031 5.308594 20.445312 C 5.503906 20.550781 5.695312 20.65625 5.890625 20.761719 C 5.882812 20.773438 5.871094 20.789062 5.863281 20.804688 Z M 5.863281 20.804688 " fill-opacity="1" fill-rule="nonzero"/><path fill="#ffffff" d="M 18.640625 19.878906 C 18.84375 19.832031 19.042969 19.78125 19.242188 19.734375 C 19.246094 19.75 19.25 19.765625 19.253906 19.78125 C 19.054688 19.832031 18.855469 19.878906 18.65625 19.929688 C 18.652344 19.914062 18.644531 19.894531 18.640625 19.878906 Z M 18.640625 19.878906 " fill-opacity="1" fill-rule="nonzero"/><path fill="#ffffff" d="M 9.445312 2.113281 C 9.476562 2.195312 9.496094 2.253906 9.503906 2.261719 C 9.933594 2.21875 9.800781 2.488281 9.582031 2.730469 C 9.445312 2.585938 9.050781 2.242188 9.445312 2.113281 Z M 9.445312 2.113281 " fill-opacity="1" fill-rule="nonzero"/></svg>