<svg xmlns="http://www.w3.org/2000/svg" xmlns:xlink="http://www.w3.org/1999/xlink" width="40" zoomAndPan="magnify" viewBox="0 0 30 30.000001" height="40" preserveAspectRatio="xMidYMid meet" version="1.0"><defs><clipPath id="05bc182951"><path d="M 0.484375 2 L 29.515625 2 L 29.515625 26 L 0.484375 26 Z M 0.484375 2 " clip-rule="nonzero"/></clipPath></defs><path fill="#ffffff" d="M 20.6875 15.371094 C 20.207031 13.8125 18.617188 12.886719 17.023438 13.234375 C 16.496094 13.351562 16.007812 13.601562 15.609375 13.960938 L 14.933594 14.5625 C 14.789062 14.695312 14.582031 14.730469 14.398438 14.65625 L 13.5625 14.320312 C 13.058594 14.121094 12.515625 14.050781 11.980469 14.125 C 10.367188 14.339844 9.1875 15.757812 9.265625 17.382812 C 9.324219 18.535156 9.835938 19.621094 10.691406 20.390625 C 12.378906 21.910156 14.109375 23.160156 15.886719 24.089844 C 16.179688 24.242188 16.539062 24.175781 16.765625 23.933594 C 18.117188 22.453125 19.3125 20.6875 20.378906 18.683594 C 20.921875 17.667969 21.03125 16.472656 20.6875 15.371094 Z M 14.183594 21.394531 C 14.148438 21.46875 14.074219 21.511719 13.996094 21.511719 C 13.96875 21.511719 13.9375 21.503906 13.90625 21.488281 C 13.804688 21.4375 13.761719 21.316406 13.8125 21.210938 L 17.039062 14.589844 C 17.089844 14.484375 17.214844 14.441406 17.316406 14.492188 C 17.421875 14.542969 17.464844 14.667969 17.414062 14.769531 Z M 19.203125 15.898438 L 17.046875 20.324219 C 17.011719 20.398438 16.9375 20.441406 16.859375 20.441406 C 16.828125 20.441406 16.796875 20.4375 16.769531 20.421875 C 16.664062 20.371094 16.621094 20.246094 16.671875 20.144531 L 18.828125 15.71875 C 18.878906 15.613281 19.003906 15.570312 19.109375 15.621094 C 19.210938 15.671875 19.253906 15.796875 19.203125 15.898438 Z M 19.203125 15.898438 " fill-opacity="1" fill-rule="nonzero"/><path fill="#ffffff" d="M 15.140625 4.890625 L 10.894531 5.640625 C 10.816406 5.652344 10.773438 5.75 10.804688 5.839844 L 11.375 7.539062 C 11.398438 7.609375 11.460938 7.652344 11.519531 7.640625 L 15.238281 6.988281 C 15.300781 6.976562 15.34375 6.914062 15.34375 6.839844 L 15.296875 5.046875 C 15.292969 4.953125 15.21875 4.875 15.140625 4.890625 Z M 15.140625 4.890625 " fill-opacity="1" fill-rule="nonzero"/><g clip-path="url(#05bc182951)"><path fill="#ffffff" d="M 29.453125 20.117188 L 27.34375 8.15625 C 27.210938 7.40625 26.492188 6.90625 25.746094 7.035156 L 10.421875 9.738281 L 8.734375 5.421875 C 8.648438 5.207031 8.664062 4.964844 8.777344 4.765625 C 8.890625 4.5625 9.085938 4.425781 9.316406 4.386719 L 16.195312 3.171875 C 16.445312 3.128906 16.675781 3.183594 16.847656 3.328125 C 17.015625 3.472656 17.105469 3.691406 17.097656 3.945312 L 17.011719 7.578125 C 17.007812 7.691406 17.097656 7.789062 17.214844 7.789062 C 17.214844 7.789062 17.21875 7.789062 17.21875 7.789062 C 17.332031 7.789062 17.425781 7.699219 17.425781 7.585938 L 17.515625 3.957031 C 17.523438 3.574219 17.382812 3.238281 17.117188 3.011719 C 16.851562 2.785156 16.5 2.695312 16.125 2.761719 L 9.242188 3.976562 C 8.894531 4.035156 8.589844 4.25 8.417969 4.5625 C 8.242188 4.871094 8.21875 5.242188 8.347656 5.574219 L 10.003906 9.8125 L 6.867188 10.363281 L 6.746094 9.667969 C 6.644531 9.101562 6.105469 8.726562 5.539062 8.824219 L 3.191406 9.238281 C 2.625 9.339844 2.246094 9.878906 2.34375 10.441406 L 2.46875 11.140625 L 1.664062 11.28125 C 1.300781 11.34375 0.984375 11.546875 0.773438 11.847656 C 0.5625 12.152344 0.480469 12.515625 0.546875 12.878906 L 2.65625 24.84375 C 2.773438 25.511719 3.359375 25.984375 4.015625 25.984375 C 4.09375 25.984375 4.175781 25.976562 4.253906 25.960938 L 9.441406 25.046875 C 9.554688 25.027344 9.628906 24.921875 9.609375 24.808594 C 9.589844 24.695312 9.480469 24.617188 9.367188 24.640625 L 4.183594 25.554688 C 3.660156 25.644531 3.160156 25.292969 3.066406 24.769531 L 1.550781 16.171875 L 5.878906 15.410156 C 5.992188 15.386719 6.066406 15.28125 6.046875 15.167969 C 6.027344 15.054688 5.917969 14.980469 5.804688 15 L 1.476562 15.761719 L 0.957031 12.808594 C 0.914062 12.554688 0.96875 12.300781 1.117188 12.089844 C 1.265625 11.878906 1.484375 11.738281 1.738281 11.691406 L 25.816406 7.445312 C 26.34375 7.355469 26.84375 7.707031 26.933594 8.230469 L 27.457031 11.183594 L 23.109375 11.949219 C 22.996094 11.96875 22.921875 12.078125 22.941406 12.191406 C 22.957031 12.289062 23.046875 12.363281 23.144531 12.363281 C 23.15625 12.363281 23.167969 12.359375 23.179688 12.359375 L 27.527344 11.589844 L 29.042969 20.191406 C 29.089844 20.445312 29.03125 20.699219 28.882812 20.910156 C 28.734375 21.121094 28.515625 21.261719 28.261719 21.308594 L 21.664062 22.46875 C 22.601562 21.132812 23.09375 19.539062 23.0625 17.878906 C 22.992188 13.621094 19.507812 10.210938 15.269531 10.210938 C 15.222656 10.210938 15.179688 10.210938 15.132812 10.214844 C 13.050781 10.25 11.105469 11.09375 9.660156 12.589844 C 8.210938 14.089844 7.433594 16.0625 7.46875 18.144531 C 7.542969 22.398438 11.027344 25.808594 15.265625 25.808594 C 15.308594 25.808594 15.355469 25.808594 15.402344 25.808594 C 17.484375 25.773438 19.425781 24.929688 20.875 23.429688 C 21.023438 23.277344 21.164062 23.121094 21.296875 22.957031 L 28.332031 21.714844 C 28.695312 21.652344 29.011719 21.449219 29.226562 21.148438 C 29.4375 20.847656 29.515625 20.480469 29.453125 20.117188 Z M 2.878906 11.066406 L 2.757812 10.371094 C 2.695312 10.03125 2.925781 9.707031 3.261719 9.648438 L 5.613281 9.234375 C 5.953125 9.175781 6.277344 9.402344 6.335938 9.742188 L 6.457031 10.4375 Z M 20.574219 23.140625 C 19.203125 24.558594 17.363281 25.359375 15.394531 25.394531 C 15.351562 25.394531 15.308594 25.394531 15.265625 25.394531 C 11.253906 25.394531 7.957031 22.164062 7.886719 18.136719 C 7.851562 16.167969 8.585938 14.300781 9.957031 12.882812 C 11.328125 11.464844 13.167969 10.664062 15.140625 10.628906 C 15.183594 10.628906 15.226562 10.628906 15.269531 10.628906 C 19.28125 10.628906 22.578125 13.859375 22.648438 17.886719 C 22.679688 19.855469 21.945312 21.722656 20.574219 23.140625 Z M 20.574219 23.140625 " fill-opacity="1" fill-rule="nonzero"/></g><path fill="#ffffff" d="M 25.945312 25.335938 L 24.527344 24.714844 C 24.421875 24.667969 24.300781 24.714844 24.253906 24.820312 C 24.207031 24.925781 24.253906 25.046875 24.359375 25.09375 L 25.777344 25.714844 C 25.804688 25.726562 25.832031 25.734375 25.863281 25.734375 C 25.941406 25.734375 26.019531 25.6875 26.050781 25.609375 C 26.097656 25.503906 26.050781 25.378906 25.945312 25.335938 Z M 25.945312 25.335938 " fill-opacity="1" fill-rule="nonzero"/><path fill="#ffffff" d="M 20.757812 27.078125 C 20.730469 26.964844 20.621094 26.898438 20.507812 26.925781 C 20.394531 26.953125 20.328125 27.066406 20.355469 27.179688 L 20.726562 28.679688 C 20.75 28.773438 20.835938 28.839844 20.929688 28.839844 C 20.945312 28.839844 20.960938 28.835938 20.980469 28.832031 C 21.089844 28.804688 21.160156 28.691406 21.132812 28.582031 Z M 20.757812 27.078125 " fill-opacity="1" fill-rule="nonzero"/><path fill="#ffffff" d="M 3.035156 3.984375 L 4.503906 4.472656 C 4.527344 4.480469 4.550781 4.484375 4.570312 4.484375 C 4.65625 4.484375 4.738281 4.429688 4.769531 4.34375 C 4.804688 4.234375 4.746094 4.117188 4.636719 4.078125 L 3.167969 3.589844 C 3.058594 3.550781 2.941406 3.613281 2.90625 3.71875 C 2.871094 3.828125 2.929688 3.949219 3.035156 3.984375 Z M 3.035156 3.984375 " fill-opacity="1" fill-rule="nonzero"/><path fill="#ffffff" d="M 8.046875 1.78125 C 8.074219 1.867188 8.15625 1.921875 8.242188 1.921875 C 8.265625 1.921875 8.285156 1.917969 8.308594 1.910156 C 8.417969 1.871094 8.476562 1.753906 8.4375 1.644531 L 7.933594 0.183594 C 7.894531 0.0742188 7.777344 0.015625 7.667969 0.0546875 C 7.558594 0.0898438 7.5 0.210938 7.539062 0.316406 Z M 8.046875 1.78125 " fill-opacity="1" fill-rule="nonzero"/></svg>