<svg xmlns="http://www.w3.org/2000/svg" xmlns:xlink="http://www.w3.org/1999/xlink" width="40" zoomAndPan="magnify" viewBox="0 0 30 30.000001" height="40" preserveAspectRatio="xMidYMid meet" version="1.0"><defs><clipPath id="d9df9b794c"><path d="M 0.484375 0 L 22.984375 0 L 22.984375 29.03125 L 0.484375 29.03125 Z M 0.484375 0 " clip-rule="nonzero"/></clipPath></defs><path fill="#ffffff" d="M 13.421875 0.683594 C 13.421875 0.683594 13.421875 0.683594 13.417969 0.683594 C 13.417969 0.683594 13.417969 0.683594 13.417969 0.6875 Z M 13.421875 0.683594 " fill-opacity="1" fill-rule="nonzero"/><path fill="#ffffff" d="M 3.695312 5.875 C 3.695312 5.875 3.695312 5.878906 3.695312 5.878906 C 3.695312 5.878906 3.695312 5.878906 3.699219 5.875 C 3.699219 5.875 3.695312 5.875 3.695312 5.875 C 3.699219 5.875 3.699219 5.871094 3.699219 5.871094 C 3.695312 5.871094 3.695312 5.871094 3.695312 5.875 Z M 3.695312 5.875 " fill-opacity="1" fill-rule="nonzero"/><g clip-path="url(#d9df9b794c)"><path fill="#ffffff" d="M 22.839844 16.8125 C 22.765625 15.4375 22.210938 14.167969 21.652344 12.929688 C 21.15625 11.808594 20.863281 10.617188 20.394531 9.488281 C 20.328125 9.285156 20.140625 9.191406 20.003906 9.042969 C 19.789062 8.835938 19.472656 8.855469 19.210938 8.765625 C 18.46875 8.574219 17.707031 8.511719 16.957031 8.367188 C 16.707031 8.335938 16.359375 8.332031 16.234375 8.074219 C 16.125 7.871094 15.875 7.503906 15.625 7.503906 C 15.515625 7.515625 15.480469 7.457031 15.445312 7.363281 C 15.261719 6.875 15.195312 6.359375 15.117188 5.847656 C 15.109375 5.792969 15.113281 5.757812 15.1875 5.753906 C 15.253906 5.75 15.273438 5.699219 15.269531 5.636719 C 15.257812 5.488281 15.253906 5.339844 15.230469 5.195312 C 15.199219 4.992188 15.214844 4.792969 15.246094 4.59375 C 15.390625 3.636719 15.566406 2.609375 15.246094 1.671875 C 15.148438 1.429688 15.03125 1.195312 14.90625 0.964844 C 14.65625 0.445312 13.824219 0.0078125 13.386719 0.542969 C 13.28125 0.664062 13.21875 0.425781 13.121094 0.410156 C 12.976562 0.386719 12.839844 0.324219 12.6875 0.339844 C 11.886719 0.269531 11.152344 0.601562 10.503906 1.042969 C 10.191406 1.234375 9.984375 1.519531 9.789062 1.820312 C 9.554688 2.117188 9.496094 2.457031 9.421875 2.828125 C 8.6875 2.222656 7.707031 2.089844 6.785156 2.144531 C 6.238281 2.167969 5.722656 2.46875 5.332031 2.847656 C 5.1875 3.003906 5.035156 3.15625 4.957031 3.359375 C 4.929688 3.429688 4.890625 3.460938 4.8125 3.457031 C 4.554688 3.445312 4.304688 3.492188 4.058594 3.582031 C 3.832031 3.683594 3.511719 3.804688 3.390625 4.027344 C 3.351562 4.167969 3.238281 4.285156 3.199219 4.421875 C 3.128906 4.914062 3.152344 5.425781 3.351562 5.886719 C 3.378906 5.953125 3.378906 6.019531 3.359375 6.09375 C 3.125 6.957031 2.886719 7.820312 2.707031 8.699219 C 2.21875 11.054688 1.90625 13.445312 1.445312 15.808594 C 1.257812 16.914062 1.042969 18.011719 0.84375 19.117188 C 0.75 19.914062 0.484375 20.714844 0.648438 21.519531 C 0.761719 22.113281 1.425781 21.671875 1.472656 22.316406 C 1.5 22.464844 1.554688 22.597656 1.699219 22.675781 C 1.988281 22.878906 1.964844 23.394531 2.09375 23.707031 C 2.125 23.804688 2.144531 23.914062 2.207031 23.996094 C 2.253906 24.058594 2.25 24.113281 2.230469 24.175781 C 1.8125 25.75 1.34375 27.394531 1.449219 29.027344 C 1.476562 27.707031 1.734375 26.367188 2.070312 25.078125 C 2.144531 24.78125 2.210938 24.484375 2.3125 24.191406 C 2.324219 24.15625 2.320312 24.109375 2.378906 24.09375 C 2.730469 24.027344 2.855469 23.410156 3.167969 23.515625 C 3.492188 23.574219 3.699219 23.847656 3.960938 24.023438 C 4.027344 24.066406 4.015625 24.121094 4.015625 24.203125 C 4.105469 24.003906 4.308594 24.25 4.53125 24.058594 C 4.683594 23.964844 4.679688 23.675781 4.867188 23.773438 C 5.300781 23.9375 5.289062 23.492188 5.464844 23.59375 C 5.667969 23.695312 6.292969 23.851562 6.261719 23.46875 C 6.257812 22.890625 6.417969 22.328125 6.496094 21.757812 C 6.519531 21.574219 6.535156 21.386719 6.644531 21.226562 C 6.664062 21.199219 6.664062 21.167969 6.671875 21.132812 C 6.789062 20.464844 6.5625 19.816406 6.527344 19.148438 C 6.519531 18.839844 6.488281 18.527344 6.453125 18.21875 C 6.304688 17.050781 6.269531 15.871094 6.132812 14.699219 C 6.105469 14.460938 6.117188 14.21875 6.09375 13.980469 C 6.058594 13.597656 6.035156 13.214844 6.007812 12.835938 C 6.007812 12.8125 6.011719 12.792969 6.03125 12.777344 C 6.980469 12.921875 7.941406 12.886719 8.890625 12.835938 C 9.578125 12.75 10.296875 12.804688 10.851562 12.328125 C 10.984375 12.242188 11.375 11.886719 11.507812 12.007812 C 11.558594 12.0625 11.511719 12.09375 11.480469 12.132812 C 11.40625 12.238281 11.328125 12.347656 11.25 12.453125 C 10.527344 13.4375 10.183594 14.957031 10.632812 16.117188 C 10.722656 16.273438 10.804688 16.421875 10.71875 16.628906 C 10.617188 16.875 10.558594 17.136719 10.410156 17.367188 C 10.269531 17.652344 10.269531 17.984375 10.179688 18.285156 C 10.15625 18.359375 10.164062 18.421875 10.183594 18.492188 C 10.535156 19.714844 11.109375 20.859375 11.554688 22.050781 C 12.265625 24.28125 12.773438 26.582031 13.617188 28.769531 C 13.65625 28.671875 13.617188 28.597656 13.59375 28.519531 C 13.191406 27.285156 12.78125 26.050781 12.433594 24.796875 C 12.085938 23.613281 11.835938 22.398438 11.339844 21.265625 C 11.027344 20.40625 10.636719 19.574219 10.371094 18.699219 C 10.332031 18.5625 10.285156 18.425781 10.308594 18.28125 C 10.34375 18.066406 10.394531 17.851562 10.429688 17.636719 C 10.546875 17.246094 10.75 16.949219 10.832031 16.519531 C 11.480469 17.535156 11.992188 18.621094 12.78125 19.535156 C 12.957031 19.730469 13.144531 19.875 13.429688 19.839844 C 13.632812 19.8125 13.828125 19.78125 13.988281 19.640625 C 14.464844 19.253906 14.722656 18.683594 15.074219 18.191406 C 15.097656 18.160156 15.109375 18.121094 15.171875 18.121094 C 15.273438 18.425781 15.269531 18.746094 15.3125 19.0625 C 15.382812 19.703125 15.472656 20.316406 15.558594 20.960938 C 15.582031 20.941406 15.589844 20.9375 15.589844 20.933594 C 15.539062 20.480469 15.492188 20.023438 15.433594 19.570312 C 15.367188 19.074219 15.359375 18.578125 15.28125 18.085938 C 15.269531 18.015625 15.277344 17.949219 15.324219 17.886719 C 15.695312 17.363281 16.128906 16.894531 16.511719 16.382812 C 16.859375 15.933594 17.222656 15.492188 17.515625 15.007812 C 17.546875 14.953125 17.574219 14.941406 17.644531 14.972656 C 17.863281 15.082031 18.0625 15.234375 18.324219 15.265625 C 18.257812 15.425781 18.332031 15.53125 18.433594 15.636719 C 18.839844 16.007812 19.160156 16.492188 19.644531 16.773438 C 19.765625 16.957031 19.957031 17.0625 20.109375 17.210938 C 20.304688 17.398438 20.527344 17.539062 20.777344 17.644531 C 21.242188 17.792969 21.757812 17.992188 22.238281 17.832031 C 22.679688 17.710938 22.902344 17.242188 22.839844 16.8125 Z M 15.484375 8.050781 C 15.492188 8.003906 15.492188 7.953125 15.523438 7.914062 C 15.863281 8.042969 15.902344 9.269531 15.882812 9.613281 C 15.859375 9.796875 15.808594 9.96875 15.6875 10.109375 C 15.527344 10.28125 15.464844 10.507812 15.3125 10.683594 C 15.035156 10.378906 14.964844 9.972656 14.714844 9.65625 C 14.492188 9.425781 15.28125 9.152344 15.484375 8.050781 Z M 13.5625 10.910156 C 13.382812 10.804688 13.316406 10.640625 13.183594 10.546875 C 12.957031 10.394531 12.886719 10.15625 12.835938 9.90625 C 12.765625 9.558594 12.648438 9.214844 12.683594 8.855469 C 12.734375 8.859375 12.753906 8.902344 12.773438 8.933594 C 12.96875 9.238281 13.222656 9.496094 13.460938 9.765625 C 13.539062 9.859375 13.640625 9.875 13.769531 9.878906 C 13.617188 10.203125 13.5625 10.539062 13.5625 10.910156 Z M 13.804688 10.558594 C 13.734375 10.527344 13.707031 10.46875 13.714844 10.386719 C 13.769531 10.4375 13.789062 10.496094 13.804688 10.558594 Z M 13.035156 10.5625 C 13.152344 10.707031 13.28125 10.839844 13.417969 10.964844 C 13.484375 11.007812 13.550781 11.109375 13.621094 11.082031 C 13.703125 11.050781 13.652344 10.9375 13.664062 10.859375 C 13.679688 10.808594 13.636719 10.625 13.726562 10.660156 C 13.964844 10.769531 13.953125 11.0625 13.964844 11.285156 C 14.003906 11.761719 14 12.214844 13.960938 12.691406 C 13.84375 12.625 13.792969 12.515625 13.734375 12.421875 C 13.613281 12.21875 13.460938 12.039062 13.328125 11.84375 C 13.28125 11.777344 13.253906 11.707031 13.234375 11.625 C 13.167969 11.269531 13.066406 10.929688 13 10.578125 C 13.011719 10.570312 13.023438 10.566406 13.035156 10.5625 Z M 13.984375 10.742188 C 13.9375 10.597656 13.902344 10.449219 13.839844 10.3125 C 13.8125 10.25 13.835938 10.195312 13.875 10.144531 C 13.917969 10.089844 13.976562 10.046875 13.921875 9.960938 C 13.894531 9.914062 13.964844 9.867188 14 9.851562 C 14.164062 9.769531 14.578125 9.605469 14.535156 9.9375 C 14.335938 10.507812 14.640625 10.859375 14.332031 10.828125 C 14.230469 10.8125 14.046875 10.910156 13.984375 10.742188 Z M 14.035156 12.65625 C 14.070312 12.3125 14.078125 11.96875 14.078125 11.625 C 14.078125 11.4375 14.082031 11.25 14.089844 11.058594 C 14.09375 10.976562 14.128906 10.964844 14.1875 10.964844 C 14.285156 10.980469 14.460938 10.9375 14.480469 11.070312 C 14.511719 11.207031 14.542969 11.347656 14.570312 11.484375 C 14.640625 11.84375 14.714844 12.203125 14.773438 12.5625 C 14.785156 12.625 14.871094 12.660156 14.828125 12.734375 C 14.707031 12.9375 14.664062 13.160156 14.535156 13.367188 C 14.375 13.199219 13.980469 12.894531 14.035156 12.65625 Z M 14.660156 9.859375 C 14.773438 9.933594 14.789062 9.96875 14.742188 10.066406 C 14.695312 10.175781 14.640625 10.28125 14.570312 10.421875 C 14.519531 10.195312 14.664062 10.042969 14.660156 9.859375 Z M 14.753906 12.023438 C 14.679688 11.558594 14.558594 11.089844 14.585938 10.617188 C 14.71875 10.480469 14.726562 10.277344 14.832031 10.117188 C 14.949219 10.226562 14.953125 10.386719 15.035156 10.507812 C 15.117188 10.625 15.1875 10.75 15.292969 10.859375 C 15.40625 10.746094 15.503906 10.632812 15.570312 10.496094 C 15.632812 10.371094 15.691406 10.242188 15.84375 10.144531 C 15.777344 10.414062 15.820312 10.585938 15.671875 10.828125 C 15.40625 11.417969 15.175781 12.027344 14.875 12.601562 C 14.8125 12.398438 14.785156 12.210938 14.753906 12.023438 Z M 15.125 6.527344 C 15.175781 6.847656 15.253906 7.160156 15.375 7.457031 C 15.554688 8.144531 15.09375 9.019531 14.5625 9.445312 C 14.300781 9.628906 13.878906 9.871094 13.558594 9.667969 C 13.3125 9.414062 13.066406 9.164062 12.867188 8.867188 C 12.644531 8.5625 12.765625 8.304688 12.664062 8.003906 C 12.628906 7.9375 12.691406 7.917969 12.738281 7.910156 C 13.082031 7.828125 13.421875 7.699219 13.695312 7.46875 C 13.765625 7.40625 13.824219 7.332031 13.871094 7.253906 C 14.023438 7 14.21875 6.777344 14.375 6.527344 C 14.621094 6.164062 14.667969 5.742188 14.757812 5.3125 C 14.863281 5.421875 14.769531 5.578125 14.925781 5.628906 C 15.039062 5.6875 15.082031 6.367188 15.125 6.527344 Z M 9.519531 2.855469 C 9.550781 2.320312 9.828125 1.855469 10.171875 1.457031 C 10.535156 1.101562 10.996094 0.835938 11.464844 0.636719 C 11.78125 0.53125 12.101562 0.414062 12.453125 0.457031 C 12.703125 0.484375 13.050781 0.410156 13.21875 0.652344 C 13.285156 0.671875 13.347656 0.722656 13.417969 0.683594 C 13.53125 0.511719 13.683594 0.410156 13.902344 0.425781 C 14.675781 0.472656 15.066406 1.304688 15.226562 1.964844 C 15.417969 2.902344 15.300781 3.863281 15.109375 4.789062 C 15.042969 5.050781 15.203125 5.304688 15.140625 5.570312 C 15.066406 5.566406 15.035156 5.484375 14.960938 5.496094 C 14.910156 5.5 14.90625 5.449219 14.894531 5.414062 C 14.859375 5.265625 14.902344 5.109375 14.882812 4.957031 C 14.878906 4.9375 14.914062 4.917969 14.925781 4.894531 C 15.167969 4.527344 15.265625 4.050781 15.054688 3.652344 C 14.851562 3.261719 14.378906 3.519531 14.355469 3.886719 C 14.292969 4.136719 14.355469 4.363281 14.253906 4.613281 C 13.761719 4.023438 13.632812 3.308594 12.816406 3.03125 C 12.65625 2.972656 12.535156 2.84375 12.378906 2.78125 C 12.324219 2.757812 12.328125 2.703125 12.3125 2.648438 C 12.101562 2.734375 12.464844 2.992188 12.566406 3.039062 C 12.726562 3.113281 12.890625 3.191406 13.046875 3.28125 C 13.304688 3.425781 13.492188 3.648438 13.632812 3.90625 C 13.785156 4.191406 13.980469 4.445312 14.160156 4.714844 C 14.21875 4.824219 14.367188 4.804688 14.375 4.675781 C 14.492188 4.335938 14.351562 3.929688 14.632812 3.652344 C 14.988281 3.351562 15.132812 4.09375 15.039062 4.332031 C 14.976562 4.484375 14.96875 4.675781 14.847656 4.792969 C 14.613281 5.015625 14.660156 5.410156 14.578125 5.703125 C 14.511719 6.078125 14.324219 6.398438 14.105469 6.703125 C 13.871094 6.992188 13.722656 7.394531 13.351562 7.535156 C 12.308594 8.03125 12.070312 7.820312 11.441406 6.933594 C 11.183594 6.570312 10.894531 6.226562 10.691406 5.824219 C 10.660156 5.769531 10.640625 5.699219 10.644531 5.632812 C 10.648438 5.355469 10.5625 5.082031 10.425781 4.847656 C 10.59375 4.753906 10.769531 4.769531 10.941406 4.75 C 11.105469 4.726562 11.214844 4.84375 11.234375 5.015625 C 11.273438 5.398438 11.296875 5.777344 11.316406 6.160156 C 11.328125 6.371094 11.511719 6.503906 11.714844 6.433594 C 11.882812 6.363281 12.097656 6.40625 12.21875 6.238281 C 12.238281 6.214844 12.25 6.179688 12.222656 6.148438 C 12.195312 6.117188 12.164062 6.125 12.136719 6.144531 C 11.996094 6.265625 11.804688 6.226562 11.644531 6.296875 C 11.546875 6.335938 11.453125 6.246094 11.425781 6.132812 C 11.382812 5.71875 11.378906 5.304688 11.304688 4.894531 C 11.277344 4.496094 10.855469 4.421875 10.53125 4.515625 C 10.4375 4.546875 10.308594 4.574219 10.328125 4.425781 C 10.359375 4.164062 10.425781 3.902344 10.507812 3.648438 C 10.519531 3.625 10.515625 3.59375 10.554688 3.582031 C 10.582031 3.625 10.5625 3.671875 10.5625 3.71875 C 10.550781 3.832031 10.691406 3.820312 10.699219 3.730469 C 10.757812 3.492188 10.832031 3.308594 10.996094 3.101562 C 11.03125 3.207031 10.945312 3.46875 11.039062 3.480469 C 11.089844 3.484375 11.105469 3.441406 11.113281 3.40625 C 11.15625 3.097656 11.574219 2.246094 11.855469 2.136719 C 11.824219 2.421875 11.683594 2.6875 11.570312 2.949219 C 11.507812 3.023438 11.617188 3.082031 11.652344 2.992188 C 11.800781 2.589844 11.996094 2.199219 12.3125 1.898438 C 12.359375 1.859375 12.410156 1.785156 12.472656 1.804688 C 12.574219 1.84375 12.4375 2.058594 12.558594 2.066406 C 12.574219 2.0625 12.582031 2.046875 12.582031 2.03125 C 12.566406 1.925781 12.628906 1.617188 12.4375 1.710938 C 12.21875 1.8125 12.121094 2.03125 11.949219 2.1875 C 11.898438 2.140625 11.96875 2.050781 11.890625 2.019531 C 11.859375 2.003906 11.828125 2.011719 11.796875 2.03125 C 11.976562 1.890625 12.167969 1.765625 12.375 1.664062 C 12.480469 1.613281 12.5625 1.488281 12.707031 1.554688 C 12.71875 1.558594 12.742188 1.550781 12.75 1.542969 C 12.777344 1.515625 12.789062 1.472656 12.75 1.460938 C 12.605469 1.425781 12.464844 1.34375 12.308594 1.394531 C 12.214844 1.429688 11.769531 1.574219 11.804688 1.6875 C 12.011719 1.621094 12.1875 1.464844 12.453125 1.488281 C 12.140625 1.75 11.589844 1.980469 11.429688 2.351562 C 11.554688 2.273438 11.609375 2.105469 11.765625 2.078125 C 11.476562 2.398438 11.304688 2.753906 11.113281 3.148438 C 11.085938 3.054688 11.0625 2.851562 10.949219 2.996094 C 10.828125 3.117188 10.804688 3.289062 10.699219 3.421875 C 10.65625 3.398438 10.671875 3.328125 10.601562 3.316406 C 10.40625 3.605469 10.339844 3.945312 10.265625 4.292969 C 10.1875 4.226562 10.207031 4.136719 10.21875 4.070312 C 10.316406 3.546875 10.433594 3.054688 10.777344 2.625 C 10.394531 2.933594 10.292969 3.445312 10.183594 3.902344 C 10.191406 3.9375 10.152344 4.011719 10.117188 3.953125 C 10.101562 3.925781 10.082031 3.902344 10.121094 3.871094 C 10.164062 3.839844 10.15625 3.78125 10.167969 3.734375 C 10.226562 3.453125 10.289062 3.171875 10.445312 2.921875 C 10.292969 2.824219 10.078125 3.699219 10.058594 3.824219 C 9.960938 3.738281 9.925781 3.660156 9.953125 3.550781 C 10.003906 3.386719 10.179688 2.628906 10.3125 2.585938 C 10.125 2.464844 9.941406 3.328125 9.894531 3.464844 C 9.820312 3.394531 9.808594 3.328125 9.832031 3.242188 C 9.914062 2.925781 9.972656 2.601562 10.113281 2.304688 C 10.117188 2.300781 10.109375 2.296875 10.097656 2.273438 C 9.90625 2.539062 9.882812 2.859375 9.753906 3.171875 C 9.660156 2.960938 9.957031 2.429688 10.066406 2.226562 C 10.070312 2.21875 10.066406 2.207031 10.0625 2.195312 C 9.929688 2.257812 9.828125 2.449219 9.636719 3.019531 C 9.542969 3 9.507812 2.949219 9.519531 2.855469 Z M 9.195312 10.648438 C 9.109375 10.746094 8.910156 10.527344 8.820312 10.488281 C 8.664062 10.433594 9.03125 10.089844 9.097656 9.988281 C 9.101562 10.148438 8.898438 10.1875 8.949219 10.359375 C 9.175781 10.230469 9.210938 9.957031 9.40625 9.800781 C 9.554688 9.714844 9.828125 9.503906 9.996094 9.574219 C 9.792969 9.808594 9.578125 10.023438 9.453125 10.3125 C 9.394531 10.445312 9.289062 10.539062 9.195312 10.648438 Z M 9.664062 10.5 C 9.789062 10.464844 9.886719 10.570312 9.769531 10.660156 C 9.699219 10.738281 9.65625 10.832031 9.628906 10.949219 C 9.527344 10.894531 9.445312 10.855469 9.367188 10.808594 C 9.277344 10.753906 9.28125 10.742188 9.359375 10.671875 C 9.445312 10.589844 9.539062 10.515625 9.664062 10.5 Z M 8.679688 10.351562 C 8.652344 10.378906 8.632812 10.363281 8.613281 10.34375 C 8.570312 10.269531 8.710938 10.222656 8.777344 10.199219 C 8.761719 10.273438 8.722656 10.3125 8.679688 10.351562 Z M 9.695312 9.503906 C 9.425781 9.683594 9.097656 9.78125 8.859375 10.003906 C 8.777344 10.085938 8.671875 10.136719 8.578125 10.199219 C 8.53125 10.230469 8.5 10.226562 8.464844 10.179688 C 8.171875 9.8125 8.132812 9.324219 8.121094 8.867188 C 8.363281 8.96875 8.539062 9.019531 8.578125 9.039062 C 8.914062 9.238281 9.371094 8.753906 9.589844 8.507812 C 9.675781 8.648438 9.753906 8.777344 9.835938 8.910156 C 9.839844 8.910156 9.847656 8.90625 9.851562 8.90625 C 9.8125 8.78125 9.777344 8.660156 9.738281 8.539062 C 9.695312 8.40625 9.699219 8.273438 9.785156 8.152344 C 9.929688 7.949219 9.988281 7.710938 10.066406 7.480469 C 10.355469 6.714844 9.875 6.347656 10.070312 5.910156 C 10.226562 5.570312 10.226562 5.210938 10.285156 4.84375 C 10.472656 5.007812 10.550781 5.335938 10.542969 5.574219 C 10.53125 5.699219 10.566406 5.8125 10.625 5.917969 C 10.761719 6.164062 10.898438 6.402344 11.078125 6.621094 C 11.511719 7.105469 11.769531 7.835938 12.472656 7.972656 C 12.550781 7.988281 12.597656 8.164062 12.535156 8.214844 C 12.445312 8.289062 12.382812 8.390625 12.292969 8.457031 C 12.167969 8.535156 12.1875 8.710938 12.039062 8.757812 C 11.425781 9.019531 10.800781 9.34375 10.160156 9.488281 C 10.003906 9.402344 9.84375 9.410156 9.695312 9.503906 Z M 9.964844 4.617188 C 10.21875 5.398438 9.761719 6.144531 9.636719 6.902344 C 9.605469 6.703125 9.640625 6.507812 9.6875 6.320312 C 9.8125 5.757812 9.988281 5.195312 9.964844 4.617188 Z M 9.636719 7.042969 C 9.648438 6.996094 9.664062 6.949219 9.636719 6.902344 C 9.699219 6.847656 9.695312 6.761719 9.722656 6.691406 C 9.773438 6.535156 9.820312 6.371094 9.867188 6.207031 C 10.1875 6.757812 10.054688 7.570312 9.664062 8.121094 C 9.621094 7.753906 9.550781 7.402344 9.636719 7.042969 Z M 9.730469 8.539062 C 9.710938 8.542969 9.714844 8.617188 9.675781 8.558594 C 9.644531 8.515625 9.648438 8.472656 9.644531 8.414062 C 9.703125 8.449219 9.6875 8.515625 9.730469 8.539062 Z M 9.339844 2.949219 C 9.265625 2.917969 9.203125 2.878906 9.167969 2.804688 C 9.246094 2.824219 9.289062 2.894531 9.339844 2.949219 Z M 9.160156 2.800781 C 9.109375 2.816406 9.074219 2.785156 9.03125 2.746094 C 9.097656 2.726562 9.136719 2.75 9.160156 2.800781 Z M 5.289062 3.03125 C 5.761719 2.496094 6.464844 2.160156 7.183594 2.257812 C 7.632812 2.269531 8.070312 2.339844 8.496094 2.472656 C 8.496094 2.484375 8.496094 2.496094 8.496094 2.507812 C 8.210938 2.488281 7.929688 2.460938 7.648438 2.519531 C 7.835938 2.535156 8.015625 2.582031 8.203125 2.574219 C 8.59375 2.574219 8.960938 2.777344 9.253906 3.015625 C 9.289062 3.054688 9.339844 3.066406 9.390625 3.066406 C 9.644531 3.089844 9.695312 3.390625 9.78125 3.582031 C 9.859375 3.671875 9.761719 3.835938 9.921875 3.855469 C 9.941406 3.859375 9.960938 3.894531 9.972656 3.917969 C 10.097656 4.136719 10.167969 4.363281 10.164062 4.617188 C 10.144531 4.957031 10.175781 5.320312 10.039062 5.636719 C 10.113281 5.238281 10.097656 4.847656 9.996094 4.457031 C 9.957031 4.304688 9.851562 4.175781 9.84375 4.015625 C 9.839844 3.972656 9.796875 3.976562 9.765625 3.972656 C 9.375 3.933594 8.859375 3.941406 8.527344 4.15625 C 8.542969 4.191406 8.570312 4.175781 8.59375 4.167969 C 8.824219 4.078125 9.066406 4.039062 9.3125 4.050781 C 9.464844 4.082031 9.742188 3.976562 9.796875 4.167969 C 10.089844 5.144531 9.546875 6.105469 9.542969 7.089844 C 9.53125 7.308594 9.539062 7.527344 9.554688 7.742188 C 9.570312 7.917969 9.664062 8.085938 9.621094 8.265625 C 9.519531 8.292969 9.472656 7.664062 9.460938 7.574219 C 9.34375 6.785156 9.566406 6.015625 9.648438 5.234375 C 9.652344 5.042969 9.742188 4.882812 9.707031 4.6875 C 9.332031 4.996094 8.902344 4.746094 8.484375 4.964844 C 8.652344 5 8.777344 4.941406 8.90625 4.941406 C 9.039062 4.941406 9.167969 4.941406 9.308594 4.941406 C 9.128906 5.164062 8.566406 5.347656 8.28125 5.425781 C 8.230469 5.4375 8.144531 5.429688 8.164062 5.503906 C 8.179688 5.5625 8.253906 5.53125 8.304688 5.515625 C 8.71875 5.410156 9.089844 5.195312 9.460938 5.007812 C 9.421875 5.167969 9.285156 5.285156 9.234375 5.4375 C 9.144531 5.71875 8.902344 5.761719 8.667969 5.828125 C 8.644531 5.832031 8.621094 5.835938 8.601562 5.828125 C 8.414062 5.765625 8.292969 5.898438 8.167969 5.988281 C 8.042969 6.078125 7.996094 6.234375 8 6.367188 C 8.027344 6.773438 7.957031 7.167969 7.828125 7.554688 C 7.691406 7.316406 7.667969 7.046875 7.523438 6.808594 C 7.492188 6.878906 7.535156 6.914062 7.542969 6.953125 C 7.597656 7.148438 7.640625 7.347656 7.707031 7.539062 C 7.765625 7.714844 7.726562 7.8125 7.574219 7.898438 C 7.484375 7.65625 7.4375 7.394531 7.261719 7.191406 C 7.308594 7.339844 7.355469 7.488281 7.402344 7.636719 C 7.410156 7.738281 7.570312 7.964844 7.410156 7.996094 C 7.355469 8.007812 7.308594 8.027344 7.285156 7.945312 C 7.234375 7.789062 7.148438 7.492188 7.019531 7.394531 C 6.980469 7.417969 7.003906 7.445312 7.015625 7.472656 C 7.082031 7.613281 7.132812 7.757812 7.171875 7.90625 C 7.183594 7.949219 7.222656 8 7.160156 8.035156 C 7.09375 8.074219 7.0625 8.015625 7.035156 7.96875 C 6.945312 7.792969 6.839844 7.625 6.777344 7.4375 C 6.765625 7.40625 6.769531 7.355469 6.703125 7.359375 C 6.722656 7.582031 6.839844 7.777344 6.9375 7.976562 C 6.972656 8.050781 6.957031 8.070312 6.878906 8.082031 C 6.792969 8.097656 6.734375 8.082031 6.695312 7.992188 C 6.636719 7.84375 6.5625 7.703125 6.484375 7.566406 C 6.503906 7.757812 6.601562 7.921875 6.65625 8.097656 C 6.609375 8.144531 6.558594 8.121094 6.511719 8.128906 C 6.476562 8.136719 6.464844 8.117188 6.449219 8.09375 C 6.285156 7.910156 6.148438 7.707031 6.027344 7.492188 C 6.023438 7.488281 6.007812 7.488281 5.984375 7.476562 C 6.066406 7.71875 6.179688 7.929688 6.320312 8.140625 C 6.023438 8.230469 5.910156 7.945312 5.800781 7.742188 C 5.664062 7.644531 5.679688 7.492188 5.675781 7.351562 C 5.667969 7.15625 5.636719 6.960938 5.65625 6.761719 C 5.664062 6.703125 5.632812 6.605469 5.714844 6.597656 C 5.785156 6.589844 5.777344 6.683594 5.800781 6.738281 C 5.867188 6.914062 5.933594 7.097656 6 7.273438 C 6.011719 7.304688 6.019531 7.339844 6.070312 7.347656 C 6.085938 7.191406 5.757812 6.554688 5.894531 6.515625 C 5.953125 6.488281 5.988281 6.519531 6.015625 6.566406 C 6.09375 6.695312 6.199219 6.8125 6.242188 6.960938 C 6.25 6.984375 6.265625 6.996094 6.296875 6.996094 C 6.300781 6.816406 6.167969 6.667969 6.09375 6.511719 C 6.066406 6.460938 6.078125 6.429688 6.121094 6.398438 C 6.164062 6.371094 6.203125 6.34375 6.25 6.390625 C 6.367188 6.496094 6.484375 6.601562 6.601562 6.710938 C 6.65625 6.78125 6.726562 6.71875 6.660156 6.65625 C 6.5625 6.558594 6.464844 6.464844 6.367188 6.371094 C 6.3125 6.320312 6.308594 6.277344 6.347656 6.203125 C 6.484375 5.929688 6.519531 6.003906 6.683594 6.109375 C 6.8125 6.1875 6.929688 6.28125 7.074219 6.347656 C 7.089844 6.277344 7.042969 6.261719 7.011719 6.238281 C 6.875 6.132812 6.746094 6.027344 6.59375 5.945312 C 6.527344 5.90625 6.523438 5.863281 6.542969 5.796875 C 6.621094 5.324219 6.984375 5.679688 7.300781 5.5625 C 7.320312 5.554688 7.34375 5.546875 7.34375 5.507812 C 7.265625 5.472656 7.179688 5.527344 7.097656 5.503906 C 6.96875 5.480469 6.808594 5.488281 6.703125 5.410156 C 6.613281 5.34375 6.664062 5.195312 6.628906 5.089844 C 6.605469 5.015625 6.632812 4.976562 6.710938 4.964844 C 7.039062 4.917969 7.378906 4.917969 7.675781 4.75 C 7.695312 4.742188 7.714844 4.726562 7.714844 4.691406 C 7.660156 4.65625 7.609375 4.703125 7.574219 4.71875 C 7.351562 4.816406 7.117188 4.828125 6.882812 4.839844 C 6.78125 4.824219 6.597656 4.90625 6.550781 4.800781 C 6.480469 4.675781 6.480469 4.664062 6.601562 4.582031 C 6.804688 4.433594 7.007812 4.289062 7.214844 4.140625 C 7.238281 4.125 7.261719 4.113281 7.253906 4.078125 C 7.230469 4.046875 7.210938 4.074219 7.1875 4.089844 C 6.976562 4.222656 6.765625 4.363281 6.554688 4.492188 C 6.40625 4.605469 6.386719 4.480469 6.316406 4.359375 C 6.527344 4.199219 6.746094 4.046875 6.894531 3.792969 C 6.824219 3.796875 6.796875 3.839844 6.765625 3.871094 C 6.691406 3.9375 6.292969 4.355469 6.222656 4.222656 C 5.957031 3.957031 6.613281 3.765625 6.730469 3.574219 C 6.703125 3.546875 6.679688 3.550781 6.660156 3.5625 C 6.488281 3.679688 6.316406 3.792969 6.148438 3.914062 C 6.085938 3.957031 6.046875 3.972656 5.984375 3.90625 C 5.867188 3.773438 5.867188 3.769531 5.96875 3.613281 C 6.054688 3.492188 6.140625 3.367188 6.25 3.246094 C 6.054688 3.273438 5.996094 3.480469 5.878906 3.605469 C 5.808594 3.707031 5.8125 3.699219 5.699219 3.664062 C 5.554688 3.617188 5.585938 3.589844 5.621094 3.488281 C 5.664062 3.371094 5.722656 3.257812 5.804688 3.160156 C 5.832031 3.128906 5.863281 3.097656 5.863281 3.039062 C 5.710938 3.058594 5.585938 3.378906 5.519531 3.507812 C 5.496094 3.5625 5.484375 3.589844 5.417969 3.566406 C 5.207031 3.511719 5.601562 3.039062 5.648438 2.917969 C 5.476562 3.035156 5.375 3.207031 5.289062 3.386719 C 5.238281 3.488281 5.152344 3.515625 5.035156 3.464844 C 5.097656 3.308594 5.175781 3.160156 5.289062 3.03125 Z M 9.078125 6.269531 C 9.078125 6.308594 9.078125 6.355469 9.035156 6.378906 C 9.039062 6.1875 8.921875 6.359375 8.828125 6.292969 C 8.800781 6.277344 8.769531 6.257812 8.777344 6.21875 C 8.78125 6.1875 8.8125 6.179688 8.839844 6.179688 C 8.890625 6.167969 9.007812 6.132812 9 6.070312 C 8.929688 5.964844 8.765625 6.230469 8.539062 5.933594 C 8.742188 5.929688 8.921875 5.886719 9.089844 5.773438 C 9.039062 5.945312 9.066406 6.105469 9.078125 6.269531 Z M 8.910156 6.433594 C 8.953125 6.402344 8.980469 6.375 9.03125 6.382812 C 9.03125 6.464844 8.996094 6.480469 8.910156 6.433594 Z M 5.710938 7.695312 C 5.816406 7.816406 5.828125 7.96875 5.917969 8.117188 C 5.695312 8.039062 5.6875 8.039062 5.703125 7.851562 C 5.703125 7.804688 5.6875 7.757812 5.710938 7.695312 Z M 4.019531 12.101562 C 3.675781 12 3.394531 11.785156 3.074219 11.636719 C 3.179688 11.390625 3.914062 10.667969 4.246094 10.535156 C 4.292969 10.609375 4.257812 10.695312 4.273438 10.78125 C 4.285156 10.761719 4.292969 10.757812 4.292969 10.75 C 4.246094 10.351562 4.550781 10.324219 4.785156 10.089844 C 5.097656 9.808594 5.320312 9.441406 5.484375 9.054688 C 5.628906 8.738281 5.574219 8.425781 5.554688 8.09375 C 5.628906 8.132812 5.609375 8.199219 5.609375 8.25 C 5.605469 8.558594 5.621094 8.863281 5.625 9.167969 C 5.65625 10.324219 5.84375 11.457031 5.882812 12.609375 C 5.550781 12.585938 5.257812 12.480469 4.953125 12.425781 C 4.859375 12.40625 4.890625 12.335938 4.875 12.269531 C 4.835938 12.324219 4.808594 12.378906 4.726562 12.34375 C 4.578125 12.285156 4.429688 12.238281 4.277344 12.191406 C 4.195312 12.167969 4.140625 12.132812 4.175781 12 C 4.105469 12.132812 4.105469 12.136719 4.019531 12.101562 Z M 4.339844 6.554688 C 4.363281 6.714844 4.230469 6.625 4.144531 6.585938 C 4.179688 6.488281 4.238281 6.417969 4.316406 6.34375 C 4.363281 6.425781 4.335938 6.488281 4.339844 6.554688 Z M 4.726562 4.992188 C 4.863281 5.046875 4.84375 5.046875 4.84375 5.191406 C 4.847656 5.554688 4.667969 5.835938 4.410156 6.074219 C 4.425781 5.824219 4.480469 5.601562 4.515625 5.378906 C 4.527344 5.324219 4.613281 5.308594 4.566406 5.230469 C 4.539062 5.179688 4.570312 5.113281 4.589844 5.058594 C 4.625 4.957031 4.628906 4.953125 4.726562 4.992188 Z M 4.691406 4.757812 C 4.726562 4.695312 4.738281 4.621094 4.828125 4.644531 C 4.953125 4.648438 4.953125 4.652344 4.925781 4.765625 C 4.917969 4.792969 4.914062 4.820312 4.90625 4.84375 C 4.886719 4.890625 4.914062 4.988281 4.808594 4.949219 C 4.652344 4.894531 4.636719 4.855469 4.691406 4.757812 Z M 4.480469 5.183594 C 4.414062 5.128906 4.359375 5.082031 4.304688 5.039062 C 4.15625 4.953125 4.21875 4.882812 4.289062 4.765625 C 4.34375 4.757812 4.359375 4.800781 4.390625 4.816406 C 4.589844 4.945312 4.589844 4.945312 4.480469 5.183594 Z M 4.628906 4.6875 C 4.621094 4.726562 4.601562 4.765625 4.585938 4.8125 C 4.5 4.792969 4.375 4.734375 4.371094 4.660156 C 4.410156 4.585938 4.480469 4.601562 4.542969 4.601562 C 4.59375 4.605469 4.644531 4.617188 4.632812 4.6875 Z M 4.148438 4.871094 C 3.757812 4.714844 4.433594 4.539062 4.171875 4.472656 C 4.257812 4.4375 4.261719 4.441406 4.378906 4.515625 C 4.230469 4.589844 4.210938 4.742188 4.148438 4.871094 Z M 3.933594 5.746094 C 3.816406 5.683594 3.753906 5.609375 3.808594 5.472656 C 3.839844 5.382812 3.816406 5.269531 3.925781 5.21875 C 3.929688 5.214844 3.933594 5.199219 3.929688 5.195312 C 3.847656 5.0625 3.957031 4.957031 3.980469 4.835938 C 4.109375 4.925781 4.109375 4.9375 4.078125 5.070312 C 4.035156 5.261719 3.976562 5.449219 3.980469 5.644531 C 3.949219 5.667969 3.941406 5.707031 3.9375 5.746094 Z M 3.890625 4.976562 C 3.878906 5.140625 3.734375 5.03125 3.738281 4.925781 C 3.8125 4.734375 3.925781 4.476562 4.160156 4.476562 C 4.023438 4.617188 3.925781 4.777344 3.890625 4.976562 Z M 3.804688 5.28125 C 3.789062 5.367188 3.769531 5.449219 3.746094 5.546875 C 3.511719 5.421875 3.648438 5.242188 3.691406 5.058594 C 3.785156 5.113281 3.824219 5.1875 3.804688 5.28125 Z M 3.699219 5.871094 C 3.714844 5.859375 3.726562 5.847656 3.734375 5.824219 C 3.785156 5.578125 3.878906 5.890625 4.089844 5.984375 C 4.152344 6.019531 4.179688 6.066406 4.164062 6.132812 C 4.140625 6.242188 4.164062 6.363281 4.085938 6.460938 C 4.046875 6.511719 4.007812 6.523438 3.964844 6.484375 C 3.863281 6.382812 3.738281 6.300781 3.671875 6.164062 C 3.398438 5.90625 3.535156 5.847656 3.558594 5.519531 C 3.699219 5.574219 3.757812 5.671875 3.699219 5.871094 Z M 4.175781 6.332031 C 4.1875 6.253906 4.199219 6.183594 4.210938 6.117188 C 4.242188 6.09375 4.269531 6.121094 4.296875 6.128906 C 4.402344 6.167969 4.238281 6.308594 4.175781 6.332031 Z M 4.226562 5.929688 C 4.234375 5.710938 4.269531 5.496094 4.273438 5.277344 C 4.207031 5.496094 4.210938 5.726562 4.171875 5.953125 C 3.964844 5.847656 3.953125 5.832031 3.984375 5.640625 C 3.984375 5.644531 3.980469 5.644531 3.980469 5.644531 C 4.058594 5.4375 4.082031 5.238281 4.160156 5.03125 C 4.289062 5.070312 4.359375 5.175781 4.460938 5.234375 C 4.496094 5.257812 4.476562 5.296875 4.472656 5.324219 C 4.433594 5.574219 4.378906 5.824219 4.359375 6.085938 C 4.261719 6.066406 4.222656 6.027344 4.226562 5.929688 Z M 4.367188 6.382812 C 4.386719 6.175781 4.648438 5.960938 4.777344 5.757812 C 4.832031 5.914062 4.710938 6.039062 4.808594 6.179688 C 4.707031 6.273438 4.609375 6.371094 4.507812 6.464844 C 4.417969 6.574219 4.335938 6.507812 4.367188 6.382812 Z M 4.773438 6.339844 C 4.867188 6.222656 4.972656 6.101562 5.023438 5.941406 C 4.9375 5.988281 4.890625 6.042969 4.808594 6.179688 C 4.769531 5.625 4.921875 5.578125 5.136719 5.125 C 5.019531 5.207031 4.984375 5.355469 4.867188 5.460938 C 4.890625 5.359375 4.867188 5.125 4.929688 5.085938 C 4.972656 5.078125 5 5.074219 4.96875 5.015625 C 4.914062 4.914062 4.976562 4.824219 5.019531 4.738281 C 5.136719 4.59375 5.207031 4.878906 5.210938 4.964844 C 5.226562 5.214844 5.289062 5.460938 5.296875 5.710938 C 5.335938 5.90625 5.113281 5.960938 5.261719 6.039062 C 5.359375 6.082031 5.3125 6.171875 5.332031 6.238281 C 5.332031 6.246094 5.308594 6.273438 5.304688 6.273438 C 5.097656 6.21875 5.097656 6.898438 4.433594 6.65625 C 4.542969 6.539062 4.6875 6.457031 4.773438 6.34375 Z M 6.414062 5.203125 C 6.371094 5.195312 6.363281 5.242188 6.359375 5.269531 C 6.285156 5.628906 6.027344 5.863281 5.796875 6.121094 C 5.765625 6.15625 5.726562 6.226562 5.667969 6.171875 C 5.625 6.128906 5.660156 6.070312 5.699219 6.023438 C 5.84375 5.867188 5.976562 5.703125 6.101562 5.527344 C 6.269531 5.304688 6.34375 5.078125 6.460938 4.824219 C 6.53125 5.007812 6.542969 5.167969 6.5625 5.332031 C 6.476562 5.433594 6.539062 5.574219 6.472656 5.6875 C 6.410156 5.800781 6.375 5.929688 6.320312 6.046875 C 6.214844 6.269531 5.957031 6.335938 5.753906 6.441406 C 5.621094 6.5 5.671875 6.285156 5.746094 6.253906 C 6.039062 5.992188 6.386719 5.707031 6.441406 5.292969 C 6.445312 5.261719 6.476562 5.210938 6.414062 5.203125 Z M 6.328125 4.886719 C 6.195312 5.316406 5.929688 5.597656 5.65625 5.960938 C 5.640625 5.800781 5.617188 5.679688 5.707031 5.5625 C 5.933594 5.226562 6.128906 4.882812 6.238281 4.484375 C 6.367188 4.609375 6.371094 4.734375 6.328125 4.886719 Z M 6.132812 4.457031 C 6.109375 4.625 6.046875 4.78125 5.96875 4.933594 C 5.871094 5.113281 5.792969 5.304688 5.652344 5.464844 C 5.585938 5.324219 5.585938 5.089844 5.660156 4.984375 C 5.835938 4.730469 5.953125 4.453125 5.953125 4.136719 C 5.953125 4.121094 5.96875 4.109375 5.976562 4.085938 C 6.101562 4.183594 6.160156 4.300781 6.132812 4.457031 Z M 5.863281 4.03125 C 5.832031 4.363281 5.816406 4.664062 5.574219 4.933594 C 5.355469 4.648438 5.820312 4.445312 5.824219 3.921875 C 5.898438 3.960938 5.902344 3.960938 5.863281 4.03125 Z M 5.414062 6.542969 C 5.28125 6.476562 5.578125 6.355469 5.566406 6.457031 C 5.558594 6.503906 5.460938 6.5625 5.414062 6.542969 Z M 5.554688 7.054688 C 5.542969 7.054688 5.53125 7.058594 5.523438 7.058594 C 5.5 6.953125 5.3125 6.671875 5.515625 6.667969 C 5.589844 6.660156 5.539062 6.988281 5.554688 7.054688 Z M 5.527344 5.8125 C 5.546875 5.96875 5.566406 6.113281 5.402344 6.191406 C 5.308594 6 5.332031 5.929688 5.527344 5.8125 Z M 5.339844 6.554688 C 5.285156 6.644531 5.183594 6.636719 5.074219 6.648438 C 5.121094 6.53125 5.191406 6.445312 5.257812 6.34375 C 5.328125 6.414062 5.386719 6.476562 5.339844 6.554688 Z M 5.257812 4.753906 C 5.496094 4.683594 5.507812 5.414062 5.535156 5.570312 C 5.546875 5.683594 5.460938 5.734375 5.351562 5.800781 C 5.316406 5.429688 5.289062 5.089844 5.257812 4.753906 Z M 5.484375 6.363281 C 5.371094 6.410156 5.480469 6.226562 5.539062 6.226562 C 5.554688 6.21875 5.5625 6.242188 5.566406 6.257812 C 5.578125 6.324219 5.527344 6.339844 5.484375 6.363281 Z M 5.703125 4.085938 C 5.667969 4.238281 5.613281 4.386719 5.515625 4.515625 C 5.417969 4.640625 5.421875 4.640625 5.257812 4.59375 C 5.433594 4.34375 5.632812 4.109375 5.667969 3.789062 C 5.710938 3.886719 5.726562 3.984375 5.703125 4.085938 Z M 5.152344 6.769531 C 5.234375 6.761719 5.339844 6.695312 5.355469 6.828125 C 5.523438 7.351562 5.617188 7.265625 5.601562 7.898438 L 5.566406 7.910156 C 5.339844 7.617188 5.203125 7.253906 5.066406 6.910156 C 5.03125 6.804688 5.039062 6.792969 5.152344 6.769531 Z M 3.984375 3.71875 C 4.148438 3.65625 4.3125 3.554688 4.480469 3.691406 C 4.679688 3.859375 4.902344 4 5.066406 4.207031 C 5.074219 4.21875 5.089844 4.226562 5.128906 4.207031 C 4.984375 3.964844 4.761719 3.804688 4.550781 3.625 C 5.03125 3.421875 5.183594 4.074219 5.332031 4.003906 C 5.257812 3.855469 5.132812 3.742188 5.015625 3.59375 C 5.167969 3.632812 5.515625 3.613281 5.511719 3.796875 C 5.511719 4.003906 5.433594 4.183594 5.3125 4.339844 C 5.09375 4.628906 5.132812 4.570312 4.824219 4.539062 C 4.488281 4.503906 4.269531 4.3125 4.089844 4.050781 C 4.046875 3.972656 3.835938 3.773438 3.984375 3.71875 Z M 3.546875 3.992188 C 3.621094 3.910156 3.710938 3.851562 3.816406 3.796875 C 3.90625 3.980469 4.050781 4.128906 4.1875 4.3125 C 4.03125 4.289062 3.957031 4.378906 3.871094 4.46875 C 3.632812 4.300781 3.675781 4.007812 3.59375 4.050781 C 3.484375 4.085938 3.695312 4.40625 3.746094 4.457031 C 3.824219 4.519531 3.824219 4.578125 3.757812 4.648438 C 3.710938 4.699219 3.710938 4.78125 3.652344 4.832031 C 3.449219 4.605469 3.28125 4.230469 3.546875 3.992188 Z M 3.339844 4.378906 C 3.476562 4.949219 3.71875 4.683594 3.53125 5.277344 C 3.285156 5.078125 3.207031 4.726562 3.339844 4.378906 Z M 3.273438 5.101562 C 3.503906 5.289062 3.5 5.503906 3.421875 5.769531 C 3.332031 5.539062 3.28125 5.335938 3.273438 5.101562 Z M 2.316406 23.875 C 2.3125 23.894531 2.300781 23.914062 2.273438 23.925781 C 2.09375 23.636719 2.078125 23.269531 1.976562 22.949219 C 1.925781 22.625 1.554688 22.558594 1.546875 22.234375 C 1.398438 21.328125 0.5 22.410156 0.699219 20.582031 C 1.023438 18.195312 1.535156 15.839844 1.925781 13.464844 C 2.363281 11.015625 2.65625 8.480469 3.464844 6.132812 C 3.527344 6.226562 3.628906 6.292969 3.625 6.429688 C 3.644531 6.417969 3.636719 6.375 3.671875 6.394531 C 3.808594 6.46875 3.890625 6.613281 4.035156 6.671875 C 4.105469 6.710938 4.0625 6.816406 4.074219 6.886719 C 4.148438 6.875 4.046875 6.714844 4.21875 6.765625 C 4.414062 6.824219 4.613281 6.855469 4.816406 6.828125 C 4.90625 6.8125 4.945312 6.84375 4.976562 6.917969 C 5.074219 7.160156 5.179688 7.402344 5.28125 7.640625 C 5.3125 7.710938 5.335938 7.789062 5.382812 7.847656 C 5.429688 7.910156 5.386719 7.976562 5.40625 8.035156 C 5.464844 8.207031 5.4375 8.390625 5.476562 8.570312 C 5.554688 9.070312 4.792969 10.148438 4.335938 10.273438 L 4.335938 9.851562 C 4.324219 9.851562 4.316406 9.851562 4.304688 9.851562 C 4.277344 10.042969 4.382812 10.300781 4.191406 10.429688 C 3.976562 10.589844 3.769531 10.757812 3.554688 10.914062 C 3.035156 11.429688 2.40625 12.085938 2.605469 12.882812 C 2.773438 13.882812 3.078125 14.863281 3.546875 15.761719 C 3.617188 15.902344 3.664062 16.054688 3.707031 16.207031 C 3.769531 16.402344 3.886719 16.570312 3.953125 16.761719 C 4.125 17.164062 3.527344 17.394531 3.804688 17.761719 C 3.925781 17.914062 3.628906 18.101562 3.753906 18.359375 C 3.796875 18.472656 3.851562 18.574219 3.960938 18.648438 C 4.070312 18.71875 4.074219 18.726562 4.011719 18.839844 C 3.941406 18.964844 3.921875 19.109375 3.863281 19.238281 C 3.183594 20.722656 2.78125 22.3125 2.316406 23.875 Z M 5.136719 17.496094 C 5.09375 17.5625 4.988281 17.582031 4.867188 17.523438 C 4.761719 17.464844 4.570312 17.417969 4.585938 17.265625 C 4.5625 17.277344 4.574219 17.34375 4.519531 17.308594 C 4.394531 17.222656 4.269531 17.132812 4.132812 17.058594 C 4.082031 17.03125 4.109375 16.980469 4.101562 16.941406 C 4.121094 16.71875 4.199219 16.6875 4.378906 16.75 C 4.617188 16.835938 5.257812 17.195312 5.136719 17.496094 Z M 5.113281 17.84375 C 5.046875 17.796875 5.015625 17.730469 4.953125 17.660156 C 5.03125 17.65625 5.085938 17.65625 5.140625 17.671875 C 5.15625 17.734375 5.128906 17.78125 5.113281 17.84375 Z M 4.421875 17.34375 C 4.644531 17.558594 5.007812 17.816406 5.113281 18.109375 C 5.152344 18.207031 5.027344 18.320312 4.9375 18.25 C 4.808594 18.148438 4.640625 18.09375 4.558594 17.929688 C 4.53125 17.878906 4.453125 17.859375 4.402344 17.8125 C 4.34375 17.773438 4.042969 17.46875 4 17.546875 C 3.957031 17.601562 4.109375 17.679688 4.144531 17.71875 C 4.28125 17.808594 4.398438 17.917969 4.492188 18.058594 C 4.5625 18.164062 4.644531 18.257812 4.765625 18.3125 C 4.851562 18.335938 5.003906 18.621094 4.839844 18.601562 C 4.578125 18.535156 4.417969 18.269531 4.152344 18.195312 C 3.878906 18.183594 4.460938 18.542969 4.511719 18.574219 C 4.589844 18.628906 4.730469 18.761719 4.691406 18.863281 C 4.574219 18.945312 4.257812 18.636719 4.117188 18.597656 C 4.027344 18.554688 3.949219 18.5 3.902344 18.40625 C 3.773438 18.1875 3.890625 18.070312 3.945312 17.863281 C 3.949219 17.792969 3.957031 17.734375 3.898438 17.675781 C 3.71875 17.476562 4.035156 17.296875 4.085938 17.097656 C 4.1875 17.203125 4.316406 17.257812 4.421875 17.34375 Z M 6.023438 14.375 C 6.152344 15.679688 6.226562 16.988281 6.363281 18.292969 C 6.425781 18.890625 6.445312 19.492188 6.554688 20.082031 C 6.609375 20.382812 6.625 20.691406 6.578125 20.996094 C 6.472656 21.261719 6.40625 21.535156 6.382812 21.816406 C 6.300781 22.351562 6.1875 22.878906 6.164062 23.421875 C 6.160156 23.582031 6.148438 23.589844 5.980469 23.597656 C 5.796875 23.601562 5.625 23.5625 5.464844 23.472656 C 5.34375 23.410156 5.339844 23.414062 5.273438 23.539062 C 5.082031 23.824219 4.90625 23.609375 4.699219 23.636719 C 4.625 23.664062 4.632812 23.753906 4.601562 23.8125 C 4.507812 24 4.308594 24.070312 4.113281 23.984375 C 3.953125 23.914062 3.8125 23.808594 3.691406 23.683594 C 3.554688 23.546875 3.394531 23.460938 3.210938 23.414062 C 3.027344 23.363281 2.96875 23.390625 2.847656 23.539062 C 2.742188 23.679688 2.648438 23.832031 2.503906 23.933594 C 2.433594 23.992188 2.351562 23.957031 2.40625 23.855469 C 2.921875 22.140625 3.390625 20.390625 4.183594 18.78125 C 4.324219 18.832031 4.40625 18.960938 4.550781 18.996094 C 4.722656 19.027344 4.796875 18.984375 4.824219 18.804688 C 4.832031 18.761719 4.835938 18.746094 4.886719 18.734375 C 5.015625 18.707031 5.035156 18.675781 5.019531 18.546875 C 5.015625 18.515625 5.003906 18.484375 5.003906 18.449219 C 5 18.398438 5.042969 18.390625 5.082031 18.386719 C 5.117188 18.382812 5.117188 18.417969 5.121094 18.445312 C 5.070312 19.195312 5.0625 19.953125 5.050781 20.707031 C 5.050781 20.816406 5.058594 20.941406 5 21.042969 C 4.953125 21.117188 5.070312 21.117188 5.054688 21.183594 C 5.023438 21.570312 5.054688 21.957031 5.042969 22.34375 C 5.109375 22.183594 5.074219 22.023438 5.082031 21.867188 C 5.09375 21.640625 5.101562 21.410156 5.09375 21.179688 C 5.0625 20.910156 5.171875 20.671875 5.222656 20.417969 C 5.148438 20.453125 5.175781 20.542969 5.117188 20.609375 C 5.074219 20.507812 5.097656 20.410156 5.101562 20.324219 C 5.132812 19.699219 5.132812 19.070312 5.160156 18.441406 C 5.15625 18.273438 5.308594 18.25 5.21875 18.058594 C 5.074219 17.742188 5.34375 17.585938 5.261719 17.332031 C 5.148438 17.113281 5.246094 16.878906 5.207031 16.644531 C 5.164062 16.785156 5.214844 16.941406 5.144531 17.082031 C 5.082031 17.078125 5.042969 17.035156 5.007812 16.996094 C 4.285156 16.300781 4.121094 16.855469 3.925781 16.375 C 3.410156 15.1875 2.839844 14.003906 2.699219 12.699219 C 2.621094 12.535156 2.832031 11.609375 3.070312 11.785156 C 3.171875 11.855469 3.3125 11.859375 3.382812 11.984375 C 3.390625 11.996094 3.421875 12 3.441406 12.007812 C 3.617188 12.078125 3.792969 12.152344 3.972656 12.222656 C 4.148438 12.28125 4.117188 12.324219 4.089844 12.496094 C 4.175781 12.453125 4.0625 12.25 4.292969 12.335938 C 4.4375 12.386719 4.582031 12.433594 4.726562 12.484375 C 4.769531 12.496094 4.828125 12.492188 4.832031 12.5625 C 4.835938 12.609375 4.855469 12.574219 4.867188 12.5625 C 4.894531 12.523438 4.925781 12.550781 4.953125 12.558594 C 5.226562 12.617188 5.492188 12.710938 5.769531 12.726562 C 5.898438 12.734375 5.90625 12.746094 5.917969 12.875 C 5.953125 13.375 6 13.875 6.023438 14.375 Z M 10.542969 12.390625 C 10.3125 12.546875 10.054688 12.605469 9.785156 12.628906 C 9.382812 12.660156 8.984375 12.71875 8.582031 12.734375 C 7.753906 12.746094 6.925781 12.792969 6.105469 12.648438 C 6.015625 12.632812 5.976562 12.597656 5.976562 12.5 C 5.914062 11.386719 5.753906 10.28125 5.714844 9.167969 C 5.703125 7.585938 5.476562 8.5 6.691406 8.230469 C 6.96875 8.199219 7.242188 8.175781 7.515625 8.117188 C 7.613281 8.105469 7.671875 8.019531 7.722656 7.949219 C 7.964844 7.652344 8.039062 7.28125 8.085938 6.90625 C 8.160156 6.925781 8.167969 6.980469 8.191406 7.015625 C 8.421875 7.421875 8.671875 7.183594 8.707031 7.429688 C 8.769531 7.625 8.683594 7.84375 8.792969 8.023438 C 8.761719 7.847656 8.898438 7.152344 8.617188 7.175781 C 8.464844 7.203125 8.375 7.117188 8.296875 7.003906 C 8.078125 6.691406 8.125 6.371094 8.277344 6.144531 C 8.359375 6.015625 8.425781 6.058594 8.507812 6.15625 C 8.738281 6.195312 8.746094 6.605469 9.011719 6.570312 C 9.140625 6.542969 9.132812 6.351562 9.144531 6.246094 C 9.101562 5.957031 9.1875 5.695312 9.316406 5.445312 C 9.410156 5.292969 9.511719 4.96875 9.648438 4.875 C 9.582031 5.753906 9.292969 6.613281 9.410156 7.5 C 9.4375 7.773438 9.457031 8.042969 9.527344 8.308594 C 9.539062 8.347656 9.53125 8.378906 9.507812 8.414062 C 9.304688 8.675781 8.957031 9.039062 8.59375 8.921875 C 8.421875 8.835938 8.125 8.820312 8.105469 8.582031 C 8.105469 8.5 8.085938 8.417969 8.078125 8.335938 C 8.070312 8.300781 8.074219 8.25 8.015625 8.261719 C 7.964844 8.269531 7.976562 8.320312 7.984375 8.355469 C 8.03125 8.75 8.027344 9.148438 8.070312 9.546875 C 8.328125 11.011719 10.238281 11.128906 11.277344 11.886719 C 11 12.035156 10.78125 12.226562 10.542969 12.390625 Z M 9.882812 11.066406 C 9.628906 10.996094 9.789062 10.808594 9.902344 10.671875 C 10.042969 10.453125 9.746094 10.367188 9.566406 10.402344 C 9.703125 9.953125 10.082031 9.648438 10.511719 9.515625 C 11.015625 9.339844 11.511719 9.136719 11.996094 8.910156 C 12.105469 8.859375 12.121094 8.867188 12.105469 8.984375 C 12.09375 9.074219 12.113281 9.15625 12.117188 9.246094 C 12.117188 9.832031 12.007812 10.410156 11.921875 10.984375 C 11.902344 11.109375 11.910156 11.117188 12.039062 11.140625 C 12.238281 11.175781 12.4375 11.207031 12.632812 11.246094 C 12.761719 11.269531 12.769531 11.300781 12.699219 11.410156 C 12.597656 11.628906 12.269531 11.769531 12.398438 12.042969 C 13.070312 13.398438 13.542969 14.855469 14.25 16.1875 C 14.265625 16.089844 14.21875 16.015625 14.183594 15.9375 C 13.972656 15.453125 13.765625 14.964844 13.542969 14.484375 C 13.316406 13.960938 13.167969 13.40625 12.902344 12.898438 C 12.773438 12.601562 12.640625 12.300781 12.519531 12 C 12.480469 11.910156 12.503906 11.84375 12.5625 11.777344 C 12.675781 11.617188 12.855469 11.476562 12.878906 11.273438 C 12.890625 11.152344 12.867188 11.132812 12.746094 11.117188 C 12.546875 11.085938 12.347656 11.054688 12.148438 11.019531 C 12.03125 10.996094 12.027344 10.988281 12.042969 10.863281 C 12.109375 10.289062 12.226562 9.71875 12.214844 9.136719 C 12.191406 8.816406 12.28125 8.539062 12.578125 8.359375 C 12.472656 9.300781 12.835938 10.191406 13.015625 11.101562 C 13.058594 11.261719 13.058594 11.441406 13.164062 11.582031 C 13.171875 11.59375 13.175781 11.613281 13.175781 11.628906 C 13.191406 12.03125 13.363281 12.390625 13.464844 12.769531 C 13.644531 13.375 13.785156 14.007812 14.023438 14.59375 C 13.902344 13.738281 13.53125 12.929688 13.351562 12.082031 C 13.449219 12.15625 13.507812 12.253906 13.566406 12.347656 C 13.804688 12.726562 14.078125 13.070312 14.390625 13.382812 C 14.46875 13.445312 14.460938 13.589844 14.570312 13.601562 C 14.617188 13.601562 14.609375 13.5625 14.617188 13.53125 C 14.835938 12.898438 15.152344 12.304688 15.433594 11.695312 C 15.519531 11.507812 15.597656 11.316406 15.679688 11.125 C 15.695312 11.089844 15.703125 11.042969 15.757812 11 C 15.691406 12.460938 15.34375 13.878906 15.175781 15.324219 C 15.171875 15.421875 15.140625 15.488281 15.082031 15.558594 C 14.652344 15.992188 14.242188 16.445312 13.882812 16.9375 C 13.832031 16.933594 13.835938 16.894531 13.824219 16.867188 C 13.554688 16.1875 13.273438 15.511719 12.980469 14.84375 C 12.625 14.046875 12.21875 13.273438 11.902344 12.457031 C 11.84375 12.296875 11.710938 12.164062 11.722656 11.976562 C 11.148438 11.625 10.519531 11.304688 9.882812 11.066406 Z M 17.398438 15.003906 C 16.484375 16.359375 15.300781 17.523438 14.453125 18.929688 C 14.1875 19.359375 13.761719 19.804688 13.207031 19.683594 C 13.097656 19.664062 13.015625 19.585938 12.9375 19.507812 C 12.136719 18.675781 11.664062 17.605469 11.03125 16.652344 C 10.171875 15.332031 10.53125 13.519531 11.460938 12.324219 C 11.507812 12.238281 11.628906 12.148438 11.695312 12.269531 C 12.34375 13.757812 13.050781 15.226562 13.648438 16.738281 C 13.804688 17.164062 13.945312 17.597656 14.121094 18.015625 C 14.140625 18.089844 14.25 18.054688 14.203125 17.980469 C 14.074219 17.722656 14.050781 17.433594 13.9375 17.171875 C 13.914062 17.125 13.941406 17.089844 13.957031 17.046875 C 14.046875 16.816406 14.230469 16.65625 14.378906 16.472656 C 14.820312 15.945312 15.328125 15.476562 15.839844 15.019531 C 16.152344 14.730469 16.546875 14.5 16.71875 14.09375 C 16.902344 13.695312 17.167969 13.339844 17.347656 12.941406 C 17.5 12.570312 17.832031 12.539062 18.175781 12.464844 C 18.078125 12.578125 17.886719 12.558594 17.824219 12.742188 C 18.21875 12.625 18.617188 12.335938 18.996094 12.679688 C 18.863281 12.695312 18.542969 12.726562 18.515625 12.839844 C 18.5625 12.988281 18.890625 12.640625 19.234375 12.902344 C 19.128906 12.972656 19 12.9375 18.902344 13.007812 C 18.769531 13.054688 18.734375 13.195312 18.605469 13.070312 C 18.4375 12.933594 17.984375 12.722656 18.035156 13.117188 C 18.089844 13.3125 18.28125 13.453125 18.445312 13.566406 C 18.496094 13.609375 18.648438 13.660156 18.609375 13.742188 C 18.574219 13.8125 18.496094 13.800781 18.433594 13.773438 C 18.242188 13.695312 18.050781 13.613281 17.902344 13.460938 C 17.828125 13.382812 17.746094 13.304688 17.640625 13.269531 C 17.328125 13.160156 17.382812 13.640625 17.53125 13.773438 C 17.519531 13.785156 17.507812 13.796875 17.503906 13.792969 C 17.398438 13.769531 17.316406 13.800781 17.265625 13.890625 C 17.183594 14.007812 17.335938 14.152344 17.425781 14.246094 C 17.097656 14.542969 17.730469 14.652344 17.398438 15.003906 Z M 18.957031 13.261719 C 18.914062 13.289062 18.871094 13.242188 18.847656 13.210938 C 18.816406 13.160156 18.871094 13.140625 18.898438 13.128906 C 19.074219 13.050781 19.25 12.996094 19.4375 13.148438 C 19.265625 13.175781 19.097656 13.167969 18.957031 13.261719 Z M 19.648438 13.355469 C 19.578125 13.546875 19.5 13.582031 19.328125 13.496094 C 19.242188 13.449219 19.140625 13.414062 19.054688 13.335938 C 19.269531 13.222656 19.457031 13.300781 19.648438 13.355469 Z M 18.710938 13.347656 C 18.707031 13.417969 18.609375 13.566406 18.546875 13.519531 C 18.441406 13.46875 17.90625 13.050781 18.1875 12.988281 C 18.386719 13 18.472656 13.132812 18.628906 13.214844 C 18.683594 13.246094 18.71875 13.265625 18.710938 13.347656 Z M 17.566406 13.660156 C 17.5 13.617188 17.472656 13.421875 17.554688 13.382812 C 17.613281 13.355469 17.660156 13.394531 17.699219 13.433594 C 17.894531 13.59375 18.101562 13.753906 18.347656 13.816406 C 18.261719 13.875 18.199219 13.960938 18.097656 14.007812 C 17.890625 14.09375 17.699219 13.773438 17.566406 13.660156 Z M 17.863281 14.246094 C 17.835938 14.308594 17.800781 14.359375 17.726562 14.320312 C 17.628906 14.273438 17.316406 14.058594 17.375 13.9375 C 17.511719 13.824219 17.710938 14.0625 17.847656 14.113281 C 17.921875 14.152344 17.882812 14.199219 17.863281 14.246094 Z M 17.582031 14.671875 C 17.519531 14.59375 17.324219 14.414062 17.507812 14.410156 C 17.691406 14.449219 17.675781 14.511719 17.582031 14.671875 Z M 17.714844 14.890625 C 17.535156 14.828125 17.714844 14.648438 17.742188 14.535156 C 17.804688 14.527344 17.847656 14.640625 17.902344 14.558594 C 17.949219 14.484375 17.828125 14.496094 17.824219 14.429688 C 17.921875 14.382812 17.957031 14.289062 17.960938 14.171875 C 18.054688 14.207031 18.128906 14.265625 18.234375 14.257812 C 18.226562 14.1875 18.164062 14.152344 18.132812 14.085938 C 18.257812 14.042969 18.359375 13.96875 18.355469 13.816406 C 18.425781 13.9375 18.71875 13.882812 18.699219 13.742188 C 18.632812 13.566406 18.800781 13.5 18.808594 13.339844 C 19.105469 13.460938 19.496094 13.871094 19.746094 13.460938 C 19.914062 13.222656 19.851562 12.832031 20.15625 12.707031 C 20.242188 12.648438 20.335938 12.707031 20.273438 12.808594 C 20.234375 12.90625 20.226562 13.007812 20.226562 13.113281 C 20.222656 13.441406 20.027344 13.722656 19.90625 14.015625 C 19.859375 14.105469 19.871094 14.183594 19.941406 14.269531 C 20.394531 14.671875 19.644531 15.3125 19.191406 15.371094 C 19.027344 15.402344 18.734375 15.414062 18.652344 15.234375 C 18.742188 15.21875 18.828125 15.210938 18.925781 15.167969 C 18.847656 15.125 18.773438 15.121094 18.707031 15.125 C 18.351562 15.152344 18.035156 15.011719 17.714844 14.890625 Z M 22.648438 17.339844 C 22.324219 17.929688 21.59375 17.753906 21.066406 17.605469 C 20.511719 17.472656 20.113281 17.042969 19.6875 16.691406 C 19.335938 16.394531 19.015625 16.066406 18.714844 15.71875 C 18.625 15.582031 18.3125 15.457031 18.476562 15.269531 C 18.910156 15.921875 20.015625 15.242188 20.183594 14.671875 C 20.269531 14.492188 20.148438 14.339844 20.058594 14.183594 C 20.152344 14.136719 20.230469 14.160156 20.3125 14.203125 C 20.582031 14.347656 20.875 14.433594 21.15625 14.546875 C 21.367188 14.628906 21.597656 14.6875 21.757812 14.871094 C 21.773438 14.886719 21.792969 14.894531 21.8125 14.878906 C 21.835938 14.859375 21.820312 14.839844 21.808594 14.820312 C 21.5625 14.460938 21.011719 14.398438 20.636719 14.210938 C 20.4375 14.136719 20.265625 13.984375 20.042969 14.003906 C 20.03125 13.917969 20.070312 13.855469 20.105469 13.796875 C 20.183594 13.65625 20.234375 13.503906 20.296875 13.359375 C 20.328125 13.289062 20.335938 13.214844 20.332031 13.136719 C 20.296875 12.984375 20.382812 12.847656 20.382812 12.699219 C 20.371094 12.613281 20.328125 12.574219 20.238281 12.582031 C 19.945312 12.59375 19.835938 12.871094 19.765625 13.117188 C 19.6875 13.355469 19.527344 13.070312 19.476562 12.964844 C 19.457031 12.925781 19.433594 12.886719 19.394531 12.863281 C 19.230469 12.761719 19.101562 12.621094 18.957031 12.5 C 18.667969 12.273438 17.890625 12.363281 17.578125 12.535156 C 17.285156 12.71875 17.203125 13.09375 17.019531 13.367188 C 16.851562 13.644531 16.6875 13.921875 16.515625 14.195312 C 16.386719 14.402344 16.195312 14.550781 16.015625 14.707031 C 15.734375 14.9375 15.488281 15.1875 15.207031 15.417969 C 15.484375 13.851562 15.796875 12.3125 15.871094 10.726562 C 15.910156 10.09375 16.0625 9.46875 15.960938 8.832031 C 15.902344 8.449219 15.882812 7.972656 15.570312 7.703125 C 15.554688 7.691406 15.546875 7.667969 15.550781 7.636719 C 16.164062 7.621094 16.824219 9.667969 17.023438 10.203125 C 17.074219 10.34375 17.0625 10.363281 16.921875 10.421875 C 16.730469 10.503906 16.527344 10.546875 16.324219 10.59375 C 16.234375 10.589844 16.132812 10.683594 16.234375 10.75 C 16.414062 10.855469 16.582031 10.980469 16.773438 11.058594 C 16.882812 11.101562 16.882812 11.109375 16.832031 11.214844 C 16.359375 12.179688 16.210938 13.261719 15.914062 14.285156 C 15.878906 14.421875 15.871094 14.566406 15.820312 14.699219 C 15.816406 14.710938 15.828125 14.730469 15.847656 14.785156 C 16.292969 13.605469 16.328125 12.292969 16.984375 11.203125 C 17.046875 11.09375 17.027344 11.023438 16.910156 10.96875 C 16.75 10.894531 16.582031 10.828125 16.4375 10.703125 C 16.503906 10.648438 16.578125 10.632812 16.652344 10.625 C 16.824219 10.609375 16.976562 10.53125 17.128906 10.457031 C 17.21875 10.414062 17.234375 10.355469 17.179688 10.273438 C 16.917969 9.65625 16.722656 9.003906 16.414062 8.40625 C 17.050781 8.480469 17.691406 8.652344 18.335938 8.71875 C 18.703125 8.75 19.058594 8.875 19.421875 8.941406 C 19.574219 8.972656 19.71875 9.019531 19.851562 9.097656 C 19.960938 9.167969 19.957031 9.175781 19.863281 9.265625 C 19.335938 9.761719 19.21875 10.527344 19.242188 11.21875 C 19.238281 11.589844 19.210938 11.957031 19.226562 12.332031 C 19.226562 12.363281 19.234375 12.402344 19.273438 12.402344 C 19.316406 12.402344 19.308594 12.363281 19.308594 12.328125 C 19.296875 11.78125 19.359375 11.238281 19.351562 10.691406 C 19.382812 10.234375 19.535156 9.683594 19.910156 9.390625 C 20.21875 9.15625 20.324219 9.644531 20.425781 9.847656 C 20.667969 10.566406 20.914062 11.285156 21.167969 12 C 21.613281 13.253906 22.292969 14.425781 22.585938 15.730469 C 22.640625 16 22.597656 16.285156 22.683594 16.554688 C 22.746094 16.820312 22.769531 17.082031 22.648438 17.339844 Z M 22.648438 17.339844 " fill-opacity="1" fill-rule="nonzero"/></g><path fill="#ffffff" d="M 3.628906 6.4375 C 3.628906 6.4375 3.625 6.433594 3.625 6.429688 C 3.621094 6.433594 3.621094 6.433594 3.628906 6.4375 Z M 3.628906 6.4375 " fill-opacity="1" fill-rule="nonzero"/><path fill="#ffffff" d="M 20.957031 22.648438 C 20.683594 21.371094 20.269531 20.125 19.867188 18.882812 C 19.675781 18.433594 19.613281 17.976562 19.671875 17.492188 C 19.695312 17.332031 19.703125 17.167969 19.652344 17.003906 C 19.574219 17.257812 19.59375 17.519531 19.5625 17.777344 C 19.535156 18.019531 19.546875 18.257812 19.625 18.492188 C 19.726562 18.789062 19.839844 19.085938 19.9375 19.386719 C 20.535156 21.160156 20.976562 22.96875 21.292969 24.816406 C 21.308594 24.082031 21.066406 23.371094 20.957031 22.648438 Z M 20.957031 22.648438 " fill-opacity="1" fill-rule="nonzero"/><path fill="#ffffff" d="M 10.828125 26.664062 C 10.59375 24.421875 10.351562 22.136719 9.628906 19.992188 C 9.957031 21.546875 10.375 23.089844 10.550781 24.675781 C 10.730469 25.882812 10.746094 27.109375 10.929688 28.3125 C 10.933594 27.761719 10.867188 27.214844 10.828125 26.664062 Z M 10.828125 26.664062 " fill-opacity="1" fill-rule="nonzero"/><path fill="#ffffff" d="M 19.550781 25.949219 C 18.878906 26.1875 18.144531 26.359375 17.4375 26.203125 C 17.246094 26.160156 17.058594 26.105469 16.859375 26.113281 C 16.605469 26.125 16.429688 26.003906 16.339844 25.769531 C 16.175781 25.382812 16.203125 24.957031 16.109375 24.554688 C 16.078125 24.671875 16.109375 24.792969 16.117188 24.910156 C 16.167969 25.367188 16.148438 26.101562 16.726562 26.199219 C 17.304688 26.261719 17.867188 26.433594 18.449219 26.328125 C 18.84375 26.269531 19.214844 26.15625 19.574219 25.992188 C 19.601562 25.980469 19.636719 25.972656 19.640625 25.933594 C 19.609375 25.925781 19.578125 25.9375 19.550781 25.949219 Z M 19.550781 25.949219 " fill-opacity="1" fill-rule="nonzero"/><path fill="#ffffff" d="M 8.753906 26.800781 C 8.578125 24.613281 8.28125 22.4375 8.027344 20.257812 C 7.941406 20.398438 7.972656 20.550781 7.996094 20.691406 C 8.058594 21.066406 8.109375 21.445312 8.152344 21.824219 C 8.425781 23.707031 8.554688 25.625 8.800781 27.496094 C 8.785156 27.265625 8.777344 27.03125 8.753906 26.800781 Z M 8.753906 26.800781 " fill-opacity="1" fill-rule="nonzero"/><path fill="#ffffff" d="M 6 28.484375 C 5.945312 26.976562 6 25.46875 6.035156 23.960938 C 5.929688 24.40625 5.90625 27.847656 6 28.484375 Z M 6 28.484375 " fill-opacity="1" fill-rule="nonzero"/><path fill="#ffffff" d="M 14.015625 21.765625 C 13.652344 21.882812 13.269531 21.898438 12.894531 21.949219 C 12.855469 21.957031 12.789062 21.925781 12.792969 21.988281 C 12.792969 22.046875 12.859375 22.023438 12.898438 22.03125 C 12.917969 22.035156 12.941406 22.027344 12.964844 22.027344 C 13.34375 21.992188 13.730469 21.953125 14.082031 21.789062 C 14.058594 21.757812 14.035156 21.757812 14.015625 21.765625 Z M 14.015625 21.765625 " fill-opacity="1" fill-rule="nonzero"/><path fill="#ffffff" d="M 3.46875 26.183594 C 3.417969 26.308594 3.398438 26.441406 3.382812 26.613281 C 3.472656 26.449219 3.449219 26.289062 3.53125 26.125 C 3.492188 26.121094 3.480469 26.15625 3.46875 26.183594 Z M 3.46875 26.183594 " fill-opacity="1" fill-rule="nonzero"/><path fill="#ffffff" d="M 3.628906 25.613281 C 3.585938 25.707031 3.566406 25.804688 3.550781 25.90625 C 3.542969 25.980469 3.492188 26.046875 3.535156 26.125 C 3.539062 25.949219 3.632812 25.792969 3.628906 25.613281 Z M 3.628906 25.613281 " fill-opacity="1" fill-rule="nonzero"/><path fill="#ffffff" d="M 3.726562 25.292969 C 3.753906 25.203125 3.796875 25.113281 3.792969 25.015625 C 3.746094 25.101562 3.71875 25.195312 3.726562 25.292969 Z M 3.726562 25.292969 " fill-opacity="1" fill-rule="nonzero"/><path fill="#ffffff" d="M 8.8125 27.808594 C 8.792969 27.878906 8.804688 27.941406 8.832031 28.003906 C 8.828125 27.9375 8.851562 27.871094 8.8125 27.808594 Z M 8.8125 27.808594 " fill-opacity="1" fill-rule="nonzero"/><path fill="#ffffff" d="M 10.960938 28.6875 L 10.960938 28.5 C 10.925781 28.554688 10.929688 28.609375 10.960938 28.6875 Z M 10.960938 28.6875 " fill-opacity="1" fill-rule="nonzero"/><path fill="#ffffff" d="M 3.164062 27.605469 C 3.183594 27.523438 3.199219 27.472656 3.210938 27.421875 C 3.148438 27.457031 3.148438 27.511719 3.164062 27.605469 Z M 3.164062 27.605469 " fill-opacity="1" fill-rule="nonzero"/><path fill="#ffffff" d="M 8.820312 27.667969 C 8.824219 27.640625 8.835938 27.605469 8.792969 27.589844 C 8.765625 27.613281 8.796875 27.710938 8.820312 27.667969 Z M 8.820312 27.667969 " fill-opacity="1" fill-rule="nonzero"/><path fill="#ffffff" d="M 19.644531 25.929688 C 19.691406 25.933594 19.734375 25.941406 19.753906 25.859375 C 19.714844 25.894531 19.664062 25.882812 19.644531 25.929688 Z M 19.644531 25.929688 " fill-opacity="1" fill-rule="nonzero"/><path fill="#ffffff" d="M 19.644531 25.933594 L 19.640625 25.929688 C 19.640625 25.929688 19.640625 25.929688 19.640625 25.933594 C 19.644531 25.933594 19.644531 25.933594 19.644531 25.933594 C 19.644531 25.929688 19.644531 25.929688 19.644531 25.929688 C 19.644531 25.929688 19.644531 25.929688 19.640625 25.929688 C 19.640625 25.929688 19.644531 25.929688 19.644531 25.933594 Z M 19.644531 25.933594 " fill-opacity="1" fill-rule="nonzero"/><path fill="#ffffff" d="M 3.054688 27.964844 C 3.050781 27.976562 3.054688 27.992188 3.054688 28.007812 C 3.09375 28.015625 3.070312 27.964844 3.074219 27.945312 C 3.066406 27.949219 3.054688 27.957031 3.054688 27.964844 Z M 3.054688 27.964844 " fill-opacity="1" fill-rule="nonzero"/><path fill="#ffffff" d="M 8.84375 28.167969 C 8.824219 28.199219 8.828125 28.226562 8.851562 28.261719 C 8.871094 28.222656 8.886719 28.191406 8.84375 28.167969 Z M 8.84375 28.167969 " fill-opacity="1" fill-rule="nonzero"/><path fill="#ffffff" d="M 5.980469 28.726562 C 5.972656 28.746094 5.976562 28.757812 5.992188 28.777344 C 5.996094 28.761719 6.007812 28.703125 5.980469 28.726562 Z M 5.980469 28.726562 " fill-opacity="1" fill-rule="nonzero"/><path fill="#ffffff" d="M 2.902344 28.839844 C 2.898438 28.859375 2.894531 28.878906 2.898438 28.902344 C 2.917969 28.894531 2.90625 28.875 2.910156 28.863281 C 2.90625 28.855469 2.90625 28.847656 2.902344 28.839844 Z M 2.902344 28.839844 " fill-opacity="1" fill-rule="nonzero"/><path fill="#ffffff" d="M 1.511719 19.453125 C 1.449219 19.925781 1.40625 20.402344 1.367188 20.875 C 1.363281 20.90625 1.351562 20.945312 1.40625 20.953125 C 1.453125 20.4375 1.488281 19.925781 1.550781 19.414062 C 1.523438 19.410156 1.515625 19.425781 1.511719 19.453125 Z M 1.511719 19.453125 " fill-opacity="1" fill-rule="nonzero"/><path fill="#ffffff" d="M 4.359375 8.613281 C 4.355469 8.613281 4.347656 8.613281 4.34375 8.613281 L 4.34375 9.410156 C 4.347656 9.40625 4.355469 9.40625 4.359375 9.402344 Z M 4.359375 8.613281 " fill-opacity="1" fill-rule="nonzero"/><path fill="#ffffff" d="M 1.558594 19.171875 C 1.515625 19.257812 1.550781 19.335938 1.550781 19.410156 C 1.554688 19.332031 1.582031 19.257812 1.558594 19.171875 Z M 1.558594 19.171875 " fill-opacity="1" fill-rule="nonzero"/><path fill="#ffffff" d="M 1.550781 19.414062 L 1.554688 19.410156 C 1.554688 19.414062 1.550781 19.414062 1.550781 19.414062 Z M 1.550781 19.414062 " fill-opacity="1" fill-rule="nonzero"/><path fill="#ffffff" d="M 1.363281 20.992188 C 1.359375 21.058594 1.355469 21.105469 1.351562 21.148438 C 1.367188 21.164062 1.382812 21.15625 1.375 21.144531 C 1.355469 21.101562 1.421875 21.054688 1.363281 20.992188 Z M 1.363281 20.992188 " fill-opacity="1" fill-rule="nonzero"/><path fill="#ffffff" d="M 4.054688 6.980469 C 4.03125 7.066406 4.03125 7.128906 4.054688 7.191406 C 4.070312 7.128906 4.085938 7.066406 4.054688 6.980469 Z M 4.054688 6.980469 " fill-opacity="1" fill-rule="nonzero"/><path fill="#ffffff" d="M 3.859375 8.402344 C 3.859375 8.402344 3.855469 8.402344 3.855469 8.402344 L 3.855469 8.464844 C 3.855469 8.464844 3.859375 8.464844 3.859375 8.464844 Z M 3.859375 8.402344 " fill-opacity="1" fill-rule="nonzero"/><path fill="#ffffff" d="M 3.925781 8.019531 C 3.933594 7.960938 3.90625 7.980469 3.917969 8.027344 C 3.921875 8.023438 3.925781 8.023438 3.925781 8.019531 Z M 3.925781 8.019531 " fill-opacity="1" fill-rule="nonzero"/><path fill="#ffffff" d="M 4.027344 7.371094 C 4.03125 7.347656 4.046875 7.320312 4.023438 7.300781 C 4.011719 7.316406 4 7.367188 4.027344 7.371094 Z M 4.027344 7.371094 " fill-opacity="1" fill-rule="nonzero"/><path fill="#ffffff" d="M 4.808594 13.429688 C 4.871094 13.195312 4.847656 12.957031 4.84375 12.71875 C 4.84375 12.957031 4.816406 13.195312 4.808594 13.429688 Z M 4.808594 13.429688 " fill-opacity="1" fill-rule="nonzero"/><path fill="#ffffff" d="M 4.453125 22.742188 C 4.386719 22.851562 4.367188 22.976562 4.347656 23.101562 C 4.394531 22.984375 4.445312 22.875 4.453125 22.742188 Z M 4.453125 22.742188 " fill-opacity="1" fill-rule="nonzero"/><path fill="#ffffff" d="M 5.222656 20.410156 C 5.300781 20.324219 5.296875 20.210938 5.335938 20.113281 C 5.273438 20.203125 5.207031 20.292969 5.222656 20.410156 Z M 5.222656 20.410156 " fill-opacity="1" fill-rule="nonzero"/><path fill="#ffffff" d="M 4.582031 22.34375 C 4.535156 22.425781 4.5 22.511719 4.496094 22.609375 C 4.5625 22.53125 4.5625 22.433594 4.582031 22.34375 Z M 4.582031 22.34375 " fill-opacity="1" fill-rule="nonzero"/><path fill="#ffffff" d="M 4.285156 23.3125 C 4.222656 23.382812 4.25 23.457031 4.21875 23.515625 C 4.257812 23.460938 4.289062 23.402344 4.285156 23.3125 Z M 4.285156 23.3125 " fill-opacity="1" fill-rule="nonzero"/><path fill="#ffffff" d="M 4.816406 13.714844 L 4.816406 13.558594 C 4.792969 13.613281 4.789062 13.664062 4.816406 13.714844 Z M 4.816406 13.714844 " fill-opacity="1" fill-rule="nonzero"/><path fill="#ffffff" d="M 4.148438 23.789062 C 4.179688 23.753906 4.167969 23.710938 4.164062 23.671875 C 4.132812 23.707031 4.132812 23.746094 4.148438 23.789062 Z M 4.148438 23.789062 " fill-opacity="1" fill-rule="nonzero"/><path fill="#ffffff" d="M 4.019531 13.242188 C 4.023438 13.242188 4.023438 13.242188 4.027344 13.242188 C 4.027344 13.210938 4.023438 13.183594 4.023438 13.15625 C 4.023438 13.183594 4.019531 13.210938 4.019531 13.242188 Z M 4.019531 13.242188 " fill-opacity="1" fill-rule="nonzero"/><path fill="#ffffff" d="M 4.714844 15.078125 C 4.714844 15.050781 4.71875 15.027344 4.722656 14.988281 C 4.699219 15.027344 4.707031 15.039062 4.714844 15.078125 Z M 4.714844 15.078125 " fill-opacity="1" fill-rule="nonzero"/><path fill="#ffffff" d="M 4.742188 14.5 C 4.753906 14.46875 4.765625 14.441406 4.742188 14.40625 Z M 4.742188 14.5 " fill-opacity="1" fill-rule="nonzero"/><path fill="#ffffff" d="M 4.738281 21.898438 C 4.769531 21.867188 4.777344 21.828125 4.78125 21.78125 C 4.730469 21.816406 4.71875 21.851562 4.738281 21.898438 Z M 4.738281 21.898438 " fill-opacity="1" fill-rule="nonzero"/><path fill="#ffffff" d="M 3.816406 15.328125 C 3.824219 15.378906 3.859375 15.253906 3.828125 15.242188 C 3.800781 15.265625 3.8125 15.300781 3.816406 15.328125 Z M 3.816406 15.328125 " fill-opacity="1" fill-rule="nonzero"/><path fill="#ffffff" d="M 4.675781 15.578125 C 4.652344 15.597656 4.671875 15.640625 4.671875 15.667969 C 4.683594 15.707031 4.699219 15.578125 4.675781 15.578125 Z M 4.675781 15.578125 " fill-opacity="1" fill-rule="nonzero"/><path fill="#ffffff" d="M 4.632812 16.160156 C 4.660156 16.128906 4.65625 16.09375 4.640625 16.042969 C 4.636719 16.09375 4.636719 16.125 4.632812 16.160156 Z M 4.632812 16.160156 " fill-opacity="1" fill-rule="nonzero"/><path fill="#ffffff" d="M 4.773438 14.144531 C 4.757812 14.171875 4.765625 14.191406 4.773438 14.21875 C 4.789062 14.195312 4.804688 14.160156 4.773438 14.144531 Z M 4.773438 14.144531 " fill-opacity="1" fill-rule="nonzero"/><path fill="#ffffff" d="M 3.953125 14 C 3.980469 13.976562 3.96875 13.945312 3.960938 13.898438 C 3.9375 13.941406 3.933594 13.96875 3.953125 14 Z M 3.953125 14 " fill-opacity="1" fill-rule="nonzero"/><path fill="#ffffff" d="M 12.800781 0.648438 C 12.691406 0.644531 12.203125 0.574219 12.175781 0.6875 C 12.382812 0.699219 12.585938 0.660156 12.789062 0.742188 C 12.589844 0.875 12.34375 0.820312 12.148438 0.933594 C 12.296875 0.929688 12.441406 0.921875 12.589844 0.90625 C 12.734375 0.890625 12.882812 0.925781 13.035156 0.875 C 12.996094 0.8125 12.933594 0.84375 12.898438 0.804688 C 13.097656 0.722656 13.324219 0.84375 13.21875 0.65625 C 13.078125 0.695312 12.941406 0.664062 12.800781 0.648438 Z M 12.800781 0.648438 " fill-opacity="1" fill-rule="nonzero"/><path fill="#ffffff" d="M 13.222656 0.65625 C 13.222656 0.652344 13.21875 0.652344 13.21875 0.652344 C 13.21875 0.652344 13.21875 0.652344 13.21875 0.65625 C 13.21875 0.65625 13.222656 0.65625 13.222656 0.65625 Z M 13.222656 0.65625 " fill-opacity="1" fill-rule="nonzero"/><path fill="#ffffff" d="M 14.464844 1.195312 C 14.890625 1.722656 14.9375 2.265625 14.890625 2.921875 C 15.023438 2.765625 14.960938 1.992188 14.886719 1.789062 C 14.761719 1.460938 14.570312 1.164062 14.328125 0.910156 C 14.308594 0.886719 14.277344 0.851562 14.246094 0.886719 C 14.195312 0.921875 14.4375 1.136719 14.464844 1.195312 Z M 14.464844 1.195312 " fill-opacity="1" fill-rule="nonzero"/><path fill="#ffffff" d="M 12.082031 6.722656 C 11.976562 6.703125 11.890625 6.851562 11.792969 6.78125 C 11.730469 6.773438 11.6875 6.789062 11.675781 6.835938 C 11.667969 6.886719 11.699219 6.925781 11.746094 6.929688 C 11.828125 6.9375 11.914062 6.984375 11.996094 6.914062 C 12.039062 6.875 12.105469 6.871094 12.164062 6.867188 C 12.289062 6.886719 12.789062 6.609375 12.636719 6.476562 C 12.53125 6.386719 12.449219 6.773438 12.082031 6.722656 Z M 12.082031 6.722656 " fill-opacity="1" fill-rule="nonzero"/><path fill="#ffffff" d="M 14.101562 1.5625 C 14.511719 1.96875 14.664062 2.550781 14.675781 3.109375 C 14.664062 3.195312 14.765625 3.207031 14.753906 3.113281 C 14.730469 2.539062 14.589844 1.945312 14.171875 1.523438 C 14.140625 1.492188 14.113281 1.4375 14.039062 1.464844 C 14.042969 1.515625 14.074219 1.535156 14.101562 1.5625 Z M 14.101562 1.5625 " fill-opacity="1" fill-rule="nonzero"/><path fill="#ffffff" d="M 12.976562 1.976562 C 12.90625 1.960938 12.65625 1.886719 12.664062 2.011719 C 12.683594 2.140625 12.867188 2.023438 12.953125 2.074219 C 13.242188 2.152344 13.515625 2.253906 13.730469 2.472656 C 13.753906 2.496094 13.777344 2.527344 13.851562 2.515625 C 13.609375 2.230469 13.320312 2.058594 12.976562 1.976562 Z M 12.976562 1.976562 " fill-opacity="1" fill-rule="nonzero"/><path fill="#ffffff" d="M 13.019531 2.589844 C 12.851562 2.5 12.671875 2.507812 12.492188 2.496094 C 12.425781 2.480469 12.402344 2.566406 12.449219 2.605469 C 12.53125 2.675781 12.652344 2.609375 12.75 2.628906 C 12.96875 2.648438 13.164062 2.71875 13.300781 2.90625 C 13.324219 2.9375 13.34375 2.976562 13.40625 2.988281 C 13.363281 2.863281 13.285156 2.78125 13.230469 2.683594 C 13.164062 2.640625 13.085938 2.628906 13.019531 2.589844 Z M 13.019531 2.589844 " fill-opacity="1" fill-rule="nonzero"/><path fill="#ffffff" d="M 12.882812 1.207031 C 12.65625 1 11.824219 1.316406 11.640625 1.539062 C 11.625 1.554688 11.589844 1.566406 11.621094 1.613281 C 11.984375 1.292969 12.425781 1.226562 12.882812 1.207031 Z M 12.882812 1.207031 " fill-opacity="1" fill-rule="nonzero"/><path fill="#ffffff" d="M 13.46875 2.792969 C 13.199219 2.582031 12.953125 2.296875 12.613281 2.210938 C 12.546875 2.1875 12.519531 2.273438 12.570312 2.3125 C 12.925781 2.417969 13.195312 2.660156 13.488281 2.882812 C 13.515625 2.835938 13.492188 2.8125 13.46875 2.792969 Z M 13.46875 2.792969 " fill-opacity="1" fill-rule="nonzero"/><path fill="#ffffff" d="M 12.890625 1.679688 C 12.871094 1.800781 13.25 1.71875 13.414062 1.859375 C 13.507812 1.925781 13.621094 1.960938 13.707031 2.039062 C 13.726562 2.058594 13.757812 2.070312 13.777344 2.039062 C 13.8125 1.984375 13.394531 1.769531 13.335938 1.730469 C 13.277344 1.6875 12.886719 1.5625 12.890625 1.679688 Z M 12.890625 1.679688 " fill-opacity="1" fill-rule="nonzero"/><path fill="#ffffff" d="M 13.121094 1.484375 C 13.351562 1.332031 13.605469 1.5 13.847656 1.421875 C 13.605469 1.367188 13.269531 1.1875 13.066406 1.402344 C 13.023438 1.441406 13.0625 1.515625 13.121094 1.484375 Z M 13.121094 1.484375 " fill-opacity="1" fill-rule="nonzero"/><path fill="#ffffff" d="M 11.863281 1.207031 C 12.222656 1.023438 12.589844 1.097656 12.960938 1.046875 C 12.769531 0.929688 12.019531 0.988281 11.863281 1.207031 Z M 11.863281 1.207031 " fill-opacity="1" fill-rule="nonzero"/><path fill="#ffffff" d="M 9.613281 2.695312 C 9.734375 2.273438 9.917969 1.886719 10.210938 1.5625 C 9.871094 1.867188 9.65625 2.234375 9.613281 2.695312 Z M 9.613281 2.695312 " fill-opacity="1" fill-rule="nonzero"/><path fill="#ffffff" d="M 15.144531 2.445312 C 15.105469 2.515625 15.046875 3.261719 15.078125 3.382812 C 15.132812 3.070312 15.1875 2.761719 15.144531 2.445312 Z M 15.144531 2.445312 " fill-opacity="1" fill-rule="nonzero"/><path fill="#ffffff" d="M 12.328125 6.964844 C 12.253906 6.96875 11.953125 7.019531 11.992188 7.144531 C 12.007812 7.179688 12.035156 7.195312 12.074219 7.175781 C 12.164062 7.125 12.261719 7.089844 12.363281 7.066406 C 12.394531 7.058594 12.421875 7.035156 12.414062 6.992188 C 12.40625 6.957031 12.375 6.964844 12.328125 6.964844 Z M 12.328125 6.964844 " fill-opacity="1" fill-rule="nonzero"/><path fill="#ffffff" d="M 13.476562 0.796875 C 13.621094 0.785156 13.757812 0.808594 13.878906 0.890625 C 13.890625 0.898438 13.910156 0.886719 13.921875 0.882812 C 13.898438 0.734375 13.546875 0.6875 13.421875 0.6875 C 13.378906 0.796875 13.378906 0.804688 13.476562 0.796875 Z M 13.476562 0.796875 " fill-opacity="1" fill-rule="nonzero"/><path fill="#ffffff" d="M 13.421875 0.683594 C 13.421875 0.683594 13.417969 0.6875 13.417969 0.6875 C 13.417969 0.6875 13.421875 0.6875 13.421875 0.6875 C 13.421875 0.683594 13.421875 0.683594 13.421875 0.683594 Z M 13.421875 0.683594 " fill-opacity="1" fill-rule="nonzero"/><path fill="#ffffff" d="M 10.386719 2.332031 C 10.316406 2.371094 10.316406 2.453125 10.273438 2.507812 C 10.25 2.539062 10.285156 2.566406 10.3125 2.585938 C 10.300781 2.492188 10.390625 2.425781 10.386719 2.332031 Z M 10.386719 2.332031 " fill-opacity="1" fill-rule="nonzero"/><path fill="#ffffff" d="M 14.027344 14.597656 C 14.027344 14.597656 14.027344 14.597656 14.027344 14.59375 C 14.027344 14.59375 14.027344 14.597656 14.023438 14.597656 L 14.027344 14.59375 C 14.027344 14.59375 14.027344 14.59375 14.023438 14.59375 C 14.023438 14.59375 14.023438 14.597656 14.023438 14.597656 C 14.023438 14.597656 14.027344 14.597656 14.027344 14.597656 Z M 14.027344 14.597656 " fill-opacity="1" fill-rule="nonzero"/><path fill="#ffffff" d="M 14.0625 14.621094 C 14.058594 14.605469 14.042969 14.597656 14.027344 14.597656 C 14.03125 14.765625 14.117188 14.90625 14.179688 15.054688 C 14.148438 14.90625 14.105469 14.765625 14.0625 14.621094 Z M 14.0625 14.621094 " fill-opacity="1" fill-rule="nonzero"/><path fill="#ffffff" d="M 9.164062 3.820312 C 9.246094 3.804688 9.675781 3.871094 9.65625 3.761719 C 9.652344 3.730469 9.621094 3.726562 9.59375 3.726562 C 9.304688 3.753906 8.457031 3.636719 8.304688 3.875 C 8.585938 3.785156 8.875 3.8125 9.164062 3.820312 Z M 9.164062 3.820312 " fill-opacity="1" fill-rule="nonzero"/><path fill="#ffffff" d="M 8.53125 3.320312 C 8.414062 3.320312 8.414062 3.320312 8.273438 3.390625 C 8.703125 3.363281 9.101562 3.445312 9.492188 3.566406 C 9.589844 3.59375 9.683594 3.597656 9.78125 3.582031 C 9.425781 3.371094 8.9375 3.351562 8.53125 3.320312 Z M 8.53125 3.320312 " fill-opacity="1" fill-rule="nonzero"/><path fill="#ffffff" d="M 8.195312 2.964844 C 8.914062 2.878906 9.242188 3.378906 9.53125 3.300781 C 9.101562 3.042969 8.609375 2.796875 8.097656 2.933594 C 8.097656 2.945312 8.097656 2.957031 8.097656 2.964844 C 8.128906 2.964844 8.164062 2.96875 8.195312 2.964844 Z M 8.195312 2.964844 " fill-opacity="1" fill-rule="nonzero"/><path fill="#ffffff" d="M 8.3125 4.761719 C 8.324219 4.78125 8.351562 4.773438 8.371094 4.765625 C 8.589844 4.667969 8.828125 4.621094 9.0625 4.574219 C 9.152344 4.542969 9.726562 4.480469 9.683594 4.371094 C 9.355469 4.371094 9.027344 4.523438 8.699219 4.578125 C 8.578125 4.605469 8.460938 4.660156 8.34375 4.703125 C 8.316406 4.714844 8.292969 4.726562 8.3125 4.761719 Z M 8.3125 4.761719 " fill-opacity="1" fill-rule="nonzero"/><path fill="#ffffff" d="M 8.144531 5.613281 C 8.140625 5.703125 8.3125 5.648438 8.371094 5.664062 C 8.472656 5.691406 9.035156 5.585938 9 5.460938 C 8.988281 5.4375 8.964844 5.441406 8.945312 5.449219 C 8.75 5.53125 8.554688 5.605469 8.332031 5.578125 C 8.277344 5.582031 8.167969 5.542969 8.144531 5.613281 Z M 8.144531 5.613281 " fill-opacity="1" fill-rule="nonzero"/><path fill="#ffffff" d="M 4.867188 11.832031 L 4.886719 11.832031 L 4.886719 11.332031 C 4.835938 11.496094 4.878906 11.664062 4.867188 11.832031 Z M 4.867188 11.832031 " fill-opacity="1" fill-rule="nonzero"/><path fill="#ffffff" d="M 4.914062 10.933594 C 4.910156 10.933594 4.90625 10.933594 4.902344 10.933594 L 4.902344 11.167969 C 4.90625 11.167969 4.910156 11.171875 4.914062 11.171875 Z M 4.914062 10.933594 " fill-opacity="1" fill-rule="nonzero"/><path fill="#ffffff" d="M 4.25 11.09375 C 4.253906 11.089844 4.257812 11.085938 4.261719 11.082031 C 4.269531 11.039062 4.273438 10.996094 4.253906 10.953125 C 4.230469 10.996094 4.226562 11.050781 4.25 11.09375 Z M 4.25 11.09375 " fill-opacity="1" fill-rule="nonzero"/><path fill="#ffffff" d="M 4.183594 11.609375 C 4.179688 11.65625 4.15625 11.699219 4.1875 11.742188 C 4.210938 11.699219 4.195312 11.65625 4.183594 11.609375 Z M 4.183594 11.609375 " fill-opacity="1" fill-rule="nonzero"/><path fill="#ffffff" d="M 4.171875 11.851562 C 4.128906 11.863281 4.148438 11.898438 4.15625 11.949219 C 4.175781 11.898438 4.179688 11.851562 4.171875 11.851562 Z M 4.171875 11.851562 " fill-opacity="1" fill-rule="nonzero"/><path fill="#ffffff" d="M 4.945312 4.433594 C 4.738281 4.207031 4.527344 3.988281 4.351562 3.707031 C 4.269531 3.957031 4.765625 4.300781 4.945312 4.433594 Z M 4.945312 4.433594 " fill-opacity="1" fill-rule="nonzero"/><path fill="#ffffff" d="M 3.6875 6.042969 C 3.714844 5.96875 3.714844 5.921875 3.695312 5.878906 C 3.683594 5.925781 3.671875 5.96875 3.6875 6.042969 Z M 3.6875 6.042969 " fill-opacity="1" fill-rule="nonzero"/></svg>