<svg xmlns="http://www.w3.org/2000/svg" xmlns:xlink="http://www.w3.org/1999/xlink" width="40" zoomAndPan="magnify" viewBox="0 0 30 30.000001" height="40" preserveAspectRatio="xMidYMid meet" version="1.0"><defs><clipPath id="5814f33740"><path d="M 12 1 L 13.546875 1 L 13.546875 2 L 12 2 Z M 12 1 " clip-rule="nonzero"/></clipPath><clipPath id="ea02f3d41a"><path d="M 12.789062 1.886719 L 13.546875 1.886719 L 13.546875 2.917969 L 12.789062 2.917969 Z M 12.789062 1.886719 " clip-rule="nonzero"/></clipPath><clipPath id="c3d9b7fa22"><path d="M 11 1 L 13.546875 1 L 13.546875 3 L 11 3 Z M 11 1 " clip-rule="nonzero"/></clipPath><clipPath id="e2153f6c5e"><path d="M 10 0 L 13.546875 0 L 13.546875 4 L 10 4 Z M 10 0 " clip-rule="nonzero"/></clipPath><clipPath id="390d270f86"><path d="M 0.484375 13 L 13 13 L 13 29.03125 L 0.484375 29.03125 Z M 0.484375 13 " clip-rule="nonzero"/></clipPath></defs><path fill="#ffffff" d="M 12.40625 1.03125 C 12.546875 1.054688 12.675781 1.105469 12.792969 1.183594 C 12.8125 1.15625 12.824219 1.128906 12.839844 1.097656 C 12.945312 0.824219 12.8125 0.507812 12.546875 0.386719 C 12.480469 0.359375 12.410156 0.34375 12.339844 0.34375 C 12.332031 0.34375 12.324219 0.34375 12.316406 0.34375 C 12.324219 0.367188 12.328125 0.390625 12.335938 0.414062 C 12.355469 0.527344 12.351562 0.644531 12.316406 0.75 C 12.363281 0.839844 12.394531 0.9375 12.40625 1.03125 " fill-opacity="1" fill-rule="nonzero"/><g clip-path="url(#5814f33740)"><path fill="#ffffff" d="M 13.441406 1.824219 C 13.480469 1.742188 13.5 1.648438 13.492188 1.554688 C 13.480469 1.414062 13.417969 1.289062 13.3125 1.203125 C 13.230469 1.136719 13.128906 1.101562 13.019531 1.097656 C 13.015625 1.117188 13.007812 1.140625 13 1.160156 C 12.980469 1.207031 12.957031 1.253906 12.929688 1.296875 C 13.046875 1.410156 13.128906 1.550781 13.171875 1.699219 C 13.269531 1.722656 13.359375 1.765625 13.441406 1.824219 " fill-opacity="1" fill-rule="nonzero"/></g><path fill="#ffffff" d="M 10.613281 3.925781 L 10.601562 3.9375 C 10.589844 3.957031 10.574219 3.972656 10.558594 3.984375 L 10.921875 4.597656 C 10.921875 4.597656 10.925781 4.601562 10.929688 4.601562 C 10.933594 4.601562 10.941406 4.601562 10.949219 4.59375 L 11.324219 4.132812 C 11.328125 4.125 11.328125 4.117188 11.328125 4.113281 C 11.328125 4.109375 11.324219 4.109375 11.320312 4.109375 L 10.648438 3.871094 C 10.636719 3.890625 10.625 3.910156 10.613281 3.925781 " fill-opacity="1" fill-rule="nonzero"/><g clip-path="url(#ea02f3d41a)"><path fill="#ffffff" d="M 13.207031 1.890625 C 13.226562 2.128906 13.152344 2.371094 12.980469 2.554688 C 12.925781 2.613281 12.863281 2.660156 12.796875 2.703125 C 12.945312 2.773438 13.097656 2.84375 13.253906 2.910156 C 13.285156 2.898438 13.316406 2.882812 13.347656 2.859375 C 13.585938 2.699219 13.644531 2.359375 13.472656 2.105469 C 13.40625 2.003906 13.3125 1.933594 13.207031 1.890625 " fill-opacity="1" fill-rule="nonzero"/></g><g clip-path="url(#c3d9b7fa22)"><path fill="#ffffff" d="M 11.582031 1.914062 C 11.890625 2.171875 12.234375 2.402344 12.605469 2.601562 C 12.699219 2.566406 12.785156 2.511719 12.851562 2.4375 C 13.121094 2.148438 13.09375 1.6875 12.796875 1.40625 C 12.652344 1.269531 12.464844 1.195312 12.273438 1.195312 C 12.269531 1.195312 12.269531 1.195312 12.265625 1.195312 C 12.070312 1.195312 11.894531 1.273438 11.765625 1.410156 C 11.632812 1.550781 11.574219 1.734375 11.582031 1.914062 " fill-opacity="1" fill-rule="nonzero"/></g><path fill="#ffffff" d="M 6.027344 9.085938 C 6 9.09375 5.886719 9.113281 5.679688 9.144531 C 5.628906 9.152344 5.578125 9.160156 5.515625 9.171875 C 5.476562 9.175781 5.4375 9.183594 5.40625 9.1875 L 5.609375 9.707031 C 5.707031 10.019531 5.859375 10.199219 6.070312 10.441406 C 6.144531 10.527344 6.226562 10.625 6.3125 10.738281 C 6.410156 10.859375 6.492188 10.988281 6.558594 11.089844 C 6.609375 11.171875 6.675781 11.273438 6.710938 11.308594 C 6.757812 11.273438 6.851562 11.167969 6.925781 11.078125 C 7.023438 10.972656 7.128906 10.847656 7.25 10.730469 C 7.6875 10.300781 7.855469 10.078125 7.929688 9.691406 L 7.996094 9.292969 L 8.027344 9.125 C 8.019531 9.121094 8.011719 9.121094 8.003906 9.121094 L 7.703125 9.089844 C 7.699219 9.085938 7.699219 9.085938 7.695312 9.085938 C 7.402344 9.027344 7.21875 8.859375 7.179688 8.617188 C 7.167969 8.546875 7.15625 8.484375 7.140625 8.417969 C 7.035156 8.457031 6.925781 8.476562 6.8125 8.476562 C 6.71875 8.476562 6.628906 8.464844 6.539062 8.433594 C 6.527344 8.496094 6.515625 8.554688 6.503906 8.617188 C 6.46875 8.839844 6.296875 9.011719 6.027344 9.085938 " fill-opacity="1" fill-rule="nonzero"/><path fill="#ffffff" d="M 7.304688 8.34375 C 7.320312 8.421875 7.335938 8.503906 7.347656 8.589844 C 7.382812 8.804688 7.570312 8.886719 7.726562 8.917969 L 8.015625 8.949219 C 8.390625 8.972656 8.734375 9.066406 9 9.214844 C 9.046875 8.128906 8.890625 7.222656 8.613281 6.421875 C 8.46875 6.828125 8.265625 7.152344 8.222656 7.222656 C 8.007812 7.699219 7.683594 8.132812 7.304688 8.34375 " fill-opacity="1" fill-rule="nonzero"/><path fill="#ffffff" d="M 7.15625 8.226562 C 7.164062 8.21875 7.175781 8.214844 7.183594 8.210938 C 7.542969 8.035156 7.855469 7.617188 8.0625 7.160156 C 8.066406 7.15625 8.066406 7.148438 8.066406 7.144531 C 8.070312 7.144531 8.070312 7.140625 8.070312 7.140625 C 8.113281 7.042969 8.152344 6.945312 8.183594 6.851562 C 8.207031 6.722656 8.195312 6.582031 8.117188 6.445312 C 8.007812 6.265625 7.820312 6.253906 7.605469 6.238281 C 7.449219 6.230469 7.285156 6.21875 7.144531 6.132812 C 7.039062 6.0625 6.960938 5.96875 6.875 5.867188 C 6.699219 5.652344 6.519531 5.433594 6.050781 5.484375 C 5.9375 5.84375 5.773438 6 5.640625 6.125 C 5.457031 6.304688 5.347656 6.410156 5.546875 7.113281 C 5.546875 7.113281 5.546875 7.113281 5.546875 7.117188 C 5.816406 7.746094 6.289062 8.304688 6.8125 8.304688 C 6.929688 8.304688 7.046875 8.277344 7.15625 8.226562 " fill-opacity="1" fill-rule="nonzero"/><path fill="#ffffff" d="M 10.617188 0.871094 C 10.707031 0.589844 10.929688 0.382812 11.203125 0.296875 C 11.105469 0.234375 10.984375 0.207031 10.859375 0.222656 C 10.652344 0.25 10.480469 0.390625 10.402344 0.574219 C 10.46875 0.683594 10.539062 0.789062 10.613281 0.890625 C 10.617188 0.882812 10.617188 0.878906 10.617188 0.871094 " fill-opacity="1" fill-rule="nonzero"/><g clip-path="url(#e2153f6c5e)"><path fill="#ffffff" d="M 10.222656 3.28125 C 10.316406 3.269531 10.410156 3.296875 10.484375 3.359375 L 10.5625 3.421875 C 10.648438 3.492188 10.691406 3.597656 10.691406 3.703125 L 10.78125 3.738281 L 13.070312 3.023438 C 11.902344 2.511719 10.988281 1.765625 10.34375 0.804688 L 10.101562 3.171875 L 10.171875 3.289062 C 10.1875 3.285156 10.203125 3.28125 10.222656 3.28125 " fill-opacity="1" fill-rule="nonzero"/></g><path fill="#ffffff" d="M 11.421875 0.257812 C 11.535156 0.25 11.648438 0.261719 11.757812 0.296875 C 11.921875 0.347656 12.0625 0.4375 12.175781 0.554688 C 12.175781 0.519531 12.171875 0.480469 12.164062 0.445312 C 12.113281 0.1875 11.875 0 11.617188 0 C 11.589844 0 11.5625 0.00390625 11.535156 0.0078125 C 11.433594 0.0234375 11.339844 0.0664062 11.269531 0.136719 C 11.296875 0.152344 11.328125 0.171875 11.355469 0.195312 C 11.382812 0.214844 11.402344 0.234375 11.421875 0.257812 " fill-opacity="1" fill-rule="nonzero"/><path fill="#ffffff" d="M 10.207031 3.855469 C 10.285156 3.921875 10.402344 3.910156 10.46875 3.828125 L 10.476562 3.816406 C 10.542969 3.738281 10.53125 3.621094 10.453125 3.554688 L 10.375 3.492188 C 10.335938 3.460938 10.289062 3.445312 10.238281 3.453125 C 10.1875 3.457031 10.144531 3.480469 10.113281 3.519531 L 10.101562 3.53125 C 10.039062 3.609375 10.050781 3.726562 10.128906 3.792969 L 10.207031 3.855469 " fill-opacity="1" fill-rule="nonzero"/><path fill="#ffffff" d="M 11.710938 0.460938 C 11.3125 0.34375 10.898438 0.550781 10.785156 0.921875 C 10.769531 0.972656 10.757812 1.023438 10.753906 1.074219 C 10.953125 1.324219 11.171875 1.558594 11.414062 1.773438 C 11.4375 1.597656 11.511719 1.429688 11.636719 1.292969 C 11.792969 1.128906 12.003906 1.035156 12.230469 1.023438 C 12.21875 0.957031 12.195312 0.894531 12.164062 0.832031 C 12.070312 0.65625 11.90625 0.523438 11.710938 0.460938 " fill-opacity="1" fill-rule="nonzero"/><path fill="#ffffff" d="M 9.238281 3.222656 L 9.9375 3.46875 C 9.949219 3.453125 9.957031 3.4375 9.96875 3.421875 L 9.980469 3.410156 C 9.992188 3.394531 10.003906 3.382812 10.019531 3.371094 L 9.636719 2.730469 C 9.636719 2.730469 9.636719 2.730469 9.632812 2.726562 C 9.632812 2.726562 9.628906 2.726562 9.628906 2.726562 C 9.625 2.726562 9.621094 2.730469 9.613281 2.738281 L 9.238281 3.195312 C 9.230469 3.203125 9.230469 3.210938 9.234375 3.214844 C 9.234375 3.222656 9.238281 3.222656 9.238281 3.222656 " fill-opacity="1" fill-rule="nonzero"/><path fill="#ffffff" d="M 9.417969 4.46875 L 9.65625 4.664062 L 10.324219 4.070312 C 10.242188 4.070312 10.164062 4.042969 10.097656 3.988281 L 10.019531 3.925781 C 9.9375 3.859375 9.894531 3.761719 9.890625 3.664062 L 9.417969 4.46875 " fill-opacity="1" fill-rule="nonzero"/><path fill="#ffffff" d="M 5.675781 4.304688 C 5.777344 4.304688 5.863281 4.230469 5.875 4.128906 C 5.847656 4.082031 5.832031 4.03125 5.828125 3.972656 C 5.792969 3.929688 5.738281 3.902344 5.675781 3.902344 C 5.566406 3.902344 5.476562 3.992188 5.476562 4.105469 C 5.476562 4.214844 5.566406 4.304688 5.675781 4.304688 " fill-opacity="1" fill-rule="nonzero"/><path fill="#ffffff" d="M 7.855469 4.304688 C 7.964844 4.304688 8.054688 4.214844 8.054688 4.105469 C 8.054688 3.992188 7.964844 3.902344 7.855469 3.902344 C 7.746094 3.902344 7.65625 3.992188 7.65625 4.105469 C 7.65625 4.214844 7.746094 4.304688 7.855469 4.304688 " fill-opacity="1" fill-rule="nonzero"/><path fill="#ffffff" d="M 3.792969 11.527344 C 3.652344 11.425781 3.464844 11.355469 3.320312 11.355469 C 3.238281 11.355469 3.171875 11.378906 3.132812 11.429688 C 3.078125 11.503906 3.117188 11.609375 3.15625 11.6875 C 3.21875 11.792969 3.324219 11.910156 3.445312 12 C 3.667969 12.160156 3.992188 12.242188 4.09375 12.101562 C 4.152344 12.023438 4.113281 11.917969 4.074219 11.839844 C 4.015625 11.730469 3.910156 11.613281 3.792969 11.527344 " fill-opacity="1" fill-rule="nonzero"/><path fill="#ffffff" d="M 7.074219 14.441406 C 7.15625 14.496094 7.25 14.53125 7.347656 14.542969 C 7.574219 14.570312 7.800781 14.472656 7.929688 14.28125 C 8.011719 14.164062 8.089844 14.042969 8.164062 13.925781 C 8.765625 12.996094 9.199219 12.0625 9.398438 11.265625 C 9.484375 10.929688 9.511719 10.605469 9.480469 10.296875 C 9.464844 10.125 9.433594 9.980469 9.386719 9.851562 C 9.316406 9.65625 9.136719 9.480469 8.890625 9.351562 C 8.78125 9.296875 8.65625 9.246094 8.523438 9.210938 C 8.519531 9.246094 8.519531 9.285156 8.523438 9.328125 C 8.53125 9.503906 8.574219 9.71875 8.621094 9.949219 C 8.636719 10.03125 8.65625 10.117188 8.671875 10.203125 C 8.675781 10.230469 8.683594 10.257812 8.683594 10.285156 C 8.695312 10.359375 8.691406 10.429688 8.679688 10.503906 C 8.414062 11.988281 7.570312 13.355469 7.476562 13.503906 C 7.382812 13.652344 7.191406 13.703125 7.039062 13.621094 L 4.953125 12.511719 C 4.953125 12.511719 4.953125 12.507812 4.953125 12.507812 L 4.269531 12.144531 C 4.257812 12.164062 4.246094 12.183594 4.234375 12.203125 C 4.214844 12.230469 4.1875 12.253906 4.160156 12.273438 C 4.554688 12.613281 5.0625 13.003906 5.554688 13.367188 C 6.195312 13.839844 6.804688 14.257812 7.074219 14.441406 " fill-opacity="1" fill-rule="nonzero"/><g clip-path="url(#390d270f86)"><path fill="#ffffff" d="M 0.933594 28.296875 C 1.617188 28.507812 2.839844 28.863281 3.328125 28.859375 C 3.621094 28.855469 3.847656 28.796875 4.117188 28.730469 C 4.585938 28.613281 5.175781 28.464844 6.378906 28.5625 C 6.777344 28.59375 7.207031 28.683594 7.65625 28.777344 C 8.253906 28.902344 8.871094 29.03125 9.429688 29.019531 C 10.824219 28.992188 12.238281 28.445312 12.785156 28.210938 C 12.890625 28.164062 12.953125 28.050781 12.933594 27.941406 C 12.753906 26.96875 11.425781 24.765625 10.355469 22.992188 C 9.675781 21.867188 9.089844 20.894531 8.960938 20.5 C 8.792969 20.078125 8.855469 19.621094 8.945312 18.984375 C 9 18.605469 9.058594 18.171875 9.085938 17.640625 C 9.125 16.957031 9.058594 15.425781 8.542969 14.515625 C 8.503906 14.445312 8.460938 14.375 8.414062 14.308594 C 8.367188 14.234375 8.316406 14.160156 8.273438 14.078125 C 8.207031 14.179688 8.140625 14.277344 8.074219 14.378906 C 7.921875 14.597656 7.679688 14.722656 7.421875 14.722656 C 7.390625 14.722656 7.359375 14.71875 7.328125 14.714844 C 7.203125 14.703125 7.078125 14.65625 6.976562 14.585938 C 6.699219 14.394531 6.070312 13.960938 5.410156 13.476562 C 5.335938 13.84375 5.164062 14.1875 4.988281 14.550781 L 4.972656 14.578125 C 4.507812 15.523438 4.476562 16.996094 4.570312 17.707031 C 4.589844 17.867188 4.609375 18.019531 4.628906 18.164062 C 4.777344 19.257812 4.871094 19.980469 4.671875 20.503906 C 4.375 21.277344 3.585938 22.476562 2.753906 23.746094 C 1.84375 25.136719 0.902344 26.570312 0.550781 27.535156 C 0.496094 27.6875 0.503906 27.847656 0.578125 27.992188 C 0.648438 28.140625 0.777344 28.246094 0.933594 28.296875 " fill-opacity="1" fill-rule="nonzero"/></g><path fill="#ffffff" d="M 6.757812 3.746094 C 6.648438 3.746094 6.558594 3.835938 6.558594 3.949219 C 6.558594 4.058594 6.648438 4.148438 6.757812 4.148438 C 6.839844 4.148438 6.910156 4.097656 6.941406 4.027344 C 6.9375 4 6.933594 3.976562 6.933594 3.949219 C 6.933594 3.921875 6.9375 3.894531 6.941406 3.871094 C 6.910156 3.796875 6.839844 3.746094 6.757812 3.746094 " fill-opacity="1" fill-rule="nonzero"/><path fill="#ffffff" d="M 6.199219 3.746094 C 6.089844 3.746094 6 3.835938 6 3.949219 C 6 4.058594 6.089844 4.148438 6.199219 4.148438 C 6.289062 4.148438 6.367188 4.085938 6.390625 4.003906 C 6.386719 3.984375 6.386719 3.964844 6.386719 3.949219 C 6.386719 3.929688 6.386719 3.910156 6.390625 3.894531 C 6.367188 3.808594 6.289062 3.746094 6.199219 3.746094 " fill-opacity="1" fill-rule="nonzero"/><path fill="#ffffff" d="M 6.199219 3.574219 C 6.3125 3.574219 6.410156 3.625 6.480469 3.703125 C 6.546875 3.625 6.648438 3.574219 6.757812 3.574219 C 6.867188 3.574219 6.964844 3.621094 7.03125 3.695312 C 7.101562 3.621094 7.199219 3.574219 7.304688 3.574219 C 7.457031 3.574219 7.585938 3.664062 7.644531 3.796875 C 7.660156 3.785156 7.675781 3.777344 7.695312 3.769531 C 7.695312 3.765625 7.695312 3.765625 7.695312 3.765625 C 7.695312 3.34375 7.261719 3.003906 6.730469 3.003906 C 6.210938 3.003906 5.785156 3.332031 5.769531 3.742188 C 5.804688 3.75 5.835938 3.765625 5.867188 3.78125 C 5.925781 3.660156 6.054688 3.574219 6.199219 3.574219 " fill-opacity="1" fill-rule="nonzero"/><path fill="#ffffff" d="M 7.105469 3.949219 C 7.105469 4.058594 7.195312 4.148438 7.304688 4.148438 C 7.414062 4.148438 7.503906 4.058594 7.503906 3.949219 C 7.503906 3.835938 7.414062 3.746094 7.304688 3.746094 C 7.195312 3.746094 7.105469 3.835938 7.105469 3.949219 " fill-opacity="1" fill-rule="nonzero"/><path fill="#ffffff" d="M 4.570312 9.066406 C 4.714844 9.078125 4.867188 9.074219 5.023438 9.0625 C 5.058594 9.058594 5.132812 9.050781 5.199219 9.042969 C 5.234375 9.039062 5.269531 9.035156 5.304688 9.027344 C 5.34375 9.023438 5.414062 9.011719 5.488281 9 C 5.660156 8.972656 5.945312 8.929688 5.980469 8.917969 C 6.097656 8.886719 6.300781 8.800781 6.332031 8.589844 C 6.34375 8.515625 6.359375 8.441406 6.375 8.371094 C 5.960938 8.164062 5.609375 7.695312 5.382812 7.179688 C 5.171875 6.925781 5 6.675781 4.886719 6.421875 C 4.621094 7.183594 4.5 8.011719 4.574219 9.0625 C 4.574219 9.0625 4.570312 9.066406 4.570312 9.066406 " fill-opacity="1" fill-rule="nonzero"/><path fill="#ffffff" d="M 5.523438 6 C 5.644531 5.882812 5.785156 5.75 5.886719 5.429688 C 5.910156 5.363281 5.964844 5.320312 6.03125 5.3125 C 6.59375 5.25 6.824219 5.53125 7.007812 5.753906 C 7.085938 5.847656 7.15625 5.933594 7.238281 5.984375 C 7.339844 6.050781 7.476562 6.058594 7.617188 6.066406 C 7.847656 6.082031 8.109375 6.097656 8.265625 6.359375 C 8.308594 6.433594 8.339844 6.515625 8.355469 6.597656 C 8.484375 6.300781 8.605469 5.921875 8.589844 5.585938 C 8.566406 5.121094 8.269531 4.742188 7.941406 4.46875 C 7.914062 4.472656 7.886719 4.476562 7.855469 4.476562 C 7.707031 4.476562 7.574219 4.386719 7.515625 4.257812 C 7.457031 4.296875 7.382812 4.320312 7.304688 4.320312 C 7.199219 4.320312 7.101562 4.273438 7.03125 4.199219 C 6.964844 4.273438 6.867188 4.320312 6.757812 4.320312 C 6.648438 4.320312 6.546875 4.273438 6.480469 4.195312 C 6.410156 4.273438 6.3125 4.320312 6.199219 4.320312 C 6.128906 4.320312 6.066406 4.304688 6.011719 4.269531 C 5.949219 4.394531 5.824219 4.476562 5.675781 4.476562 C 5.628906 4.476562 5.585938 4.46875 5.542969 4.453125 C 4.710938 5.402344 4.78125 6.0625 5.289062 6.777344 C 5.214844 6.328125 5.332031 6.183594 5.523438 6 " fill-opacity="1" fill-rule="nonzero"/><path fill="#ffffff" d="M 4.96875 9.324219 C 4.960938 9.292969 4.957031 9.265625 4.953125 9.242188 C 4.707031 9.253906 4.476562 9.242188 4.265625 9.199219 C 3.265625 9.007812 2.726562 8.722656 2.292969 8.492188 C 2.164062 8.421875 2.109375 8.285156 2.15625 8.15625 L 3.273438 5.160156 C 3.253906 5.152344 3.230469 5.144531 3.210938 5.132812 C 3.179688 5.117188 3.152344 5.09375 3.128906 5.070312 C 2.464844 6.078125 1.589844 7.738281 1.371094 8.238281 C 1.160156 8.707031 1.402344 8.949219 1.640625 9.070312 C 2.195312 9.355469 3.589844 9.953125 4.964844 10.230469 C 4.996094 9.863281 5.007812 9.523438 4.96875 9.324219 " fill-opacity="1" fill-rule="nonzero"/><path fill="#ffffff" d="M 3.292969 4.980469 C 3.375 5.027344 3.476562 4.976562 3.546875 4.925781 C 3.648438 4.855469 3.75 4.734375 3.824219 4.605469 C 3.953125 4.367188 3.984375 4.023438 3.828125 3.9375 C 3.75 3.894531 3.648438 3.945312 3.582031 3.996094 C 3.484375 4.070312 3.382812 4.195312 3.308594 4.328125 C 3.179688 4.566406 3.144531 4.898438 3.292969 4.980469 " fill-opacity="1" fill-rule="nonzero"/><path fill="#ffffff" d="M 7.121094 13.46875 C 7.195312 13.507812 7.285156 13.484375 7.328125 13.414062 C 7.421875 13.265625 8.25 11.925781 8.507812 10.472656 C 8.519531 10.417969 8.519531 10.363281 8.515625 10.308594 C 8.511719 10.28125 8.507812 10.257812 8.503906 10.234375 C 8.484375 10.148438 8.46875 10.066406 8.453125 9.984375 C 8.402344 9.742188 8.355469 9.511719 8.351562 9.316406 C 8.347656 9.265625 8.351562 9.214844 8.355469 9.167969 C 8.34375 9.164062 8.332031 9.164062 8.320312 9.160156 C 8.285156 9.152344 8.25 9.148438 8.199219 9.140625 L 8.171875 9.304688 L 8.101562 9.71875 C 8.015625 10.164062 7.816406 10.417969 7.371094 10.851562 C 7.253906 10.964844 7.148438 11.085938 7.058594 11.191406 C 6.875 11.402344 6.796875 11.488281 6.710938 11.488281 C 6.605469 11.488281 6.539062 11.378906 6.410156 11.183594 C 6.34375 11.078125 6.269531 10.960938 6.179688 10.84375 C 6.09375 10.734375 6.011719 10.640625 5.9375 10.554688 C 5.722656 10.304688 5.554688 10.105469 5.449219 9.761719 L 5.230469 9.214844 C 5.226562 9.214844 5.222656 9.214844 5.21875 9.214844 C 5.1875 9.21875 5.15625 9.222656 5.128906 9.226562 C 5.132812 9.257812 5.136719 9.285156 5.136719 9.292969 C 5.242188 9.816406 5.035156 11.109375 4.949219 11.558594 C 4.921875 11.699219 4.910156 11.785156 4.910156 11.816406 C 4.890625 12.039062 4.933594 12.199219 5.050781 12.367188 L 7.121094 13.46875 " fill-opacity="1" fill-rule="nonzero"/><path fill="#ffffff" d="M 5.742188 1.679688 C 5.757812 1.679688 5.769531 1.679688 5.785156 1.671875 C 5.863281 1.628906 5.949219 1.589844 6.039062 1.550781 C 6.808594 1.226562 7.878906 1.074219 8.710938 1.167969 C 8.808594 1.179688 8.902344 1.191406 8.992188 1.210938 C 9.039062 1.21875 9.082031 1.191406 9.09375 1.144531 C 9.101562 1.097656 9.074219 1.050781 9.027344 1.042969 C 8.042969 0.84375 6.585938 1.054688 5.703125 1.519531 C 5.660156 1.539062 5.644531 1.59375 5.667969 1.636719 C 5.683594 1.664062 5.710938 1.679688 5.742188 1.679688 " fill-opacity="1" fill-rule="nonzero"/><path fill="#ffffff" d="M 3.96875 2.796875 C 3.992188 2.796875 4.015625 2.789062 4.03125 2.769531 C 4.039062 2.765625 4.519531 2.253906 5.367188 1.808594 C 5.410156 1.789062 5.425781 1.734375 5.40625 1.691406 C 5.382812 1.652344 5.332031 1.632812 5.289062 1.65625 C 4.414062 2.117188 3.925781 2.632812 3.90625 2.652344 C 3.875 2.6875 3.875 2.742188 3.910156 2.773438 C 3.925781 2.789062 3.949219 2.796875 3.96875 2.796875 " fill-opacity="1" fill-rule="nonzero"/><path fill="#ffffff" d="M 7.710938 1.980469 C 7.664062 1.988281 7.628906 2.03125 7.636719 2.078125 C 7.640625 2.125 7.683594 2.160156 7.730469 2.15625 C 8.230469 2.101562 8.515625 2.101562 9.21875 2.214844 C 9.226562 2.214844 9.230469 2.214844 9.234375 2.214844 C 9.277344 2.214844 9.3125 2.1875 9.320312 2.144531 C 9.328125 2.097656 9.292969 2.050781 9.246094 2.042969 C 8.527344 1.929688 8.222656 1.929688 7.710938 1.980469 " fill-opacity="1" fill-rule="nonzero"/><path fill="#ffffff" d="M 4.128906 3.660156 C 4.097656 3.695312 4.101562 3.75 4.136719 3.78125 C 4.152344 3.796875 4.175781 3.800781 4.195312 3.800781 C 4.21875 3.800781 4.242188 3.792969 4.257812 3.773438 C 4.273438 3.757812 5.609375 2.265625 7.308594 2.222656 C 7.355469 2.222656 7.394531 2.183594 7.390625 2.136719 C 7.390625 2.085938 7.351562 2.046875 7.304688 2.050781 C 5.527344 2.09375 4.1875 3.59375 4.128906 3.660156 " fill-opacity="1" fill-rule="nonzero"/></svg>