<svg xmlns="http://www.w3.org/2000/svg" xmlns:xlink="http://www.w3.org/1999/xlink" width="40" zoomAndPan="magnify" viewBox="0 0 30 30.000001" height="40" preserveAspectRatio="xMidYMid meet" version="1.0"><defs><clipPath id="26ecaf5b5b"><path d="M 0.484375 5 L 29.515625 5 L 29.515625 26.855469 L 0.484375 26.855469 Z M 0.484375 5 " clip-rule="nonzero"/></clipPath></defs><g clip-path="url(#26ecaf5b5b)"><path fill="#ffffff" d="M 27.902344 12.855469 L 28.261719 11.382812 L 29.03125 11.382812 C 29.28125 11.382812 29.484375 11.179688 29.484375 10.933594 C 29.484375 10.683594 29.28125 10.480469 29.03125 10.480469 L 28.804688 10.480469 C 28.804688 8.804688 27.515625 7.445312 25.863281 7.332031 L 25.863281 6.40625 C 25.863281 5.90625 25.457031 5.5 24.957031 5.5 L 24.054688 5.5 C 23.554688 5.5 23.148438 5.90625 23.148438 6.40625 L 23.148438 7.332031 C 21.496094 7.445312 20.207031 8.828125 20.207031 10.480469 L 19.980469 10.480469 C 19.730469 10.480469 19.527344 10.683594 19.527344 10.933594 C 19.527344 11.179688 19.730469 11.382812 19.980469 11.382812 L 20.75 11.382812 L 21.109375 12.855469 L 21.109375 14.554688 L 17.058594 14.554688 L 17.058594 12.789062 L 17.398438 11.382812 L 18.167969 11.382812 C 18.417969 11.382812 18.621094 11.179688 18.621094 10.933594 C 18.621094 10.683594 18.417969 10.480469 18.167969 10.480469 L 17.941406 10.480469 C 17.941406 8.804688 16.652344 7.445312 15 7.332031 L 15 6.40625 C 15 5.90625 14.59375 5.5 14.09375 5.5 L 13.1875 5.5 C 12.691406 5.5 12.285156 5.90625 12.285156 6.40625 L 12.285156 7.332031 C 10.632812 7.445312 9.339844 8.828125 9.339844 10.480469 L 9.117188 10.480469 C 8.867188 10.480469 8.664062 10.683594 8.664062 10.933594 C 8.664062 11.179688 8.867188 11.382812 9.117188 11.382812 L 9.886719 11.382812 L 10.222656 12.789062 L 10.222656 14.554688 L 7.351562 14.554688 C 7.441406 14.417969 7.507812 14.257812 7.53125 14.078125 L 7.734375 13.285156 C 7.757812 13.148438 7.734375 13.015625 7.644531 12.902344 C 7.578125 12.8125 7.464844 12.742188 7.328125 12.742188 C 7.417969 12.605469 7.484375 12.449219 7.53125 12.265625 L 7.734375 11.476562 C 7.757812 11.339844 7.734375 11.203125 7.644531 11.089844 C 7.578125 11 7.464844 10.933594 7.328125 10.933594 C 7.417969 10.796875 7.484375 10.636719 7.53125 10.457031 L 7.734375 9.664062 C 7.757812 9.527344 7.734375 9.394531 7.644531 9.28125 C 7.554688 9.167969 7.417969 9.097656 7.28125 9.097656 L 1.417969 9.097656 C 1.285156 9.097656 1.148438 9.167969 1.058594 9.28125 C 0.96875 9.394531 0.945312 9.527344 0.96875 9.664062 L 1.171875 10.457031 C 1.214844 10.613281 1.285156 10.773438 1.375 10.933594 C 1.261719 10.953125 1.148438 11 1.058594 11.089844 C 0.96875 11.203125 0.945312 11.339844 0.96875 11.476562 L 1.171875 12.265625 C 1.214844 12.425781 1.285156 12.585938 1.375 12.742188 C 1.261719 12.765625 1.148438 12.8125 1.058594 12.902344 C 0.96875 13.015625 0.945312 13.148438 0.96875 13.285156 L 1.171875 14.078125 C 1.214844 14.238281 1.285156 14.394531 1.375 14.554688 C 0.898438 14.574219 0.515625 14.984375 0.515625 15.457031 L 0.515625 24.015625 C 0.515625 24.261719 0.71875 24.46875 0.96875 24.46875 C 1.601562 24.46875 1.894531 24.558594 2.234375 24.671875 C 2.324219 24.691406 2.4375 24.738281 2.550781 24.761719 L 2.550781 25.871094 C 2.550781 26.367188 2.957031 26.777344 3.457031 26.777344 L 4.363281 26.777344 C 4.859375 26.777344 5.269531 26.367188 5.269531 25.871094 L 5.269531 24.671875 C 5.289062 24.671875 5.289062 24.671875 5.3125 24.648438 C 5.652344 24.535156 5.945312 24.445312 6.582031 24.445312 C 7.214844 24.445312 7.507812 24.535156 7.847656 24.648438 C 8.210938 24.761719 8.617188 24.898438 9.386719 24.898438 C 10.15625 24.898438 10.5625 24.761719 10.925781 24.648438 C 11.265625 24.535156 11.558594 24.445312 12.195312 24.445312 C 12.828125 24.445312 13.121094 24.535156 13.460938 24.648438 C 13.824219 24.761719 14.230469 24.898438 15 24.898438 C 15.769531 24.898438 16.175781 24.761719 16.539062 24.648438 C 16.878906 24.535156 17.171875 24.445312 17.804688 24.445312 C 18.441406 24.445312 18.734375 24.535156 19.074219 24.648438 C 19.4375 24.761719 19.84375 24.898438 20.613281 24.898438 C 21.382812 24.898438 21.789062 24.761719 22.152344 24.648438 C 22.492188 24.535156 22.785156 24.445312 23.417969 24.445312 C 24.054688 24.445312 24.347656 24.535156 24.6875 24.648438 C 24.710938 24.648438 24.730469 24.648438 24.730469 24.671875 L 24.730469 25.871094 C 24.730469 26.367188 25.140625 26.777344 25.636719 26.777344 L 26.542969 26.777344 C 27.042969 26.777344 27.449219 26.367188 27.449219 25.871094 L 27.449219 24.761719 C 27.5625 24.738281 27.675781 24.691406 27.765625 24.671875 C 28.105469 24.558594 28.398438 24.46875 29.03125 24.46875 C 29.28125 24.46875 29.484375 24.261719 29.484375 24.015625 L 29.484375 15.457031 C 29.484375 14.960938 29.078125 14.554688 28.582031 14.554688 L 27.902344 14.554688 Z M 24.054688 6.40625 L 24.957031 6.40625 L 24.957031 7.3125 L 24.054688 7.3125 Z M 13.1875 6.40625 L 14.09375 6.40625 L 14.09375 7.3125 L 13.1875 7.3125 Z M 12.511719 8.214844 L 14.773438 8.214844 C 16.019531 8.214844 17.035156 9.234375 17.035156 10.480469 L 10.246094 10.480469 C 10.246094 9.234375 11.265625 8.214844 12.511719 8.214844 Z M 11.039062 12.289062 L 10.8125 11.382812 L 16.449219 11.382812 L 16.222656 12.289062 Z M 16.15625 14.554688 L 11.128906 14.554688 L 11.128906 13.195312 L 16.132812 13.195312 Z M 6.714844 10.027344 L 6.671875 10.253906 C 6.582031 10.660156 6.21875 10.933594 5.789062 10.933594 L 2.9375 10.933594 C 2.527344 10.933594 2.167969 10.660156 2.054688 10.253906 L 2.007812 10.027344 Z M 2.9375 11.835938 L 6.714844 11.835938 L 6.671875 12.0625 C 6.582031 12.472656 6.21875 12.742188 5.789062 12.742188 L 2.9375 12.742188 C 2.527344 12.742188 2.167969 12.472656 2.054688 12.0625 L 2.007812 11.835938 Z M 2.9375 13.648438 L 6.714844 13.648438 L 6.671875 13.875 C 6.582031 14.28125 6.21875 14.554688 5.789062 14.554688 L 2.9375 14.554688 C 2.527344 14.554688 2.167969 14.28125 2.054688 13.875 L 2.007812 13.648438 Z M 4.363281 25.871094 L 3.457031 25.871094 L 3.457031 24.898438 C 3.546875 24.898438 3.660156 24.898438 3.773438 24.898438 C 4 24.898438 4.179688 24.875 4.363281 24.875 Z M 26.542969 25.871094 L 25.636719 25.871094 L 25.636719 24.875 C 25.820312 24.898438 26 24.898438 26.226562 24.898438 C 26.339844 24.898438 26.453125 24.898438 26.542969 24.898438 Z M 28.582031 23.5625 C 28.082031 23.605469 27.765625 23.699219 27.492188 23.789062 C 27.152344 23.902344 26.859375 23.992188 26.226562 23.992188 C 25.59375 23.992188 25.296875 23.902344 24.957031 23.789062 C 24.597656 23.675781 24.1875 23.539062 23.417969 23.539062 C 22.648438 23.539062 22.242188 23.675781 21.878906 23.789062 C 21.542969 23.902344 21.246094 23.992188 20.613281 23.992188 C 19.980469 23.992188 19.683594 23.902344 19.34375 23.789062 C 18.984375 23.675781 18.574219 23.539062 17.804688 23.539062 C 17.035156 23.539062 16.628906 23.675781 16.265625 23.789062 C 15.929688 23.902344 15.632812 23.992188 15 23.992188 C 14.367188 23.992188 14.070312 23.902344 13.734375 23.789062 C 13.371094 23.675781 12.964844 23.539062 12.195312 23.539062 C 11.425781 23.539062 11.015625 23.675781 10.65625 23.789062 C 10.316406 23.902344 10.019531 23.992188 9.386719 23.992188 C 8.753906 23.992188 8.457031 23.902344 8.121094 23.789062 C 7.757812 23.675781 7.351562 23.539062 6.582031 23.539062 C 5.8125 23.539062 5.402344 23.675781 5.042969 23.789062 C 4.703125 23.902344 4.40625 23.992188 3.773438 23.992188 C 3.140625 23.992188 2.847656 23.902344 2.507812 23.789062 C 2.234375 23.699219 1.917969 23.605469 1.417969 23.5625 L 1.417969 22.65625 C 1.757812 22.679688 1.984375 22.769531 2.234375 22.835938 C 2.597656 22.949219 3.003906 23.085938 3.773438 23.085938 C 4.542969 23.085938 4.949219 22.949219 5.3125 22.835938 C 5.652344 22.722656 5.945312 22.632812 6.582031 22.632812 C 7.214844 22.632812 7.507812 22.722656 7.847656 22.835938 C 8.210938 22.949219 8.617188 23.085938 9.386719 23.085938 C 10.15625 23.085938 10.5625 22.949219 10.925781 22.835938 C 11.265625 22.722656 11.558594 22.632812 12.195312 22.632812 C 12.828125 22.632812 13.121094 22.722656 13.460938 22.835938 C 13.824219 22.949219 14.230469 23.085938 15 23.085938 C 15.769531 23.085938 16.175781 22.949219 16.539062 22.835938 C 16.878906 22.722656 17.171875 22.632812 17.804688 22.632812 C 18.441406 22.632812 18.734375 22.722656 19.074219 22.835938 C 19.4375 22.949219 19.84375 23.085938 20.613281 23.085938 C 21.382812 23.085938 21.789062 22.949219 22.152344 22.835938 C 22.492188 22.722656 22.785156 22.632812 23.417969 22.632812 C 24.054688 22.632812 24.347656 22.722656 24.6875 22.835938 C 25.050781 22.949219 25.457031 23.085938 26.226562 23.085938 C 26.996094 23.085938 27.402344 22.949219 27.765625 22.835938 C 28.015625 22.746094 28.242188 22.679688 28.582031 22.65625 Z M 28.582031 21.75 C 28.082031 21.796875 27.765625 21.886719 27.492188 21.976562 C 27.152344 22.089844 26.859375 22.179688 26.226562 22.179688 C 25.59375 22.179688 25.296875 22.089844 24.957031 21.976562 C 24.597656 21.863281 24.1875 21.726562 23.417969 21.726562 C 22.648438 21.726562 22.242188 21.863281 21.878906 21.976562 C 21.542969 22.089844 21.246094 22.179688 20.613281 22.179688 C 19.980469 22.179688 19.683594 22.089844 19.34375 21.976562 C 18.984375 21.863281 18.574219 21.726562 17.804688 21.726562 C 17.035156 21.726562 16.628906 21.863281 16.265625 21.976562 C 15.929688 22.089844 15.632812 22.179688 15 22.179688 C 14.367188 22.179688 14.070312 22.089844 13.734375 21.976562 C 13.371094 21.863281 12.964844 21.726562 12.195312 21.726562 C 11.425781 21.726562 11.015625 21.863281 10.65625 21.976562 C 10.316406 22.089844 10.019531 22.179688 9.386719 22.179688 C 8.753906 22.179688 8.457031 22.089844 8.121094 21.976562 C 7.757812 21.863281 7.351562 21.726562 6.582031 21.726562 C 5.8125 21.726562 5.402344 21.863281 5.042969 21.976562 C 4.703125 22.089844 4.40625 22.179688 3.773438 22.179688 C 3.140625 22.179688 2.847656 22.089844 2.507812 21.976562 C 2.234375 21.886719 1.917969 21.796875 1.417969 21.75 L 1.417969 17.269531 L 28.582031 17.269531 Z M 28.582031 15.457031 L 28.582031 16.363281 L 1.417969 16.363281 L 1.417969 15.457031 Z M 21.902344 12.289062 L 21.675781 11.382812 L 27.3125 11.382812 L 27.085938 12.289062 Z M 26.996094 14.554688 L 22.015625 14.554688 L 22.015625 13.195312 L 26.996094 13.195312 Z M 21.109375 10.480469 C 21.109375 9.234375 22.128906 8.214844 23.375 8.214844 L 25.636719 8.214844 C 26.882812 8.214844 27.902344 9.234375 27.902344 10.480469 Z M 21.109375 10.480469 " fill-opacity="1" fill-rule="nonzero"/></g><path fill="#ffffff" d="M 12.53125 4.4375 C 12.625 4.550781 12.757812 4.59375 12.871094 4.59375 C 12.984375 4.59375 13.074219 4.550781 13.167969 4.480469 C 13.347656 4.324219 13.371094 4.027344 13.210938 3.847656 C 12.828125 3.394531 12.917969 3.257812 13.144531 2.875 C 13.4375 2.375 13.867188 1.652344 12.871094 0.429688 C 12.714844 0.226562 12.417969 0.203125 12.238281 0.363281 C 12.035156 0.519531 12.011719 0.816406 12.171875 0.996094 C 12.757812 1.71875 12.625 1.96875 12.351562 2.398438 C 12.125 2.828125 11.742188 3.484375 12.53125 4.4375 Z M 12.53125 4.4375 " fill-opacity="1" fill-rule="nonzero"/><path fill="#ffffff" d="M 14.253906 4.234375 C 14.34375 4.34375 14.480469 4.390625 14.59375 4.390625 C 14.707031 4.390625 14.796875 4.34375 14.886719 4.277344 C 15.066406 4.121094 15.089844 3.824219 14.933594 3.644531 C 14.546875 3.191406 14.636719 3.054688 14.863281 2.671875 C 15.160156 2.171875 15.589844 1.449219 14.59375 0.226562 C 14.433594 0.0234375 14.140625 0 13.957031 0.160156 C 13.753906 0.316406 13.734375 0.609375 13.890625 0.792969 C 14.480469 1.515625 14.34375 1.765625 14.070312 2.195312 C 13.84375 2.648438 13.460938 3.304688 14.253906 4.234375 Z M 14.253906 4.234375 " fill-opacity="1" fill-rule="nonzero"/><path fill="#ffffff" d="M 23.398438 4.4375 C 23.488281 4.550781 23.625 4.59375 23.738281 4.59375 C 23.851562 4.59375 23.941406 4.550781 24.03125 4.480469 C 24.210938 4.324219 24.234375 4.027344 24.074219 3.847656 C 23.691406 3.394531 23.78125 3.257812 24.007812 2.875 C 24.300781 2.375 24.730469 1.652344 23.738281 0.429688 C 23.578125 0.226562 23.285156 0.203125 23.101562 0.363281 C 22.898438 0.519531 22.875 0.816406 23.035156 0.996094 C 23.625 1.71875 23.488281 1.96875 23.214844 2.398438 C 22.988281 2.828125 22.605469 3.484375 23.398438 4.4375 Z M 23.398438 4.4375 " fill-opacity="1" fill-rule="nonzero"/><path fill="#ffffff" d="M 25.117188 4.234375 C 25.207031 4.34375 25.34375 4.390625 25.457031 4.390625 C 25.570312 4.390625 25.660156 4.34375 25.75 4.277344 C 25.933594 4.121094 25.953125 3.824219 25.796875 3.644531 C 25.410156 3.191406 25.5 3.054688 25.726562 2.671875 C 26.023438 2.171875 26.453125 1.449219 25.457031 0.226562 C 25.296875 0.0234375 25.003906 0 24.824219 0.160156 C 24.621094 0.316406 24.597656 0.609375 24.753906 0.792969 C 25.34375 1.515625 25.207031 1.765625 24.9375 2.195312 C 24.710938 2.648438 24.324219 3.304688 25.117188 4.234375 Z M 25.117188 4.234375 " fill-opacity="1" fill-rule="nonzero"/></svg>