<svg xmlns="http://www.w3.org/2000/svg" xmlns:xlink="http://www.w3.org/1999/xlink" width="40" zoomAndPan="magnify" viewBox="0 0 30 30.000001" height="40" preserveAspectRatio="xMidYMid meet" version="1.0"><defs><clipPath id="4e00da34ef"><path d="M 0.484375 0 L 24.433594 0 L 24.433594 29 L 0.484375 29 Z M 0.484375 0 " clip-rule="nonzero"/></clipPath></defs><path fill="#ffffff" d="M 22.363281 26.472656 C 23.265625 27.152344 18.351562 27.804688 18.957031 27.082031 C 18.199219 28.015625 23.476562 27.332031 22.363281 26.472656 Z M 22.363281 26.472656 " fill-opacity="1" fill-rule="nonzero"/><g clip-path="url(#4e00da34ef)"><path fill="#ffffff" d="M 24.542969 26.683594 C 24.34375 26.164062 23.691406 26.347656 23.257812 26.300781 C 21.460938 26.273438 20.71875 24.335938 20.542969 22.800781 C 20.21875 21.078125 19.859375 19.195312 19.574219 17.480469 C 18.808594 13.71875 21.160156 15.40625 21.140625 10.714844 C 20.992188 7.6875 19.953125 4.789062 19 1.9375 C 18.816406 1.480469 18.671875 0.957031 18.402344 0.5625 C 17.636719 0.386719 16.824219 0.652344 16.070312 0.804688 C 16.816406 0.722656 17.617188 0.507812 18.351562 0.6875 C 17.378906 1.292969 16.136719 1.414062 15.023438 1.609375 C 12.519531 1.882812 15.3125 0.964844 16.070312 0.804688 C 12.925781 1.488281 14.871094 1.496094 11.660156 0.671875 C 12.34375 0.90625 13.035156 1.128906 13.707031 1.402344 C 12.296875 1.074219 10.910156 0.667969 9.542969 0.191406 C 10.253906 0.320312 10.957031 0.5 11.660156 0.671875 C 10.878906 0.417969 10.09375 0.148438 9.28125 0.0195312 C 9.222656 0.0234375 9.167969 0 9.136719 0.078125 C 7.855469 3.019531 6.652344 6.058594 6.054688 9.234375 C 5.121094 12.796875 7.765625 14.496094 6.585938 17.875 C 5.929688 19.601562 5.097656 25.503906 2.921875 25.449219 C 2.425781 25.5625 1.109375 25.308594 0.867188 25.640625 C 0.5 26.445312 2.332031 26.679688 2.824219 26.925781 C 4.347656 27.433594 5.910156 27.894531 7.515625 28.0625 C 8.125 28.175781 8.667969 27.777344 8.027344 27.289062 C 7.34375 26.960938 6.675781 26.601562 6.160156 26.03125 C 5.417969 24.058594 6.316406 21.757812 6.886719 19.804688 C 7.523438 18.222656 7.71875 16.34375 8.859375 15.03125 C 9.6875 14.242188 10.824219 13.640625 11.386719 12.578125 C 12.925781 9.839844 13.261719 6.628906 13.792969 3.585938 C 14.039062 6.804688 14.105469 11.820312 16.515625 14.167969 C 17.832031 15.238281 18.179688 15.390625 18.511719 17.144531 C 18.898438 19 19.132812 20.90625 19.488281 22.773438 C 19.664062 23.808594 19.859375 24.898438 19.578125 25.929688 C 19.324219 26.777344 18.417969 27.160156 17.671875 27.480469 C 17.4375 27.546875 17.167969 27.585938 17.050781 27.835938 C 17.039062 29.03125 19.394531 28.371094 20.140625 28.359375 C 21.011719 28.207031 24.730469 27.871094 24.542969 26.683594 Z M 13.546875 4.070312 C 12.855469 7.152344 12.488281 11.527344 10.023438 13.710938 C 9.320312 14.25 8.550781 14.761719 8.09375 15.550781 C 7.5 16.898438 7.121094 18.339844 6.667969 19.738281 C 6.042969 21.765625 5.472656 23.941406 6.03125 26.046875 C 6.503906 26.652344 7.152344 27.085938 7.828125 27.425781 C 7.972656 27.496094 8.078125 27.574219 8.074219 27.730469 C 7.71875 28 6.71875 27.644531 6.261719 27.585938 C 4.851562 27.285156 3.453125 26.835938 2.082031 26.386719 C 1.839844 26.277344 0.945312 26.101562 1.078125 25.761719 C 1.695312 25.613281 2.433594 25.730469 3.074219 25.597656 C 5.320312 24.769531 5.566406 21.617188 6.339844 19.644531 C 7.742188 15.414062 7.171875 15.648438 6.175781 11.648438 C 6.039062 9.984375 6.507812 8.3125 6.917969 6.710938 C 7.558594 4.5 8.300781 2.3125 9.203125 0.195312 C 10.542969 0.789062 11.984375 1.148438 13.402344 1.492188 C 13.582031 1.550781 13.804688 1.492188 13.828125 1.699219 C 13.867188 2.339844 13.683594 3.441406 13.546875 4.074219 Z M 14.054688 5.085938 C 13.917969 3.984375 13.925781 2.871094 13.921875 1.757812 C 15.28125 1.90625 17.285156 1.515625 18.449219 0.792969 C 19.203125 2.679688 19.691406 4.675781 20.21875 6.632812 C 19.25 6.480469 18.253906 6.527344 17.273438 6.53125 C 18.234375 6.570312 19.203125 6.558594 20.152344 6.710938 C 18.234375 6.886719 16.316406 6.886719 14.398438 6.710938 C 15.347656 6.5625 16.316406 6.574219 17.273438 6.53125 C 16.28125 6.5625 15.199219 6.410156 14.25 6.683594 C 14.179688 6.15625 14.113281 5.621094 14.054688 5.089844 Z M 24.320312 26.890625 C 24.382812 27.65625 15.652344 29.019531 17.511719 27.707031 C 18.511719 27.402344 19.558594 26.707031 19.769531 25.609375 C 20.058594 23.386719 19.332031 21.175781 19.113281 18.972656 C 18.300781 11.535156 15.53125 17.355469 14.261719 6.746094 C 15.71875 7.0625 17.285156 6.914062 18.78125 6.914062 C 19.21875 6.894531 19.664062 6.882812 20.097656 6.816406 C 20.34375 6.699219 20.28125 7.011719 20.351562 7.179688 C 20.832031 9.523438 21.429688 12.421875 19.753906 14.421875 C 19.554688 14.660156 19.308594 14.914062 19.246094 15.234375 C 18.917969 17.195312 19.703125 19.148438 19.988281 21.074219 C 20.363281 22.515625 20.386719 24.148438 21.308594 25.382812 C 21.800781 25.878906 22.449219 26.308594 23.140625 26.4375 C 23.488281 26.539062 24.421875 26.316406 24.320312 26.890625 Z M 24.320312 26.890625 " fill-opacity="1" fill-rule="nonzero"/></g><path fill="#ffffff" d="M 20.109375 13.640625 C 20.585938 13.101562 20.792969 12.34375 20.757812 11.632812 C 20.769531 13.546875 18.847656 14.828125 17.140625 13.855469 C 16.222656 13.300781 15.796875 12.257812 15.308594 11.339844 C 15.703125 12.3125 16.117188 13.410156 17.054688 14 C 17.992188 14.574219 19.335938 14.4375 20.109375 13.640625 Z M 20.109375 13.640625 " fill-opacity="1" fill-rule="nonzero"/><path fill="#ffffff" d="M 15.203125 1.929688 C 16.066406 1.84375 16.96875 1.703125 17.726562 1.25 C 16.660156 1.699219 15.476562 1.878906 14.324219 1.917969 C 14.613281 1.96875 14.910156 1.945312 15.203125 1.929688 Z M 15.203125 1.929688 " fill-opacity="1" fill-rule="nonzero"/><path fill="#ffffff" d="M 13.132812 5.21875 C 12.21875 5.019531 11.25 5.101562 10.316406 5.097656 C 11.21875 5.132812 12.128906 5.121094 13.023438 5.273438 C 11.21875 5.449219 9.414062 5.449219 7.609375 5.273438 C 8.5 5.125 9.414062 5.136719 10.316406 5.097656 C 9.890625 5.128906 7.519531 4.957031 7.480469 5.3125 C 8.851562 5.617188 10.324219 5.480469 11.730469 5.476562 C 11.933594 5.433594 13.304688 5.496094 13.132812 5.21875 Z M 13.132812 5.21875 " fill-opacity="1" fill-rule="nonzero"/><path fill="#ffffff" d="M 5.257812 26.835938 C 4.667969 26.628906 2.992188 26.304688 2.738281 25.804688 C 2.628906 26.351562 7.222656 27.761719 6.53125 26.648438 C 6.875 27.273438 5.539062 26.886719 5.257812 26.835938 Z M 5.257812 26.835938 " fill-opacity="1" fill-rule="nonzero"/><path fill="#ffffff" d="M 5.722656 26.527344 C 5.015625 26.445312 4.117188 26.28125 3.621094 25.761719 C 3.882812 26.285156 5.332031 26.738281 5.859375 26.488281 C 5.820312 26.519531 5.773438 26.535156 5.722656 26.527344 Z M 5.722656 26.527344 " fill-opacity="1" fill-rule="nonzero"/><path fill="#ffffff" d="M 11.378906 1.167969 C 11.949219 1.335938 12.53125 1.449219 13.121094 1.507812 C 11.976562 1.226562 10.84375 0.902344 9.726562 0.523438 C 10.257812 0.789062 10.808594 1.003906 11.378906 1.167969 Z M 11.378906 1.167969 " fill-opacity="1" fill-rule="nonzero"/><path fill="#ffffff" d="M 11.023438 12.226562 C 10.039062 14.027344 7.25 14.546875 6.527344 12.265625 C 6.074219 10.628906 6.539062 8.898438 6.886719 7.285156 C 6.449219 9.117188 5.695312 11.34375 6.808594 13.066406 C 7.734375 14.34375 9.636719 14.050781 10.574219 12.945312 C 11.371094 12.113281 11.65625 10.964844 11.988281 9.894531 C 11.703125 10.683594 11.472656 11.503906 11.023438 12.226562 Z M 11.023438 12.226562 " fill-opacity="1" fill-rule="nonzero"/><path fill="#ffffff" d="M 17.050781 8.167969 C 17.257812 8.257812 17.28125 7.890625 17.066406 7.949219 C 17.015625 7.964844 16.988281 8 16.984375 8.054688 C 16.980469 8.109375 17 8.144531 17.050781 8.167969 Z M 17.050781 8.167969 " fill-opacity="1" fill-rule="nonzero"/><path fill="#ffffff" d="M 16.800781 9.039062 C 16.980469 9.035156 16.933594 8.753906 16.765625 8.808594 C 16.699219 8.828125 16.671875 8.871094 16.683594 8.9375 C 16.695312 9.007812 16.734375 9.039062 16.800781 9.039062 Z M 16.800781 9.039062 " fill-opacity="1" fill-rule="nonzero"/><path fill="#ffffff" d="M 17.472656 9.148438 C 17.609375 9.148438 17.574219 8.929688 17.445312 8.972656 C 17.398438 8.992188 17.378906 9.023438 17.386719 9.074219 C 17.394531 9.121094 17.421875 9.148438 17.472656 9.148438 Z M 17.472656 9.148438 " fill-opacity="1" fill-rule="nonzero"/><path fill="#ffffff" d="M 17.277344 9.8125 C 17.316406 9.832031 17.347656 9.828125 17.378906 9.800781 C 17.410156 9.773438 17.417969 9.742188 17.40625 9.703125 C 17.34375 9.546875 17.132812 9.730469 17.277344 9.8125 Z M 17.277344 9.8125 " fill-opacity="1" fill-rule="nonzero"/><path fill="#ffffff" d="M 18.503906 11.667969 C 18.390625 11.703125 18.449219 11.878906 18.5625 11.839844 C 18.671875 11.796875 18.613281 11.625 18.503906 11.667969 Z M 18.503906 11.667969 " fill-opacity="1" fill-rule="nonzero"/><path fill="#ffffff" d="M 18.875 12.671875 C 18.816406 12.691406 18.800781 12.730469 18.820312 12.789062 C 18.839844 12.847656 18.875 12.867188 18.933594 12.847656 C 18.992188 12.828125 19.011719 12.789062 18.992188 12.730469 C 18.972656 12.671875 18.933594 12.652344 18.875 12.671875 Z M 18.875 12.671875 " fill-opacity="1" fill-rule="nonzero"/><path fill="#ffffff" d="M 18.640625 13.5625 C 18.59375 13.539062 18.5625 13.550781 18.539062 13.59375 C 18.515625 13.640625 18.527344 13.675781 18.570312 13.699219 C 18.617188 13.71875 18.648438 13.710938 18.671875 13.664062 C 18.695312 13.621094 18.683594 13.585938 18.640625 13.5625 Z M 18.640625 13.5625 " fill-opacity="1" fill-rule="nonzero"/><path fill="#ffffff" d="M 18.898438 10.945312 C 19.039062 10.945312 19.003906 10.726562 18.871094 10.769531 C 18.828125 10.789062 18.808594 10.820312 18.816406 10.867188 C 18.824219 10.917969 18.851562 10.941406 18.898438 10.945312 Z M 18.898438 10.945312 " fill-opacity="1" fill-rule="nonzero"/><path fill="#ffffff" d="M 16.890625 9.933594 C 16.789062 9.875 16.703125 10.042969 16.808594 10.09375 C 16.917969 10.144531 17 9.980469 16.890625 9.933594 Z M 16.890625 9.933594 " fill-opacity="1" fill-rule="nonzero"/><path fill="#ffffff" d="M 16.980469 10.808594 C 17.019531 10.828125 17.050781 10.824219 17.082031 10.796875 C 17.113281 10.769531 17.121094 10.738281 17.109375 10.699219 C 17.046875 10.542969 16.839844 10.726562 16.980469 10.808594 Z M 16.980469 10.808594 " fill-opacity="1" fill-rule="nonzero"/><path fill="#ffffff" d="M 17.511719 11.308594 C 17.378906 11.246094 17.324219 11.476562 17.472656 11.480469 C 17.519531 11.480469 17.550781 11.457031 17.558594 11.410156 C 17.570312 11.363281 17.554688 11.328125 17.511719 11.308594 Z M 17.511719 11.308594 " fill-opacity="1" fill-rule="nonzero"/><path fill="#ffffff" d="M 18.507812 10.921875 C 18.472656 10.808594 18.296875 10.867188 18.335938 10.980469 C 18.355469 11.035156 18.394531 11.054688 18.449219 11.035156 C 18.507812 11.015625 18.527344 10.976562 18.507812 10.921875 Z M 18.507812 10.921875 " fill-opacity="1" fill-rule="nonzero"/><path fill="#ffffff" d="M 17.710938 12.511719 C 17.867188 12.582031 17.886719 12.296875 17.722656 12.34375 C 17.6875 12.355469 17.667969 12.382812 17.664062 12.421875 C 17.660156 12.460938 17.675781 12.492188 17.710938 12.511719 Z M 17.710938 12.511719 " fill-opacity="1" fill-rule="nonzero"/><path fill="#ffffff" d="M 18.203125 8.226562 C 18.378906 8.226562 18.335938 7.941406 18.164062 7.996094 C 18.035156 8.035156 18.074219 8.230469 18.203125 8.226562 Z M 18.203125 8.226562 " fill-opacity="1" fill-rule="nonzero"/><path fill="#ffffff" d="M 17.773438 8.96875 C 17.910156 9.039062 18.015625 8.824219 17.878906 8.757812 C 17.742188 8.691406 17.632812 8.90625 17.773438 8.96875 Z M 17.773438 8.96875 " fill-opacity="1" fill-rule="nonzero"/><path fill="#ffffff" d="M 18.371094 9.144531 C 18.476562 9.199219 18.5625 9.03125 18.453125 8.984375 C 18.402344 8.960938 18.359375 8.972656 18.335938 9.027344 C 18.308594 9.078125 18.320312 9.117188 18.371094 9.144531 Z M 18.371094 9.144531 " fill-opacity="1" fill-rule="nonzero"/><path fill="#ffffff" d="M 17.714844 10.316406 C 17.753906 10.332031 17.785156 10.328125 17.816406 10.300781 C 17.847656 10.277344 17.855469 10.246094 17.84375 10.207031 C 17.78125 10.046875 17.566406 10.230469 17.714844 10.316406 Z M 17.714844 10.316406 " fill-opacity="1" fill-rule="nonzero"/><path fill="#ffffff" d="M 15.765625 8.503906 C 15.902344 8.503906 15.867188 8.285156 15.734375 8.328125 C 15.691406 8.34375 15.671875 8.378906 15.679688 8.425781 C 15.6875 8.476562 15.714844 8.5 15.765625 8.503906 Z M 15.765625 8.503906 " fill-opacity="1" fill-rule="nonzero"/><path fill="#ffffff" d="M 18.261719 13.167969 C 18.214844 13.144531 18.183594 13.15625 18.160156 13.203125 C 18.136719 13.246094 18.148438 13.28125 18.191406 13.304688 C 18.238281 13.328125 18.273438 13.316406 18.296875 13.269531 C 18.316406 13.222656 18.308594 13.191406 18.261719 13.167969 Z M 18.261719 13.167969 " fill-opacity="1" fill-rule="nonzero"/><path fill="#ffffff" d="M 16.34375 8.683594 C 16.378906 8.703125 16.414062 8.695312 16.441406 8.671875 C 16.472656 8.644531 16.484375 8.613281 16.472656 8.574219 C 16.410156 8.414062 16.195312 8.597656 16.34375 8.683594 Z M 16.34375 8.683594 " fill-opacity="1" fill-rule="nonzero"/><path fill="#ffffff" d="M 18.417969 9.714844 C 18.308594 9.75 18.367188 9.929688 18.476562 9.886719 C 18.535156 9.867188 18.554688 9.832031 18.535156 9.773438 C 18.515625 9.714844 18.476562 9.695312 18.417969 9.714844 Z M 18.417969 9.714844 " fill-opacity="1" fill-rule="nonzero"/><path fill="#ffffff" d="M 16.96875 8.566406 C 17.105469 8.566406 17.070312 8.34375 16.941406 8.390625 C 16.890625 8.40625 16.871094 8.4375 16.878906 8.488281 C 16.886719 8.539062 16.917969 8.566406 16.96875 8.566406 Z M 16.96875 8.566406 " fill-opacity="1" fill-rule="nonzero"/><path fill="#ffffff" d="M 17.929688 11.492188 C 17.96875 11.605469 18.144531 11.542969 18.105469 11.429688 C 18.082031 11.378906 18.042969 11.359375 17.988281 11.378906 C 17.933594 11.398438 17.914062 11.433594 17.929688 11.492188 Z M 17.929688 11.492188 " fill-opacity="1" fill-rule="nonzero"/><path fill="#ffffff" d="M 18.304688 11.921875 C 18.285156 11.863281 18.246094 11.84375 18.191406 11.863281 C 18.132812 11.882812 18.113281 11.921875 18.132812 11.980469 C 18.171875 12.089844 18.34375 12.03125 18.304688 11.921875 Z M 18.304688 11.921875 " fill-opacity="1" fill-rule="nonzero"/><path fill="#ffffff" d="M 18.605469 12.464844 C 18.640625 12.578125 18.816406 12.515625 18.777344 12.40625 C 18.757812 12.347656 18.71875 12.328125 18.660156 12.347656 C 18.605469 12.367188 18.585938 12.40625 18.605469 12.464844 Z M 18.605469 12.464844 " fill-opacity="1" fill-rule="nonzero"/><path fill="#ffffff" d="M 10.148438 7.207031 C 10.003906 7.15625 9.925781 7.382812 10.074219 7.433594 C 10.222656 7.480469 10.292969 7.253906 10.148438 7.207031 Z M 10.148438 7.207031 " fill-opacity="1" fill-rule="nonzero"/><path fill="#ffffff" d="M 10.523438 8.214844 C 10.578125 8.070312 10.347656 7.992188 10.300781 8.140625 C 10.25 8.285156 10.476562 8.363281 10.523438 8.214844 Z M 10.523438 8.214844 " fill-opacity="1" fill-rule="nonzero"/><path fill="#ffffff" d="M 9.769531 8.230469 C 9.714844 8.210938 9.675781 8.230469 9.65625 8.285156 C 9.636719 8.34375 9.65625 8.382812 9.710938 8.402344 C 9.824219 8.441406 9.882812 8.261719 9.769531 8.230469 Z M 9.769531 8.230469 " fill-opacity="1" fill-rule="nonzero"/><path fill="#ffffff" d="M 9.867188 9.074219 C 9.976562 9.113281 10.035156 8.9375 9.925781 8.902344 C 9.867188 8.882812 9.828125 8.902344 9.808594 8.960938 C 9.789062 9.015625 9.808594 9.054688 9.867188 9.074219 Z M 9.867188 9.074219 " fill-opacity="1" fill-rule="nonzero"/><path fill="#ffffff" d="M 8.597656 10.980469 C 8.558594 11.089844 8.734375 11.148438 8.769531 11.039062 C 8.804688 10.929688 8.632812 10.867188 8.597656 10.980469 Z M 8.597656 10.980469 " fill-opacity="1" fill-rule="nonzero"/><path fill="#ffffff" d="M 8.230469 12.058594 C 8.25 12.09375 8.277344 12.109375 8.316406 12.105469 C 8.359375 12.101562 8.382812 12.082031 8.398438 12.046875 C 8.441406 11.878906 8.160156 11.902344 8.230469 12.058594 Z M 8.230469 12.058594 " fill-opacity="1" fill-rule="nonzero"/><path fill="#ffffff" d="M 8.632812 12.8125 C 8.585938 12.796875 8.554688 12.8125 8.539062 12.859375 C 8.519531 12.90625 8.539062 12.941406 8.585938 12.957031 C 8.632812 12.972656 8.664062 12.957031 8.679688 12.90625 C 8.695312 12.859375 8.679688 12.828125 8.632812 12.8125 Z M 8.632812 12.8125 " fill-opacity="1" fill-rule="nonzero"/><path fill="#ffffff" d="M 8.285156 10.195312 C 8.398438 10.238281 8.457031 10.058594 8.34375 10.023438 C 8.289062 10.007812 8.253906 10.027344 8.234375 10.082031 C 8.214844 10.136719 8.234375 10.175781 8.285156 10.195312 Z M 8.285156 10.195312 " fill-opacity="1" fill-rule="nonzero"/><path fill="#ffffff" d="M 10.335938 9.355469 C 10.390625 9.371094 10.429688 9.351562 10.445312 9.296875 C 10.464844 9.242188 10.449219 9.207031 10.394531 9.183594 C 10.28125 9.144531 10.222656 9.320312 10.335938 9.355469 Z M 10.335938 9.355469 " fill-opacity="1" fill-rule="nonzero"/><path fill="#ffffff" d="M 10.21875 9.898438 C 10.160156 9.878906 10.125 9.898438 10.105469 9.957031 C 10.085938 10.011719 10.101562 10.050781 10.160156 10.070312 C 10.21875 10.089844 10.257812 10.074219 10.277344 10.015625 C 10.296875 9.957031 10.277344 9.917969 10.21875 9.898438 Z M 10.21875 9.898438 " fill-opacity="1" fill-rule="nonzero"/><path fill="#ffffff" d="M 9.769531 10.558594 C 9.714844 10.539062 9.675781 10.558594 9.65625 10.617188 C 9.636719 10.671875 9.65625 10.710938 9.710938 10.730469 C 9.769531 10.75 9.808594 10.730469 9.828125 10.675781 C 9.847656 10.617188 9.828125 10.578125 9.769531 10.558594 Z M 9.769531 10.558594 " fill-opacity="1" fill-rule="nonzero"/><path fill="#ffffff" d="M 8.820312 10.117188 C 8.765625 10.097656 8.726562 10.117188 8.707031 10.175781 C 8.6875 10.234375 8.703125 10.273438 8.761719 10.292969 C 8.820312 10.3125 8.859375 10.292969 8.878906 10.234375 C 8.898438 10.175781 8.878906 10.136719 8.820312 10.117188 Z M 8.820312 10.117188 " fill-opacity="1" fill-rule="nonzero"/><path fill="#ffffff" d="M 9.492188 11.601562 C 9.433594 11.582031 9.394531 11.597656 9.375 11.65625 C 9.355469 11.714844 9.375 11.753906 9.433594 11.773438 C 9.542969 11.808594 9.605469 11.632812 9.492188 11.601562 Z M 9.492188 11.601562 " fill-opacity="1" fill-rule="nonzero"/><path fill="#ffffff" d="M 9.050781 7.253906 C 8.90625 7.199219 8.828125 7.429688 8.976562 7.476562 C 9.121094 7.523438 9.199219 7.296875 9.050781 7.253906 Z M 9.050781 7.253906 " fill-opacity="1" fill-rule="nonzero"/><path fill="#ffffff" d="M 9.425781 8.007812 C 9.28125 7.957031 9.203125 8.1875 9.351562 8.234375 C 9.5 8.28125 9.570312 8.054688 9.425781 8.007812 Z M 9.425781 8.007812 " fill-opacity="1" fill-rule="nonzero"/><path fill="#ffffff" d="M 8.882812 8.28125 C 8.832031 8.175781 8.664062 8.257812 8.71875 8.363281 C 8.75 8.410156 8.789062 8.421875 8.839844 8.394531 C 8.890625 8.371094 8.902344 8.332031 8.882812 8.28125 Z M 8.882812 8.28125 " fill-opacity="1" fill-rule="nonzero"/><path fill="#ffffff" d="M 9.484375 9.40625 C 9.429688 9.386719 9.390625 9.402344 9.371094 9.460938 C 9.351562 9.519531 9.371094 9.558594 9.425781 9.578125 C 9.484375 9.597656 9.523438 9.578125 9.542969 9.519531 C 9.5625 9.460938 9.542969 9.425781 9.484375 9.40625 Z M 9.484375 9.40625 " fill-opacity="1" fill-rule="nonzero"/><path fill="#ffffff" d="M 11.421875 7.753906 C 11.476562 7.773438 11.515625 7.753906 11.535156 7.699219 C 11.554688 7.640625 11.535156 7.601562 11.480469 7.582031 C 11.421875 7.5625 11.382812 7.582031 11.363281 7.640625 C 11.34375 7.695312 11.363281 7.734375 11.421875 7.753906 Z M 11.421875 7.753906 " fill-opacity="1" fill-rule="nonzero"/><path fill="#ffffff" d="M 9.011719 12.421875 C 8.964844 12.410156 8.9375 12.425781 8.921875 12.472656 C 8.90625 12.515625 8.921875 12.546875 8.964844 12.566406 C 9.007812 12.574219 9.039062 12.558594 9.054688 12.515625 C 9.070312 12.46875 9.054688 12.4375 9.011719 12.421875 Z M 9.011719 12.421875 " fill-opacity="1" fill-rule="nonzero"/><path fill="#ffffff" d="M 10.832031 7.949219 C 10.882812 7.949219 10.914062 7.925781 10.921875 7.875 C 10.929688 7.824219 10.910156 7.789062 10.859375 7.773438 C 10.726562 7.730469 10.691406 7.949219 10.832031 7.949219 Z M 10.832031 7.949219 " fill-opacity="1" fill-rule="nonzero"/><path fill="#ffffff" d="M 8.679688 9.03125 C 8.660156 9.089844 8.679688 9.125 8.738281 9.144531 C 8.796875 9.164062 8.835938 9.144531 8.851562 9.085938 C 8.890625 8.976562 8.714844 8.917969 8.679688 9.03125 Z M 8.679688 9.03125 " fill-opacity="1" fill-rule="nonzero"/><path fill="#ffffff" d="M 10.273438 7.644531 C 10.164062 7.605469 10.105469 7.785156 10.214844 7.816406 C 10.324219 7.851562 10.390625 7.675781 10.273438 7.644531 Z M 10.273438 7.644531 " fill-opacity="1" fill-rule="nonzero"/><path fill="#ffffff" d="M 9.226562 10.632812 C 9.167969 10.613281 9.128906 10.632812 9.109375 10.691406 C 9.089844 10.75 9.109375 10.789062 9.167969 10.808594 C 9.226562 10.828125 9.265625 10.808594 9.285156 10.75 C 9.304688 10.691406 9.285156 10.652344 9.226562 10.632812 Z M 9.226562 10.632812 " fill-opacity="1" fill-rule="nonzero"/><path fill="#ffffff" d="M 9.082031 11.234375 C 9.09375 11.179688 9.074219 11.144531 9.023438 11.125 C 8.96875 11.109375 8.929688 11.125 8.910156 11.179688 C 8.894531 11.234375 8.917969 11.269531 8.96875 11.285156 C 9.023438 11.304688 9.0625 11.285156 9.082031 11.234375 Z M 9.082031 11.234375 " fill-opacity="1" fill-rule="nonzero"/><path fill="#ffffff" d="M 8.550781 11.605469 C 8.441406 11.566406 8.382812 11.742188 8.492188 11.777344 C 8.601562 11.816406 8.664062 11.640625 8.550781 11.605469 Z M 8.550781 11.605469 " fill-opacity="1" fill-rule="nonzero"/></svg>