<svg xmlns="http://www.w3.org/2000/svg" xmlns:xlink="http://www.w3.org/1999/xlink" width="40" zoomAndPan="magnify" viewBox="0 0 30 30.000001" height="40" preserveAspectRatio="xMidYMid meet" version="1.0"><defs><clipPath id="0ee4037557"><path d="M 0.484375 0 L 29.515625 0 L 29.515625 28.304688 L 0.484375 28.304688 Z M 0.484375 0 " clip-rule="nonzero"/></clipPath></defs><path fill="#ffffff" d="M 15 7.070312 C 14.863281 7.070312 14.738281 7.019531 14.640625 6.925781 C 14.597656 6.878906 14.558594 6.824219 14.53125 6.761719 C 14.507812 6.703125 14.496094 6.636719 14.496094 6.570312 C 14.496094 6.507812 14.507812 6.441406 14.535156 6.375 C 14.5625 6.316406 14.597656 6.261719 14.640625 6.214844 C 14.828125 6.027344 15.167969 6.023438 15.351562 6.214844 C 15.402344 6.257812 15.4375 6.3125 15.464844 6.375 C 15.488281 6.441406 15.503906 6.507812 15.503906 6.570312 C 15.503906 6.703125 15.449219 6.828125 15.351562 6.925781 C 15.261719 7.019531 15.136719 7.070312 15 7.070312 Z M 15 7.070312 " fill-opacity="1" fill-rule="nonzero"/><path fill="#ffffff" d="M 15.027344 17.859375 C 14.898438 17.859375 14.769531 17.8125 14.671875 17.714844 L 9.261719 12.308594 C 9.066406 12.109375 9.066406 11.789062 9.261719 11.59375 C 9.460938 11.398438 9.78125 11.398438 9.976562 11.59375 L 15.027344 16.644531 L 20.46875 11.203125 C 21.761719 9.910156 21.761719 7.804688 20.46875 6.507812 C 19.171875 5.214844 17.066406 5.214844 15.773438 6.507812 L 15.523438 6.757812 C 15.324219 6.957031 15.007812 6.957031 14.808594 6.757812 C 14.613281 6.5625 14.613281 6.242188 14.808594 6.046875 L 15.058594 5.796875 C 15.875 4.980469 16.960938 4.53125 18.121094 4.53125 C 19.277344 4.53125 20.363281 4.980469 21.179688 5.796875 C 22.867188 7.484375 22.867188 10.226562 21.179688 11.914062 L 15.382812 17.710938 C 15.285156 17.8125 15.15625 17.859375 15.027344 17.859375 Z M 15.027344 17.859375 " fill-opacity="1" fill-rule="nonzero"/><path fill="#ffffff" d="M 15 7.074219 C 14.871094 7.074219 14.742188 7.023438 14.644531 6.925781 C 14.449219 6.730469 14.449219 6.410156 14.644531 6.214844 L 14.8125 6.046875 C 15.007812 5.851562 15.328125 5.851562 15.523438 6.046875 C 15.71875 6.242188 15.71875 6.5625 15.523438 6.757812 L 15.355469 6.925781 C 15.257812 7.023438 15.128906 7.074219 15 7.074219 Z M 15 7.074219 " fill-opacity="1" fill-rule="nonzero"/><path fill="#ffffff" d="M 9.59375 12.480469 C 9.464844 12.480469 9.335938 12.433594 9.238281 12.332031 L 8.820312 11.917969 C 7.132812 10.230469 7.132812 7.484375 8.820312 5.796875 C 10.507812 4.109375 13.253906 4.109375 14.941406 5.796875 L 15.355469 6.214844 C 15.554688 6.410156 15.554688 6.730469 15.355469 6.929688 C 15.160156 7.125 14.839844 7.125 14.644531 6.929688 L 14.226562 6.511719 C 13.601562 5.886719 12.769531 5.542969 11.878906 5.542969 C 10.992188 5.542969 10.15625 5.886719 9.535156 6.511719 C 8.238281 7.804688 8.238281 9.910156 9.535156 11.203125 L 9.949219 11.621094 C 10.148438 11.816406 10.148438 12.136719 9.949219 12.335938 C 9.851562 12.433594 9.722656 12.480469 9.59375 12.480469 Z M 9.59375 12.480469 " fill-opacity="1" fill-rule="nonzero"/><path fill="#ffffff" d="M 14.972656 17.859375 C 14.84375 17.859375 14.714844 17.8125 14.617188 17.714844 L 9.238281 12.332031 C 9.039062 12.136719 9.039062 11.816406 9.238281 11.621094 C 9.433594 11.421875 9.753906 11.421875 9.949219 11.621094 L 14.972656 16.644531 L 20.023438 11.59375 C 20.222656 11.398438 20.539062 11.398438 20.738281 11.59375 C 20.933594 11.789062 20.933594 12.109375 20.738281 12.308594 L 15.332031 17.714844 C 15.230469 17.8125 15.101562 17.859375 14.972656 17.859375 Z M 14.972656 17.859375 " fill-opacity="1" fill-rule="nonzero"/><g clip-path="url(#0ee4037557)"><path fill="#ffffff" d="M 6.824219 28.441406 C 6.746094 28.441406 6.664062 28.421875 6.589844 28.382812 C 6.417969 28.292969 6.3125 28.109375 6.320312 27.914062 L 6.574219 22.347656 L 1.003906 22.347656 C 0.726562 22.347656 0.5 22.121094 0.5 21.84375 L 0.5 0.503906 C 0.5 0.226562 0.726562 0 1.003906 0 L 28.992188 0 C 29.273438 0 29.496094 0.226562 29.496094 0.503906 L 29.496094 21.84375 C 29.496094 22.121094 29.273438 22.347656 28.992188 22.347656 L 15.167969 22.347656 L 7.125 28.34375 C 7.039062 28.410156 6.933594 28.441406 6.824219 28.441406 Z M 1.507812 21.339844 L 7.101562 21.339844 C 7.238281 21.339844 7.371094 21.394531 7.464844 21.496094 C 7.5625 21.59375 7.613281 21.726562 7.605469 21.863281 L 7.378906 26.898438 L 14.699219 21.4375 C 14.785156 21.375 14.890625 21.339844 15 21.339844 L 28.492188 21.339844 L 28.492188 1.007812 L 1.507812 1.007812 Z M 1.507812 21.339844 " fill-opacity="1" fill-rule="nonzero"/></g></svg>