<svg xmlns="http://www.w3.org/2000/svg" xmlns:xlink="http://www.w3.org/1999/xlink" width="40" zoomAndPan="magnify" viewBox="0 0 30 30.000001" height="40" preserveAspectRatio="xMidYMid meet" version="1.0"><defs><clipPath id="be330d7970"><path d="M 0.484375 0 L 29.515625 0 L 29.515625 15.242188 L 0.484375 15.242188 Z M 0.484375 0 " clip-rule="nonzero"/></clipPath></defs><g clip-path="url(#be330d7970)"><path fill="#ffffff" d="M 7.535156 7.660156 C 7.589844 7.960938 7.730469 8.171875 7.882812 8.265625 C 7.96875 8.320312 8.050781 8.332031 8.109375 8.292969 C 8.199219 8.238281 8.238281 8.085938 8.21875 7.878906 C 8.1875 7.585938 8.101562 7.4375 7.964844 7.4375 C 7.964844 7.4375 7.964844 7.4375 7.960938 7.4375 C 7.84375 7.4375 7.699219 7.519531 7.535156 7.660156 Z M 23.125 8.703125 C 23.050781 8.703125 22.964844 8.757812 22.921875 8.832031 C 22.894531 8.886719 22.875 8.96875 22.964844 9.0625 C 23.023438 9.128906 23.121094 9.144531 23.25 9.132812 C 23.25 8.996094 23.246094 8.890625 23.234375 8.824219 C 23.226562 8.753906 23.199219 8.714844 23.148438 8.707031 C 23.140625 8.707031 23.132812 8.703125 23.125 8.703125 Z M 5.375 9.382812 C 5.367188 9.570312 5.371094 9.710938 5.394531 9.753906 C 5.40625 9.785156 5.417969 9.785156 5.425781 9.785156 C 5.457031 9.78125 5.511719 9.734375 5.542969 9.667969 C 5.558594 9.628906 5.578125 9.554688 5.527344 9.496094 C 5.480469 9.445312 5.429688 9.40625 5.375 9.382812 Z M 7.898438 8.949219 C 7.890625 8.949219 7.886719 8.949219 7.882812 8.949219 C 7.832031 8.964844 7.78125 9.058594 7.796875 9.238281 C 7.816406 9.480469 8.394531 10.839844 9.527344 12.089844 C 10.558594 13.234375 12.332031 14.59375 14.925781 14.59375 C 14.945312 14.59375 14.964844 14.59375 14.980469 14.59375 C 17.210938 14.578125 18.9375 13.777344 20.113281 12.214844 C 20.132812 12.191406 20.148438 12.167969 20.164062 12.144531 C 19.675781 12.589844 19.164062 12.96875 18.632812 13.273438 C 17.480469 13.9375 16.242188 14.265625 14.945312 14.25 C 13.898438 14.234375 12.902344 13.988281 11.984375 13.511719 C 11.238281 13.128906 10.539062 12.589844 9.910156 11.917969 C 8.683594 10.609375 8.164062 9.277344 8.15625 9.265625 C 8.066406 9.027344 7.957031 8.949219 7.898438 8.949219 Z M 6.078125 9.53125 C 5.640625 10.214844 5.308594 10.824219 5.296875 10.914062 C 5.253906 11.304688 5.015625 14.597656 5.082031 14.796875 C 5.09375 14.828125 5.207031 14.894531 5.472656 14.925781 C 5.929688 14.984375 6.421875 14.917969 6.507812 14.785156 C 6.53125 14.746094 6.59375 14.46875 6.398438 12.421875 C 6.289062 11.300781 6.148438 10.109375 6.109375 9.800781 C 6.097656 9.734375 6.089844 9.640625 6.078125 9.53125 Z M 23.367188 9.238281 C 23.355469 10.144531 23.207031 12.027344 23.097656 13.351562 C 23.035156 14.125 22.988281 14.738281 22.992188 14.839844 C 22.992188 14.847656 23.019531 14.882812 23.148438 14.914062 C 23.609375 15.019531 24.476562 14.921875 24.542969 14.816406 C 24.542969 14.585938 24.441406 14.105469 24.328125 13.554688 C 24.246094 13.160156 24.152344 12.714844 24.078125 12.265625 C 23.84375 10.898438 23.824219 10.183594 23.824219 9.996094 C 23.824219 9.914062 23.917969 9.902344 24.101562 9.875 C 24.292969 9.847656 24.585938 9.804688 24.664062 9.6875 C 24.714844 9.613281 24.757812 9.296875 24.78125 8.808594 C 24.515625 8.871094 24.25 8.960938 24.003906 9.046875 C 23.765625 9.128906 23.550781 9.203125 23.367188 9.238281 Z M 23.65625 15.078125 C 23.335938 15.078125 22.878906 15.042969 22.871094 14.84375 C 22.867188 14.734375 22.914062 14.148438 22.976562 13.339844 C 23.082031 12.027344 23.234375 10.15625 23.246094 9.253906 C 23.089844 9.269531 22.960938 9.242188 22.875 9.144531 C 22.769531 9.03125 22.75 8.894531 22.816406 8.773438 C 22.890625 8.644531 23.046875 8.5625 23.171875 8.589844 C 23.273438 8.609375 23.339844 8.6875 23.355469 8.808594 C 23.363281 8.878906 23.367188 8.980469 23.367188 9.113281 C 23.539062 9.078125 23.746094 9.007812 23.964844 8.933594 C 24.21875 8.84375 24.496094 8.75 24.789062 8.683594 C 24.824219 7.921875 24.816406 6.792969 24.730469 5.480469 C 24.652344 4.335938 24.460938 3.058594 24.199219 1.976562 C 23.90625 0.777344 23.644531 0.246094 23.492188 0.144531 C 23.460938 0.125 23.445312 0.132812 23.441406 0.132812 C 23.429688 0.140625 23.359375 0.21875 23.308594 0.828125 C 23.277344 1.210938 23.257812 1.746094 23.25 2.421875 C 23.234375 3.65625 23.261719 5.097656 23.28125 6.152344 C 23.296875 6.867188 23.304688 7.335938 23.296875 7.441406 C 23.277344 7.621094 22.640625 9.324219 21.226562 11.03125 C 21.015625 11.285156 20.800781 11.523438 20.578125 11.75 C 20.464844 11.933594 20.34375 12.113281 20.210938 12.289062 C 19.65625 13.023438 18.964844 13.605469 18.164062 14.007812 C 17.25 14.46875 16.179688 14.707031 14.984375 14.714844 C 14.964844 14.714844 14.945312 14.714844 14.925781 14.714844 C 9.855469 14.714844 7.714844 9.691406 7.675781 9.246094 C 7.65625 8.976562 7.753906 8.855469 7.855469 8.832031 C 8.003906 8.800781 8.167969 8.953125 8.269531 9.21875 C 8.277344 9.234375 8.789062 10.542969 10 11.835938 C 10.617188 12.5 11.304688 13.027344 12.039062 13.40625 C 12.941406 13.871094 13.917969 14.117188 14.945312 14.128906 C 16.21875 14.144531 17.441406 13.824219 18.574219 13.171875 C 19.242188 12.785156 19.882812 12.28125 20.480469 11.675781 C 21.347656 10.253906 21.574219 8.71875 21.628906 7.871094 C 21.644531 7.613281 21.675781 6.695312 21.394531 5.550781 C 21.105469 4.375 20.589844 3.386719 19.871094 2.613281 C 18.699219 1.355469 17.019531 0.714844 14.871094 0.703125 C 13.402344 0.691406 12.113281 0.992188 11.035156 1.597656 C 10.15625 2.085938 9.414062 2.777344 8.828125 3.652344 C 7.75 5.265625 7.542969 6.996094 7.519531 7.1875 C 7.507812 7.308594 7.507812 7.417969 7.515625 7.523438 C 7.679688 7.394531 7.832031 7.316406 7.960938 7.316406 C 7.960938 7.316406 7.964844 7.316406 7.964844 7.316406 C 8.175781 7.316406 8.300781 7.5 8.335938 7.867188 C 8.375 8.21875 8.25 8.347656 8.175781 8.398438 C 8.074219 8.460938 7.945312 8.449219 7.816406 8.371094 C 7.652344 8.269531 7.503906 8.054688 7.433594 7.753906 C 7.042969 8.121094 6.578125 8.761719 6.183594 9.367188 C 6.199219 9.542969 6.214844 9.6875 6.226562 9.785156 C 6.269531 10.09375 6.410156 11.285156 6.519531 12.410156 C 6.734375 14.65625 6.644531 14.796875 6.609375 14.851562 C 6.46875 15.066406 5.851562 15.09375 5.457031 15.046875 C 5.167969 15.007812 5.003906 14.9375 4.96875 14.835938 C 4.886719 14.589844 5.148438 11.164062 5.175781 10.898438 C 5.191406 10.773438 5.59375 10.046875 6.058594 9.335938 C 5.96875 8.449219 5.851562 6.878906 5.84375 6.65625 C 5.835938 6.335938 5.96875 6.160156 6.113281 5.976562 C 6.195312 5.871094 6.277344 5.761719 6.34375 5.617188 C 6.394531 5.496094 6.425781 4.464844 6.410156 3.273438 C 6.390625 2.015625 6.332031 1.226562 6.28125 1.015625 C 6.257812 1.074219 6.222656 1.214844 6.203125 1.554688 C 6.179688 1.886719 6.175781 2.300781 6.167969 2.703125 C 6.15625 3.617188 6.140625 3.996094 6.058594 4.078125 C 6.039062 4.09375 6.019531 4.101562 5.996094 4.101562 C 5.84375 4.097656 5.824219 3.78125 5.820312 2.535156 C 5.820312 2.011719 5.820312 1.242188 5.753906 1.050781 C 5.691406 1.257812 5.671875 2.09375 5.660156 2.664062 C 5.640625 3.726562 5.621094 4.046875 5.542969 4.117188 C 5.527344 4.128906 5.503906 4.136719 5.484375 4.136719 C 5.300781 4.117188 5.28125 3.636719 5.28125 2.460938 C 5.277344 1.949219 5.277344 1.191406 5.207031 1.019531 C 5.136719 1.214844 5.128906 2.078125 5.121094 2.664062 C 5.109375 3.636719 5.097656 4.042969 5.015625 4.121094 C 5 4.136719 4.980469 4.144531 4.960938 4.140625 C 4.796875 4.136719 4.769531 3.777344 4.757812 2.460938 C 4.753906 1.949219 4.746094 1.277344 4.695312 1.0625 C 4.5625 1.613281 4.59375 5.085938 4.746094 5.625 C 4.765625 5.691406 4.871094 5.761719 4.988281 5.839844 C 5.230469 6.003906 5.558594 6.226562 5.589844 6.703125 C 5.605469 6.996094 5.542969 7.609375 5.480469 8.203125 C 5.445312 8.550781 5.402344 8.945312 5.382812 9.25 C 5.46875 9.28125 5.546875 9.335938 5.617188 9.414062 C 5.6875 9.496094 5.699219 9.605469 5.652344 9.71875 C 5.605469 9.824219 5.511719 9.902344 5.425781 9.902344 C 5.367188 9.90625 5.316406 9.871094 5.285156 9.808594 C 5.25 9.742188 5.246094 9.585938 5.257812 9.34375 C 4.945312 9.292969 4.546875 9.542969 4.128906 9.796875 C 3.792969 10.007812 3.441406 10.222656 3.117188 10.292969 C 2.101562 10.515625 1.449219 10.191406 1.082031 9.878906 C 0.679688 9.542969 0.523438 9.15625 0.519531 9.140625 C 0.503906 9.109375 0.519531 9.074219 0.550781 9.0625 C 0.582031 9.046875 0.617188 9.0625 0.628906 9.09375 C 0.632812 9.097656 0.785156 9.472656 1.164062 9.792969 C 1.667969 10.21875 2.316406 10.347656 3.089844 10.175781 C 3.398438 10.109375 3.738281 9.898438 4.066406 9.695312 C 4.484375 9.4375 4.914062 9.175781 5.265625 9.222656 C 5.28125 8.957031 5.316406 8.613281 5.359375 8.191406 C 5.421875 7.601562 5.484375 6.992188 5.46875 6.710938 C 5.441406 6.292969 5.152344 6.097656 4.921875 5.941406 C 4.78125 5.847656 4.664062 5.769531 4.632812 5.660156 C 4.546875 5.363281 4.5 4.175781 4.492188 3.199219 C 4.484375 2.574219 4.488281 1.109375 4.621094 0.925781 C 4.644531 0.894531 4.667969 0.886719 4.6875 0.886719 C 4.703125 0.886719 4.730469 0.890625 4.753906 0.910156 C 4.855469 1.007812 4.871094 1.457031 4.878906 2.457031 C 4.882812 2.976562 4.890625 3.730469 4.953125 3.964844 C 4.988281 3.75 4.996094 3.152344 5 2.660156 C 5.019531 1.179688 5.050781 0.878906 5.199219 0.875 C 5.21875 0.875 5.246094 0.878906 5.273438 0.90625 C 5.390625 1.019531 5.398438 1.570312 5.402344 2.460938 C 5.402344 2.832031 5.402344 3.210938 5.417969 3.503906 C 5.433594 3.78125 5.457031 3.910156 5.476562 3.96875 C 5.515625 3.769531 5.53125 3.164062 5.539062 2.664062 C 5.5625 1.554688 5.585938 1.023438 5.691406 0.921875 C 5.714844 0.898438 5.738281 0.894531 5.753906 0.894531 C 5.917969 0.898438 5.941406 1.246094 5.941406 2.535156 C 5.941406 3.039062 5.945312 3.703125 5.996094 3.921875 C 6.035156 3.722656 6.042969 3.164062 6.046875 2.703125 C 6.066406 1.296875 6.105469 0.859375 6.292969 0.855469 C 6.308594 0.855469 6.339844 0.859375 6.363281 0.898438 C 6.488281 1.089844 6.523438 2.765625 6.53125 3.277344 C 6.539062 4.019531 6.539062 5.476562 6.453125 5.667969 C 6.382812 5.824219 6.296875 5.9375 6.210938 6.050781 C 6.074219 6.222656 5.957031 6.375 5.964844 6.652344 C 5.96875 6.863281 6.078125 8.273438 6.164062 9.171875 C 6.199219 9.121094 6.230469 9.070312 6.265625 9.019531 C 6.609375 8.515625 7.03125 7.953125 7.40625 7.617188 C 7.386719 7.484375 7.382812 7.335938 7.402344 7.175781 C 7.421875 6.980469 7.632812 5.222656 8.730469 3.585938 C 9.324219 2.695312 10.082031 1.988281 10.976562 1.492188 C 12.070312 0.878906 13.382812 0.574219 14.871094 0.582031 C 17.054688 0.59375 18.765625 1.25 19.957031 2.53125 C 20.695312 3.320312 21.214844 4.328125 21.511719 5.523438 C 21.796875 6.683594 21.765625 7.617188 21.75 7.878906 C 21.699219 8.652344 21.507812 9.996094 20.824219 11.308594 C 20.929688 11.195312 21.03125 11.074219 21.132812 10.953125 C 22.507812 9.296875 23.160156 7.597656 23.175781 7.429688 C 23.183594 7.332031 23.175781 6.8125 23.160156 6.15625 C 23.140625 5.085938 23.113281 3.621094 23.128906 2.375 C 23.152344 0.382812 23.273438 0.0664062 23.398438 0.0195312 C 23.433594 0.0078125 23.492188 0 23.558594 0.0429688 C 24.042969 0.359375 24.695312 3.097656 24.851562 5.472656 C 24.925781 6.652344 24.945312 7.832031 24.910156 8.65625 C 25.546875 8.535156 26.21875 8.585938 26.746094 9.230469 C 27.554688 10.222656 28.242188 10.683594 28.734375 10.570312 C 29.214844 10.457031 29.367188 9.824219 29.371094 9.820312 C 29.378906 9.785156 29.410156 9.765625 29.441406 9.773438 C 29.476562 9.78125 29.496094 9.8125 29.488281 9.847656 C 29.480469 9.875 29.316406 10.558594 28.761719 10.6875 C 28.703125 10.703125 28.644531 10.707031 28.578125 10.707031 C 28.058594 10.707031 27.414062 10.238281 26.652344 9.304688 C 26.15625 8.699219 25.523438 8.65625 24.90625 8.78125 C 24.878906 9.292969 24.832031 9.652344 24.765625 9.753906 C 24.65625 9.914062 24.347656 9.960938 24.121094 9.996094 C 24.058594 10.003906 23.980469 10.015625 23.945312 10.023438 C 23.949219 10.214844 23.972656 10.933594 24.195312 12.246094 C 24.273438 12.691406 24.363281 13.136719 24.445312 13.527344 C 24.566406 14.113281 24.664062 14.578125 24.664062 14.820312 C 24.664062 15.042969 23.957031 15.074219 23.738281 15.078125 C 23.710938 15.078125 23.683594 15.078125 23.65625 15.078125 " fill-opacity="1" fill-rule="nonzero"/></g></svg>