<svg xmlns="http://www.w3.org/2000/svg" xmlns:xlink="http://www.w3.org/1999/xlink" width="40" zoomAndPan="magnify" viewBox="0 0 30 30.000001" height="40" preserveAspectRatio="xMidYMid meet" version="1.0"><defs><clipPath id="e03932248c"><path d="M 19 3 L 29.515625 3 L 29.515625 11 L 19 11 Z M 19 3 " clip-rule="nonzero"/></clipPath><clipPath id="d269976c7e"><path d="M 0.484375 7 L 11 7 L 11 29 L 0.484375 29 Z M 0.484375 7 " clip-rule="nonzero"/></clipPath></defs><g clip-path="url(#e03932248c)"><path fill="#ffffff" d="M 28.1875 7.078125 C 27.285156 6.582031 26.203125 6.851562 25.660156 7.617188 C 25.074219 7.03125 24.578125 6.71875 24.039062 5.996094 C 23.632812 5.453125 23.136719 5.003906 22.597656 4.597656 L 20.792969 3.289062 C 20.65625 3.199219 20.433594 3.199219 20.34375 3.382812 L 19.53125 4.554688 C 19.441406 4.6875 19.441406 4.914062 19.621094 5.003906 L 20.972656 5.949219 C 20.972656 5.859375 21.019531 5.769531 21.019531 5.679688 C 21.152344 5.050781 21.785156 4.644531 22.414062 4.777344 C 23.046875 4.914062 23.453125 5.5 23.316406 6.175781 C 23.226562 6.535156 23.226562 6.851562 23.226562 7.214844 C 24.039062 7.484375 24.578125 7.84375 25.347656 8.25 C 25.074219 9.105469 25.4375 10.097656 26.246094 10.550781 C 27.195312 11.089844 28.410156 10.730469 28.953125 9.78125 C 29.492188 8.835938 29.132812 7.617188 28.1875 7.078125 Z M 28.1875 7.078125 " fill-opacity="1" fill-rule="nonzero"/></g><path fill="#ffffff" d="M 28.410156 12.804688 C 28.097656 11.765625 27.058594 11.179688 26.023438 11.449219 C 25.976562 11.449219 25.886719 11.496094 25.84375 11.496094 C 26.15625 11.765625 26.519531 11.992188 26.925781 12.261719 C 27.464844 12.621094 27.644531 13.34375 27.285156 13.886719 C 26.925781 14.472656 26.203125 14.605469 25.660156 14.246094 C 25.257812 14.019531 24.894531 13.75 24.578125 13.523438 C 24.578125 13.613281 24.625 13.703125 24.625 13.839844 C 24.667969 14.109375 24.804688 15.734375 23.046875 18.304688 C 22.957031 18.4375 22.910156 18.527344 22.867188 18.664062 C 19.484375 20.105469 18.089844 23.398438 19.078125 27.996094 C 19.214844 28.625 19.890625 29.03125 20.476562 28.898438 C 21.109375 28.761719 21.515625 28.128906 21.378906 27.5 C 20.65625 24.207031 21.378906 22.042969 23.496094 20.960938 C 22.730469 24.433594 24.488281 27.09375 25.75 28.128906 C 26.246094 28.535156 27.015625 28.492188 27.417969 27.996094 C 27.824219 27.5 27.78125 26.777344 27.285156 26.328125 C 27.195312 26.238281 24.804688 24.207031 25.976562 20.78125 C 27.375 19.566406 29.085938 15.28125 28.410156 12.804688 Z M 28.410156 12.804688 " fill-opacity="1" fill-rule="nonzero"/><path fill="#ffffff" d="M 22.28125 5.183594 C 21.875 5.09375 21.46875 5.363281 21.378906 5.769531 C 20.746094 8.925781 22.234375 11.675781 25.886719 13.929688 C 26.246094 14.15625 26.742188 14.066406 26.96875 13.660156 C 27.195312 13.300781 27.105469 12.804688 26.699219 12.578125 C 23.632812 10.683594 22.414062 8.566406 22.910156 6.039062 C 23 5.679688 22.730469 5.273438 22.28125 5.183594 Z M 22.28125 5.183594 " fill-opacity="1" fill-rule="nonzero"/><g clip-path="url(#d269976c7e)"><path fill="#ffffff" d="M 7.132812 10.503906 C 6.546875 10.683594 6.007812 10.820312 5.554688 10.820312 C 5.511719 10.820312 5.464844 10.820312 5.464844 10.820312 C 4.878906 10.820312 4.339844 10.367188 4.292969 9.738281 C 4.25 9.105469 4.699219 8.519531 5.375 8.476562 C 5.691406 8.429688 6.1875 8.339844 6.773438 8.113281 C 6.503906 7.800781 6.097656 7.574219 5.644531 7.484375 C 5.238281 7.394531 4.835938 7.484375 4.472656 7.617188 C 2.714844 8.519531 0.507812 11.042969 0.6875 16.410156 C 0.6875 16.816406 1.046875 17.175781 1.453125 17.175781 L 1.5 17.175781 C 1.949219 17.175781 2.265625 16.816406 2.265625 16.363281 C 2.175781 14.066406 2.582031 12.398438 3.167969 11.226562 C 3.074219 12.894531 3.167969 15.328125 3.933594 17.898438 C 4.203125 18.890625 5.285156 19.519531 6.277344 19.25 C 7.675781 22.585938 8.035156 25.019531 7.492188 27.410156 C 7.3125 28.222656 7.898438 28.898438 8.621094 28.898438 C 9.160156 28.898438 9.65625 28.535156 9.746094 27.996094 C 10.515625 24.660156 9.882812 21.367188 7.628906 16.679688 C 7.359375 16.09375 6.863281 13.300781 7.132812 10.503906 Z M 7.132812 10.503906 " fill-opacity="1" fill-rule="nonzero"/></g><path fill="#ffffff" d="M 5.644531 6.808594 C 6.953125 6.535156 7.808594 5.320312 7.675781 4.011719 C 8.53125 3.742188 9.070312 3.515625 10.019531 3.382812 C 10.152344 3.382812 10.335938 3.335938 10.46875 3.289062 C 10.425781 3.066406 10.425781 2.839844 10.335938 2.613281 C 10.199219 1.984375 10.605469 1.351562 11.234375 1.21875 C 11.867188 1.082031 12.496094 1.488281 12.632812 2.117188 C 12.632812 2.253906 12.679688 2.34375 12.679688 2.480469 L 13.941406 1.894531 C 14.121094 1.804688 14.164062 1.621094 14.121094 1.441406 L 13.535156 0.226562 C 13.445312 0.046875 13.265625 0 13.085938 0.046875 L 11.054688 0.992188 C 10.425781 1.261719 9.882812 1.667969 9.386719 2.074219 C 8.710938 2.660156 8.261719 2.886719 7.492188 3.382812 C 7.042969 2.300781 5.917969 1.667969 4.699219 1.894531 C 3.347656 2.164062 2.445312 3.472656 2.714844 4.824219 C 2.984375 6.175781 4.292969 7.078125 5.644531 6.808594 Z M 5.644531 6.808594 " fill-opacity="1" fill-rule="nonzero"/><path fill="#ffffff" d="M 12.226562 2.207031 C 12.136719 1.804688 11.730469 1.53125 11.28125 1.621094 C 10.875 1.714844 10.605469 2.117188 10.695312 2.570312 C 11.011719 4.011719 10.785156 5.273438 10.019531 6.355469 C 8.757812 8.070312 6.277344 8.835938 5.375 8.925781 C 4.96875 8.972656 4.609375 9.332031 4.652344 9.78125 C 4.699219 10.1875 5.015625 10.503906 5.421875 10.503906 C 5.421875 10.503906 5.464844 10.503906 5.511719 10.503906 C 6.90625 10.367188 9.746094 9.421875 11.28125 7.304688 C 12.363281 5.816406 12.679688 4.101562 12.226562 2.207031 Z M 12.226562 2.207031 " fill-opacity="1" fill-rule="nonzero"/><path fill="#ffffff" d="M 12.496094 13.75 L 12.40625 12.9375 L 12.046875 12.9375 L 11.957031 13.75 C 11.910156 13.976562 11.867188 14.199219 11.820312 14.425781 C 11.6875 14.785156 11.640625 15.191406 11.640625 15.597656 L 11.640625 16.90625 C 11.640625 16.996094 11.730469 17.085938 11.820312 17.085938 L 12.632812 17.085938 C 12.722656 17.085938 12.8125 16.996094 12.8125 16.90625 L 12.8125 15.597656 C 12.8125 15.191406 12.769531 14.832031 12.632812 14.425781 C 12.589844 14.199219 12.542969 13.976562 12.496094 13.75 Z M 12.496094 13.75 " fill-opacity="1" fill-rule="nonzero"/><path fill="#ffffff" d="M 13.894531 14.425781 C 13.761719 14.785156 13.714844 15.191406 13.714844 15.597656 L 13.714844 16.90625 C 13.714844 16.996094 13.804688 17.085938 13.894531 17.085938 L 14.707031 17.085938 C 14.796875 17.085938 14.886719 16.996094 14.886719 16.90625 L 14.886719 15.597656 C 14.886719 15.191406 14.84375 14.832031 14.707031 14.425781 C 14.617188 14.199219 14.570312 13.976562 14.570312 13.75 L 14.480469 12.9375 L 14.121094 12.9375 L 14.03125 13.75 C 14.03125 13.976562 13.984375 14.199219 13.894531 14.425781 Z M 13.894531 14.425781 " fill-opacity="1" fill-rule="nonzero"/><path fill="#ffffff" d="M 16.015625 17.085938 L 16.824219 17.085938 C 16.914062 17.085938 17.007812 16.996094 17.007812 16.90625 L 17.007812 15.597656 C 17.007812 15.191406 16.960938 14.832031 16.824219 14.425781 C 16.734375 14.199219 16.691406 13.976562 16.691406 13.75 L 16.601562 12.9375 L 16.238281 12.9375 L 16.148438 13.75 C 16.105469 13.976562 16.058594 14.199219 16.015625 14.425781 C 15.878906 14.785156 15.835938 15.191406 15.835938 15.597656 L 15.835938 16.90625 C 15.835938 16.996094 15.925781 17.085938 16.015625 17.085938 Z M 16.015625 17.085938 " fill-opacity="1" fill-rule="nonzero"/><path fill="#ffffff" d="M 16.195312 22.855469 C 15.066406 22.902344 14.4375 22.765625 13.488281 23.035156 C 12.902344 23.214844 12.589844 23.214844 11.867188 23.308594 L 11.867188 23.667969 C 12.589844 23.757812 12.949219 23.757812 13.488281 23.9375 C 14.4375 24.207031 15.023438 24.117188 16.195312 24.117188 C 16.328125 24.117188 16.421875 24.027344 16.421875 23.894531 L 16.421875 23.035156 C 16.421875 22.945312 16.328125 22.855469 16.195312 22.855469 Z M 16.195312 22.855469 " fill-opacity="1" fill-rule="nonzero"/><path fill="#ffffff" d="M 18.089844 17.085938 L 18.898438 17.085938 C 18.988281 17.085938 19.078125 16.996094 19.078125 16.90625 L 19.078125 15.597656 C 19.078125 15.191406 19.035156 14.832031 18.898438 14.425781 C 18.808594 14.199219 18.765625 13.976562 18.765625 13.75 L 18.675781 12.9375 L 18.3125 12.9375 L 18.222656 13.75 C 18.179688 13.976562 18.132812 14.199219 18.089844 14.425781 C 17.953125 14.785156 17.90625 15.191406 17.90625 15.597656 L 17.90625 16.90625 C 17.90625 16.996094 17.996094 17.085938 18.089844 17.085938 Z M 18.089844 17.085938 " fill-opacity="1" fill-rule="nonzero"/><path fill="#ffffff" d="M 10.921875 17.671875 L 19.441406 17.671875 L 19.441406 18.03125 L 10.921875 18.03125 Z M 10.921875 17.671875 " fill-opacity="1" fill-rule="nonzero"/></svg>