<svg xmlns="http://www.w3.org/2000/svg" xmlns:xlink="http://www.w3.org/1999/xlink" width="40" zoomAndPan="magnify" viewBox="0 0 30 30.000001" height="40" preserveAspectRatio="xMidYMid meet" version="1.0"><defs><clipPath id="1bdcc60409"><path d="M 0.484375 14 L 15 14 L 15 29.03125 L 0.484375 29.03125 Z M 0.484375 14 " clip-rule="nonzero"/></clipPath><clipPath id="74b37eeb69"><path d="M 15 14 L 29.515625 14 L 29.515625 29.03125 L 15 29.03125 Z M 15 14 " clip-rule="nonzero"/></clipPath></defs><path fill="#ffffff" d="M 14.792969 1.347656 C 14.042969 0.75 13.125 0.425781 12.15625 0.425781 L 12.128906 0.425781 C 10.996094 0.433594 9.9375 0.878906 9.140625 1.6875 C 8.347656 2.492188 7.910156 3.558594 7.921875 4.6875 C 7.925781 5.820312 8.375 6.878906 9.183594 7.671875 L 14.53125 12.953125 C 14.617188 13.039062 14.738281 13.089844 14.863281 13.089844 L 14.867188 13.089844 C 14.992188 13.089844 15.113281 13.035156 15.203125 12.949219 L 20.484375 7.601562 C 21.277344 6.792969 21.710938 5.730469 21.703125 4.597656 C 21.699219 3.464844 21.25 2.40625 20.441406 1.609375 C 18.890625 0.0820312 16.445312 -0.00390625 14.792969 1.347656 Z M 14.792969 1.347656 " fill-opacity="1" fill-rule="nonzero"/><g clip-path="url(#1bdcc60409)"><path fill="#ffffff" d="M 0.589844 14.554688 C 0.5 14.664062 0.46875 14.816406 0.496094 14.957031 L 3.605469 28.648438 C 3.652344 28.871094 3.847656 29.023438 4.066406 29.023438 L 10.945312 29.023438 C 11.167969 29.023438 11.359375 28.871094 11.410156 28.648438 L 14.515625 14.957031 C 14.550781 14.816406 14.515625 14.664062 14.425781 14.554688 C 14.335938 14.441406 14.195312 14.371094 14.046875 14.371094 L 0.964844 14.371094 C 0.820312 14.371094 0.683594 14.441406 0.589844 14.554688 Z M 10.5625 28.066406 L 4.449219 28.066406 L 4.160156 26.769531 L 10.859375 26.769531 Z M 13.449219 15.328125 L 12.886719 17.820312 L 2.128906 17.820312 L 1.5625 15.328125 Z M 13.449219 15.328125 " fill-opacity="1" fill-rule="nonzero"/></g><g clip-path="url(#74b37eeb69)"><path fill="#ffffff" d="M 15.199219 14.554688 C 15.109375 14.664062 15.074219 14.816406 15.109375 14.957031 L 18.210938 28.648438 C 18.265625 28.871094 18.453125 29.023438 18.679688 29.023438 L 25.554688 29.023438 C 25.773438 29.023438 25.972656 28.871094 26.019531 28.648438 L 29.128906 14.957031 C 29.15625 14.816406 29.121094 14.664062 29.03125 14.554688 C 28.941406 14.441406 28.800781 14.371094 28.660156 14.371094 L 15.574219 14.371094 C 15.425781 14.371094 15.289062 14.441406 15.199219 14.554688 Z M 25.171875 28.066406 L 19.0625 28.066406 L 18.765625 26.769531 L 25.464844 26.769531 Z M 28.0625 15.328125 L 27.496094 17.820312 L 16.734375 17.820312 L 16.171875 15.328125 Z M 28.0625 15.328125 " fill-opacity="1" fill-rule="nonzero"/></g></svg>